<svg width="45" height="44" viewBox="0 0 45 44" fill="none" xmlns="http://www.w3.org/2000/svg">
<path d="M6.54112 18.83C6.6567 18.1259 6.8367 17.3626 7.05417 16.6305C7.15393 16.6516 7.12544 16.5803 7.14443 16.5212C7.19985 16.3513 7.25317 16.176 7.31071 16.0076C7.43633 15.6408 7.58782 15.2666 7.75408 14.9008C7.80846 14.7809 7.97103 14.6448 7.97051 14.4684C8.037 14.45 8.0254 14.394 8.04388 14.3587C8.07659 14.2964 8.11777 14.2362 8.15365 14.1755C10.6989 9.89367 14.7939 6.91402 19.7651 6.19458C22.732 5.76545 26.2558 6.21992 28.9818 7.47828C32.4448 9.07712 35.2103 11.929 36.8179 15.3489C36.8353 15.3858 36.802 15.4787 36.8914 15.4956C36.8914 15.5078 36.8909 15.5199 36.8914 15.532C36.8934 15.5685 36.9246 15.5912 36.9278 15.6054C36.9789 15.815 37.0686 15.8635 37.1109 15.9718C37.1319 16.0256 37.1564 16.1174 37.1842 16.1918C37.1955 16.2214 37.198 16.2758 37.2208 16.3386C37.3938 16.8147 37.6045 17.4138 37.6603 17.9147C37.6674 17.9759 37.6398 18.044 37.6967 18.0979C37.6943 18.1216 37.6983 18.147 37.6967 18.1713C37.69 18.262 37.6705 18.3428 37.7702 18.318C37.7738 18.3908 37.7648 18.4653 37.7702 18.5381C37.775 18.6004 37.7949 18.925 37.8071 18.9414C37.8118 18.9477 37.8647 18.9371 37.8806 18.9414C37.8858 19.0385 37.8783 19.1372 37.8806 19.2349C37.8822 19.3103 37.8593 19.3911 37.917 19.4549C37.9143 19.4914 37.9186 19.5283 37.917 19.5647C37.9122 19.6766 37.8731 19.9722 37.9902 19.9311C37.995 20.0039 37.9866 20.0783 37.9902 20.1512C37.9353 20.2346 37.9063 20.4837 38.0266 20.4446C38.0373 20.8453 38.0309 21.2533 38.0266 21.6545C37.8652 21.627 37.9862 21.8466 37.9902 21.911C37.9934 21.9595 37.9893 22.0092 37.9902 22.0577C37.8799 22.0371 37.919 22.1137 37.917 22.1844C37.91 22.4014 37.8905 22.6121 37.8806 22.8278C37.8783 22.8764 37.8826 22.9261 37.8806 22.9745C37.879 23.0116 37.8806 23.0279 37.8806 23.048C37.8794 23.0971 37.8815 23.1457 37.8806 23.1947C37.7775 23.1631 37.7992 23.285 37.8071 23.3779C37.8093 23.4021 37.805 23.4269 37.8071 23.4511C37.7607 23.4939 37.7723 23.5436 37.7707 23.5979C37.7157 25.0549 36.5809 27.5034 35.7844 28.7413C30.3951 37.1208 18.4956 38.5364 11.1882 31.7716C8.23019 29.0332 6.63138 25.7242 6.43184 21.6724C6.42076 21.4486 6.36957 19.7901 6.43026 19.7131L6.54005 18.8332L6.54112 18.83ZM35.8289 18.2066C33.8557 9.8087 24.3794 5.60024 16.5484 8.91507C13.9652 10.0082 11.2653 12.2378 9.91347 14.7245C9.89235 14.763 9.89077 14.8073 9.87704 14.8342C9.86596 14.8564 9.77306 14.8913 9.80367 14.981C9.69865 15.028 9.59731 15.2386 9.58358 15.3473C9.582 15.3594 9.58621 15.3726 9.58358 15.3837C9.30647 15.7622 9.11801 16.2388 8.95915 16.6838C7.41838 20.9999 8.25712 26.2223 11.4732 29.5684C11.5498 29.648 11.4838 29.7097 11.6358 29.6428C11.5931 29.8085 11.6923 29.7773 11.7456 29.8433C13.9488 32.5595 18.55 34.3098 21.9894 34.337C30.1313 34.3996 37.2936 27.7051 36.0484 19.3061C35.9951 18.9466 35.9444 18.6716 35.8653 18.3164C35.8542 18.2678 35.8345 18.2319 35.8289 18.2066Z" fill="#FAFAFA"/>
<path d="M27.0552 40.5896C28.1766 39.952 29.8921 39.3132 31.2091 39.7788C31.8235 39.9959 31.7708 40.7945 31.2428 41.0947C30.9711 41.2494 30.7741 41.1259 30.4944 41.1169C28.1481 41.0425 26.7732 42.8149 24.7208 43.5534C22.9638 44.1858 21.1691 44.1435 19.4436 43.4435C17.8606 42.8018 16.4043 41.3559 14.6851 41.1284C14.3246 41.0809 13.5376 41.1992 13.2568 41.0916C13.2336 41.0825 12.9237 40.7823 12.9031 40.7474C12.7569 40.5019 12.8298 40.3242 12.9264 40.0802C12.9454 40.0327 13.0082 40.0038 13.0187 39.9567C13.0246 39.9303 12.9866 39.8744 12.9918 39.8706C13.0061 39.8611 13.0763 39.8828 13.1116 39.8697C13.147 39.8564 13.1766 39.774 13.3201 39.7404C17.0113 38.8687 19.1844 43.0756 22.9776 42.4692C24.6096 42.2085 25.6789 41.3724 27.0552 40.5896Z" fill="#FAFAFA"/>
<path d="M35.1851 31.3873C35.4948 31.6586 35.6574 31.8472 35.6088 32.301C35.5966 32.4156 35.5238 32.518 35.5355 32.6272C35.5692 32.9496 36.4904 33.4765 36.7542 33.6761C37.4303 34.1876 38.3704 34.7418 37.9087 35.7368C37.6336 36.3286 37.2193 36.4647 36.5842 36.3833C36.1526 36.3279 35.7112 35.8275 35.4261 35.515C35.0811 35.1372 34.656 34.4399 34.2967 34.1521C33.9978 33.9131 33.8992 34.0799 33.5745 34.0815C33.2838 34.0831 33.1481 34.0101 32.9326 33.8403C32.8234 33.7541 32.4544 33.4591 32.5473 33.3087C32.5785 33.2581 33.158 32.8515 33.2704 32.7566C33.7387 32.3591 34.4143 31.7425 34.767 31.2665C34.826 31.1863 34.7532 31.0902 34.94 31.174C35.0376 31.2179 35.1084 31.3199 35.1855 31.3873H35.1851Z" fill="#FAFAFA"/>
<path d="M39.5861 19.4898C39.6607 19.504 39.9112 19.6513 39.9788 19.7094C40.112 19.8239 40.2513 20.0461 40.3826 20.1765C41.3761 20.1163 42.373 19.8171 43.3812 19.9099C44.8154 20.2546 44.7137 22.1105 43.2139 22.2388C42.286 22.3185 41.3228 21.9522 40.3996 21.9453C40.1647 22.2583 39.8997 22.6009 39.4773 22.6442C39.2125 22.6715 38.9516 22.5919 38.6877 22.6051C38.882 21.5785 38.8704 20.5154 38.6877 19.4898C38.9543 19.5246 39.3353 19.4423 39.5856 19.4898H39.5861Z" fill="#FAFAFA"/>
<path d="M23.6829 37.951C23.5746 38.0661 23.1802 38.2925 23.1545 38.427C23.2277 39.0447 23.4362 39.7129 23.4753 40.329C23.5382 41.3243 22.9444 42.2122 21.8533 41.9508C20.4128 41.6058 21.1555 39.4596 21.2648 38.4636C21.2558 38.3865 21.2209 38.3289 21.1687 38.2735C21.1207 38.2224 20.7718 37.9278 20.71 37.8886C20.6482 37.8495 20.5643 37.8681 20.5416 37.8301C20.4862 37.734 20.4888 36.8083 20.5474 36.7586C21.6522 36.8183 22.7558 36.8795 23.8585 36.7222C24.0469 37.0647 23.9535 37.6643 23.6833 37.9515L23.6829 37.951Z" fill="#FAFAFA"/>
<path d="M9.57734 31.1901C9.69715 31.3621 9.84073 31.5279 9.98534 31.6785C10.5633 32.2817 11.0885 32.7468 11.7658 33.2361C11.8608 33.3046 11.9505 33.2329 11.875 33.4561C11.5741 33.6858 11.2669 34.1102 10.8484 34.1086C10.7153 34.1086 10.4741 33.9935 10.3364 34.0062C10.2165 34.0173 9.90248 34.3619 9.81063 34.4686C9.35668 34.9947 8.59977 36.2806 7.8761 36.3846C7.47443 36.4427 7.01256 36.4178 6.70642 36.1311C6.38442 35.8293 6.31951 34.9113 6.61403 34.573C6.67526 34.503 6.82042 34.4306 6.89379 34.3578C7.31184 33.9422 7.69768 33.6795 8.13633 33.3093C8.28359 33.1848 8.38283 33.1954 8.49579 33.1285C8.51636 33.1163 8.80404 32.8006 8.81618 32.78C8.90169 32.6322 8.81618 32.5225 8.81301 32.3762C8.80562 32.0902 8.78769 31.9202 8.96134 31.6785C9.03839 31.5713 9.44801 31.1141 9.57786 31.1907L9.57734 31.1901Z" fill="#FAFAFA"/>
<path d="M4.04877 20.1132C4.25832 19.9279 4.37551 19.5822 4.67055 19.5072C4.98674 19.4265 5.34145 19.4576 5.66184 19.4903C5.52249 20.518 5.57529 21.5621 5.73047 22.585C5.71516 22.6284 5.68348 22.6357 5.64285 22.6427C5.46127 22.6743 4.75503 22.64 4.59033 22.5666C4.41456 22.4885 4.11529 21.9295 3.95482 21.9084C3.32035 21.987 2.68536 22.0709 2.05459 22.1696C1.88569 22.196 1.90785 22.1971 1.72258 22.2008C1.18155 22.2113 0.610426 22.242 0.243051 21.7748C-0.172359 21.247 -0.0440941 20.4431 0.542335 20.1074C1.29609 19.6761 2.41353 20.0625 3.25279 20.0958C3.46234 20.1137 3.4275 20.1163 3.46234 20.1137C3.49718 20.1111 3.56633 20.1258 3.60275 20.1232C3.75951 20.1343 3.731 20.1369 3.83657 20.1369C3.88409 20.1369 3.94636 20.147 3.99229 20.1422C4.0551 20.1354 4.04877 20.1137 4.04877 20.1137V20.1132Z" fill="#FAFAFA"/>
<path d="M33.3574 38.1997C33.735 38.4859 33.9713 38.6937 33.8779 39.2206C33.8363 39.4543 33.5548 39.6492 33.338 39.7074C32.7838 39.8557 32.4849 39.4344 32.087 39.1593C31.4283 38.7044 30.5099 38.3444 29.6991 38.5248C29.0789 38.6627 28.484 39.387 27.859 38.8052C27.5355 38.5043 27.6374 37.9232 27.9752 37.6729C29.6258 36.4521 31.8536 37.0613 33.357 38.2008L33.3574 38.1997Z" fill="#FAFAFA"/>
<path d="M16.7195 37.902C16.9692 38.2778 16.7 38.7999 16.3168 38.9608C15.789 39.1829 15.5235 38.8082 15.0891 38.635C14.2762 38.3115 13.2575 38.5864 12.5354 39.0282C12.0482 39.3265 11.5858 39.9482 10.9645 39.6437C10.5512 39.4411 10.405 38.8446 10.7175 38.5032C10.7528 38.4645 10.8104 38.4736 10.8468 38.4413C11.9104 37.5045 13.4517 36.8099 14.9075 37.0573C15.3551 37.1335 16.4657 37.5212 16.719 37.9024L16.7195 37.902Z" fill="#FAFAFA"/>
<path d="M37.7132 6.13201C38.0627 6.49515 38.1502 6.97866 37.9117 7.4421C37.6499 7.94989 36.7859 8.4603 36.3299 8.79285C36.1994 8.88786 35.6611 9.25944 35.6068 9.35289C35.5333 9.47852 35.6626 9.8084 35.6468 10.0164C35.6219 10.3436 35.1944 10.8947 34.8866 10.9792C34.7526 11.0161 34.8303 10.939 34.7917 10.8889C34.5511 10.5732 33.9365 9.97678 33.6295 9.68436C33.4757 9.53816 32.5146 8.8319 32.4967 8.76118C32.4671 8.64505 32.9322 8.21961 33.0466 8.1494C33.2646 8.01639 33.4314 8.00056 33.6853 8.01535C33.8083 8.02272 33.991 8.09082 34.0892 8.08607C34.3313 8.07339 34.7564 7.35026 34.9126 7.15653C35.2256 6.76806 35.9245 5.89236 36.3991 5.78363C36.9311 5.66171 37.3421 5.74668 37.7127 6.13253L37.7132 6.13201Z" fill="#FAFAFA"/>
<path d="M20.5069 4.47932C20.5501 4.2365 21.0711 3.96097 21.2405 3.77518C21.2511 3.21462 21.0384 2.64929 20.984 2.09613C20.9555 1.80845 20.9407 1.15024 21.0188 0.885793C21.3899 -0.377328 23.2162 -0.258035 23.431 1.04256C23.4966 1.93091 23.2664 2.79974 23.1466 3.67278C23.1655 3.85911 23.7636 4.13464 23.8407 4.30671C23.9088 4.45926 23.9736 5.34763 23.8577 5.37982L22.6166 5.26632C21.9051 5.24626 21.2052 5.27688 20.5074 5.41464C20.5422 5.13436 20.4599 4.74535 20.5074 4.47986L20.5069 4.47932Z" fill="#FAFAFA"/>
<path d="M8.43397 6.05139C9.06948 6.52223 9.54824 7.44015 10.1352 7.99702C10.3822 8.16276 10.5585 8.03026 10.8119 8.0176C11.3054 7.9928 11.582 8.33272 11.8887 8.66473C11.9092 8.73494 11.8053 8.81041 11.7535 8.85792C11.0673 9.48604 10.4719 9.95846 9.82745 10.6605C9.73403 10.7618 9.5836 11.0785 9.43421 10.9608C9.31017 10.8627 8.85676 10.3607 8.82244 10.2261C8.74909 9.93524 8.93013 9.51138 8.77706 9.28177C8.65829 9.10442 7.97369 8.73914 7.75358 8.58239C7.39676 8.32797 6.62452 7.76477 6.47516 7.36836C5.98636 6.07357 7.3767 5.26862 8.43343 6.05194L8.43397 6.05139Z" fill="#FAFAFA"/>
<path d="M10.7567 15.2743C10.8121 15.2363 11.2138 14.5174 11.3078 14.3854C15.7216 8.16433 24.2736 6.88168 30.3633 11.5209C32.4303 13.0954 34.2111 15.6042 34.7949 18.1595C34.8092 18.2212 34.7992 18.2883 34.8759 18.3168C35.182 19.8702 35.3102 21.4923 35.0199 23.061C33.5292 31.1147 24.6905 35.3675 17.1879 32.3937C12.0583 30.3604 8.55931 25.1973 9.29035 19.5451C9.39488 18.7385 9.72583 17.9726 9.83983 17.2173C9.84141 17.2051 9.83825 17.1925 9.83983 17.1809C9.91691 17.1904 9.92272 17.1846 9.9132 17.1075C9.92114 17.0996 9.94859 16.9222 9.94963 16.8874C10.042 16.8985 10.0204 16.832 10.0415 16.7792C10.1286 16.5586 10.2178 16.3326 10.3165 16.1178C10.355 16.0334 10.3909 15.9373 10.4263 15.8613C10.4453 15.8212 10.4764 15.7636 10.4996 15.7145C10.5192 15.6728 10.5329 15.6095 10.5361 15.6048C10.5514 15.5826 10.5857 15.638 10.6458 15.458C10.6591 15.4189 10.6696 15.3947 10.6823 15.3482C10.7525 15.3604 10.7678 15.3445 10.7556 15.2748L10.7567 15.2743ZM27.9478 16.6673C27.769 16.2888 27.0669 15.9009 26.7623 15.5984C26.7375 15.5736 26.688 15.5678 26.7027 15.515L29.6237 12.6272C29.6782 12.4958 29.5805 12.5343 29.5118 12.4836C29.0453 12.139 28.5877 11.8164 28.0826 11.5293C26.6072 10.69 25.0263 10.2313 23.3389 10.0397C23.3093 10.0265 23.2559 10.0741 23.2559 10.0878V11.2791C22.8066 10.9709 22.0952 11.1276 21.8915 11.656C21.8793 11.6866 21.8265 11.8703 21.8265 11.884V14.2482C21.6471 14.2281 21.3911 14.2413 21.2216 14.2118C21.1799 14.2044 21.1477 14.1986 21.1356 14.1516L21.0939 10.0693C18.8036 10.234 16.6173 11.1677 14.7941 12.5301L14.8237 12.6557L16.584 14.378C16.5983 14.4551 16.5714 14.4203 16.5344 14.435C16.2425 14.5522 15.313 14.7306 15.17 14.9581C14.9562 15.2981 15.0127 15.6786 15.3732 15.8813L15.9612 16.1173C15.8546 16.0782 15.5073 16.1706 15.4481 16.1384C15.4054 16.1152 15.3943 16.0471 15.3626 16.0202C14.7862 15.5346 14.2515 14.9602 13.7237 14.4514C13.5685 14.302 13.4244 14.14 13.2676 13.9922C12.5608 14.8388 11.8483 15.7985 11.4899 16.8504H11.4534C11.4213 16.8441 11.426 16.871 11.417 16.8869C11.3415 17.0194 11.237 17.3176 11.1795 17.4738C10.8902 18.2651 10.7192 19.0864 10.5751 19.9156C10.5588 19.9547 10.6004 20.0391 10.629 20.0391H15.2291C15.1742 20.3447 14.9446 20.6778 14.7524 20.9264C14.6411 21.07 14.3692 21.278 14.3038 21.4411C14.2705 21.5239 14.2848 21.6796 14.2763 21.6886C14.251 21.715 13.702 21.6659 13.549 21.7124C13.4967 21.7282 13.3368 21.8332 13.3067 21.8734C13.2439 21.9552 13.2734 22.0919 13.1219 22.0919H10.5376C10.5989 22.3843 10.6305 22.6873 10.6949 22.9792C10.8364 23.6211 11.0449 24.1895 11.2518 24.8045C11.2861 24.9058 11.2803 25.0704 11.3141 25.1464C11.34 25.2045 11.4038 25.1989 11.4139 25.2131C11.4302 25.2362 11.3796 25.2864 11.3875 25.3117C11.3896 25.3191 11.4967 25.3693 11.5141 25.4026C11.5395 25.4516 11.5305 25.5129 11.5559 25.5629C12.0267 26.4883 12.5667 27.3704 13.2687 28.1389C13.3357 28.0828 13.5083 27.8633 13.5949 27.8854C13.6107 27.8897 13.7722 28.0871 13.8139 28.1251C14.2394 28.5131 14.726 28.8608 15.303 28.9827C15.3748 29.0831 14.7593 29.5138 14.8316 29.6373C14.8427 29.6563 15.0871 29.7967 15.1293 29.8263C16.1459 30.5494 17.3193 31.1233 18.5207 31.5011C19.3584 31.7652 20.2541 31.9725 21.1314 32.0247V29.5324H21.6629C21.7363 29.5324 22.2076 29.377 22.3132 29.3397C22.6405 29.224 22.9414 29.0487 23.257 28.9095L23.2934 32.0252C24.1601 31.9752 25.0243 31.7819 25.8523 31.5232C27.0147 31.1601 28.3523 30.5209 29.3313 29.7974C29.3931 29.7512 29.5995 29.6262 29.5932 29.5577C29.5832 29.4499 29.0114 29.0103 29.0853 28.9463C29.4571 28.9859 29.9579 29.0392 30.1623 28.6492C30.3581 28.275 30.2224 27.9736 29.9283 27.7181C29.5726 27.4084 29.0019 27.1951 28.5348 27.1501C28.4905 27.1074 28.7591 26.7036 28.7982 26.6256C28.9528 26.3172 28.8943 25.9525 29.2755 26.3441L31.118 28.105C31.2801 28.0808 32.0234 27.0231 32.15 26.825C32.9956 25.5027 33.5208 24.0432 33.7546 22.4994C33.763 22.4429 33.791 22.1062 33.7768 22.0919C33.1903 22.199 33.4153 21.9562 33.2416 21.6195C33.1044 21.3534 32.7681 21.1829 32.4758 21.1835C32.3505 21.1835 31.9363 21.3038 31.8714 21.2695C31.8063 21.2352 31.3724 20.5237 31.2786 20.3923C31.2338 20.33 30.9898 20.1178 31.0642 20.0396H33.8139C33.6095 18.1605 32.8405 16.3786 31.7905 14.823C31.6069 14.5507 31.4043 14.2371 31.1576 14.026C31.052 14.0429 29.9416 15.2653 29.7668 15.4432C29.3931 15.8227 28.7878 16.5147 28.3966 16.813C28.2451 16.928 28.2741 16.8526 28.1321 16.8135C28.1294 16.7206 28.0731 16.6942 27.9853 16.7037C27.9779 16.6847 27.9521 16.6747 27.9489 16.6673H27.9478Z" fill="#FAFAFA"/>
<path d="M31.1495 22.7294C31.1411 22.7319 31.1321 22.7789 31.0869 22.7948C30.7927 22.8988 30.3916 22.9248 30.0977 23.0874C29.7377 23.2868 29.0472 24.3171 28.8502 24.6993C28.4973 25.3855 28.1762 26.7806 27.497 27.1579C27.2431 27.2988 26.4866 27.5174 26.2143 27.4446C26.1827 27.436 25.903 27.029 25.7978 26.9379C24.983 26.2295 23.7233 26.3091 22.7802 26.6935C22.2238 26.9205 21.6242 27.4177 21.005 27.4035C20.7042 27.3965 20.6239 27.1532 20.4134 26.9684C19.7145 26.355 18.701 26.2126 17.8222 26.4649C17.345 26.6017 16.9201 26.8809 16.4519 27.0412C15.6918 26.7769 15.6976 25.887 15.24 25.359C14.9692 25.0466 14.5665 24.931 14.2244 24.7262C14.0677 24.5905 14.1421 24.2918 14.0898 24.0969C14.0571 23.9739 14.0708 24.0047 14.055 23.8346C14.0159 23.4114 13.8613 22.8787 13.8676 22.4771C13.8708 22.2871 13.9373 22.3023 14.1104 22.3103C15.287 22.3652 16.4915 22.4707 17.6644 22.5689C18.027 22.5995 18.3917 22.6449 18.7544 22.6797C19.0119 23.0713 19.1814 23.3951 19.6628 23.5396C20.9185 23.9165 23.2858 23.8828 24.5832 23.6589C25.1566 23.5601 25.3386 23.3521 25.7381 22.9811C27.6453 22.7046 29.5451 22.399 31.4367 22.0453C31.6901 21.9978 32.1362 21.8463 32.3641 21.8336C32.6628 21.8173 32.7965 22.1287 32.6006 22.2928C32.5611 22.3261 32.1039 22.4897 32.0173 22.5161C31.7491 22.598 31.4287 22.6428 31.1479 22.7288L31.1495 22.7294ZM27.5318 23.8278C27.2494 23.5617 26.7194 23.7012 26.6365 24.098C26.5209 24.6538 27.1481 25.026 27.5445 24.6396C27.7566 24.4331 27.7455 24.0295 27.5318 23.8278ZM21.2991 25.414C21.8433 24.5783 20.6319 23.6886 20.0307 24.5299C19.4157 25.3907 20.7654 26.2332 21.2991 25.414ZM18.881 24.4512C18.5232 24.0644 17.8681 24.1467 17.6274 24.6197C17.3635 25.1379 17.7103 25.7154 18.2888 25.7237C18.9734 25.7344 19.3413 24.9489 18.881 24.4512ZM23.575 24.4492C22.8123 23.7069 21.7519 24.8085 22.4497 25.5196C23.0167 26.0975 24.0618 25.4662 23.6939 24.6127C23.6822 24.5853 23.6401 24.5815 23.6232 24.5568C23.6021 24.5252 23.6015 24.4745 23.575 24.4485V24.4492Z" fill="#FAFAFA"/>
<path d="M20.7633 20.9927C21.5877 19.0925 21.3745 17.3538 20.5806 15.4752C20.5368 15.3712 20.2117 14.7647 20.2502 14.7246C21.867 14.9363 23.4823 15.1031 25.0969 15.349C25.3133 15.7819 25.5143 16.2253 25.7117 16.6676C26.3615 18.1234 27.0228 19.5074 26.6914 21.1479C26.6075 21.5638 26.4011 21.937 26.2934 22.3445C25.4822 22.3519 24.6714 22.2859 23.859 22.3107C22.87 22.3413 21.8026 22.4495 20.8187 22.5694C20.446 22.6147 20.0786 22.7119 19.7002 22.7151C19.8739 22.4385 20.1087 22.2004 20.2882 21.928C20.4788 21.6393 20.6213 21.32 20.7633 20.9927Z" fill="#FAFAFA"/>
<path d="M20.2138 19.5626C20.2149 19.5748 20.2133 19.5869 20.2138 19.599C20.226 19.7901 20.2233 20.0303 20.2138 20.2224C20.2112 20.2731 20.2191 20.3977 20.2138 20.4056C20.2117 20.4087 20.1478 20.3919 20.1389 20.4293C20.1225 20.4974 20.1721 20.575 20.1663 20.6394C20.1589 20.7218 19.9916 21.191 19.9467 21.2934C19.8934 21.4153 19.7683 21.5589 19.7139 21.6919L15.0088 21.6149L15.4838 21.038C16.0476 20.1797 16.3611 19.2766 16.2075 18.2351C16.1299 17.7094 15.9219 17.2327 15.7414 16.7397C16.4841 16.764 17.2231 16.8886 17.9599 16.9593C18.378 16.9995 18.8277 16.9614 19.2384 17.0739C19.307 17.1124 19.5413 17.5278 19.5968 17.6318C19.9066 18.2103 20.1621 18.9034 20.2138 19.5626Z" fill="#FAFAFA"/>
<path d="M20.0086 27.5396C20.0397 27.5729 20.0899 27.584 20.1136 27.6351C20.2187 27.8648 20.0962 27.9032 20.4356 28.0104C21.8866 28.468 22.9338 26.9717 24.3004 27.0784C24.586 27.1005 25.3861 27.3533 25.5308 27.6072C25.6364 27.7915 25.4944 27.8906 25.7963 28.0384C26.6483 28.4554 27.4649 27.7291 28.3689 27.8114C28.7481 27.8462 29.2944 28.0574 29.5609 28.3235C29.3208 28.3346 29.0805 28.2315 28.8458 28.2141C27.4955 28.1144 26.9327 29.3618 25.4669 28.7706C24.985 28.5763 24.5665 28.1366 24.0413 28.0701C23.0975 27.9502 22.3474 28.7758 21.401 28.8698C20.3406 28.9754 19.9637 28.5768 19.1139 28.1958C18.1654 27.7703 17.5008 28.3624 16.6024 28.4332C15.6091 28.5114 14.9128 28.2639 14.2388 27.5353C14.6373 27.5518 15.0274 27.7666 15.4349 27.8058C16.5438 27.9118 16.8801 27.5503 17.8059 27.2172C18.5153 26.9617 19.4607 26.9511 20.0086 27.5392V27.5396Z" fill="#FAFAFA"/>
<path d="M26.2618 16.374C26.2555 16.3645 26.2392 16.2341 26.2171 16.1808C26.2026 16.147 26.0443 15.881 26.17 15.9343C26.4382 16.1433 26.712 16.4115 26.9951 16.5936C27.0319 16.6173 27.0493 16.6432 27.1047 16.63C27.1174 16.668 27.1312 16.6801 27.1411 16.7033C27.2293 16.8955 27.4267 16.9842 27.5667 17.1214C28.6619 18.195 29.7576 19.4059 30.6381 20.6653C30.8149 20.9181 30.9743 21.1879 31.1364 21.4497C31.1384 21.5183 30.6317 21.4322 30.5696 21.4301C29.7979 21.4053 28.9534 21.4745 28.19 21.5832C27.8642 21.6297 27.5402 21.7157 27.2139 21.7616C27.2854 21.4122 27.4073 21.0459 27.4353 20.6817C27.5391 19.3072 26.9849 17.4993 26.2607 16.3734L26.2618 16.374Z" fill="#FAFAFA"/>
<path d="M15.3384 27.0774C15.2318 27.0394 15.1135 27.051 15.0064 27.0252C14.952 27.0118 14.6084 26.9101 14.5904 26.8974C14.5556 26.8732 14.5593 26.8389 14.5688 26.8056C14.5772 26.7756 14.9636 26.4235 15.0275 26.3828C15.1267 26.4572 15.1082 26.5956 15.1536 26.6946C15.1858 26.7649 15.378 27.0335 15.3384 27.0779V27.0774Z" fill="#FAFAFA"/>
<path d="M22.9628 22.8252V23.3382H22.4498L22.4862 22.8616L22.9628 22.8252Z" fill="#FAFAFA"/>
<path d="M22.8441 11.7654C22.8531 11.7696 22.9619 11.8937 22.9662 11.919C22.9978 12.1122 22.8974 12.3275 22.9264 12.5255C23.2479 12.5044 23.609 12.4542 23.9305 12.4928C24.2518 12.5313 24.5306 12.7525 24.8878 12.7815C25.2394 12.81 25.5831 12.7239 25.932 12.7092C25.8628 12.885 25.4142 13.1969 25.4147 13.3505C25.4147 13.464 25.6971 13.6445 25.7927 13.7358C25.8354 13.777 25.9225 13.8451 25.9315 13.9C25.8877 13.995 25.0267 14.0779 24.8874 14.0652C24.4467 14.0251 24.0978 13.7158 23.6418 13.7358C23.5656 13.739 23.0114 13.8525 22.9773 13.8789C22.7765 14.033 23.2183 14.6258 22.491 14.3539C22.471 13.6778 22.5 12.9995 22.4873 12.3233C22.4841 12.1581 22.3981 12.0705 22.491 11.89C22.5522 11.7701 22.7211 11.7073 22.8436 11.767L22.8441 11.7654Z" fill="#FAFAFA"/>
<path d="M17.9774 16.374C17.4084 16.4299 17.5873 16.3096 17.5029 15.8768L15.741 15.3653L15.8302 15.2713L17.4971 14.7942C17.4876 14.6411 17.504 14.422 17.6829 14.3724C17.7837 14.3444 17.9769 14.4231 17.9769 14.5229V16.374H17.9774Z" fill="#FAFAFA"/>
<path d="M20.8911 24.7869C21.0252 24.932 21.0093 25.1129 20.8351 25.2244C20.4884 25.4471 20.1569 24.9551 20.4884 24.7312C20.6557 24.6184 20.7649 24.6501 20.8911 24.7869Z" fill="#FAFAFA"/>
<path d="M18.4805 24.7056C18.6183 24.7926 18.6373 25.0232 18.528 25.1537C18.2741 25.4562 17.8772 25.1205 18.035 24.8059C18.0973 24.6823 18.3676 24.6343 18.4805 24.7056Z" fill="#FAFAFA"/>
<path d="M22.7538 25.1611C22.5052 24.8565 23.0593 24.4586 23.251 24.828C23.4426 25.1975 22.9824 25.4412 22.7538 25.1611Z" fill="#FAFAFA"/>
<path d="M22.2432 6.84082C30.6203 6.84082 37.3331 13.2441 37.3331 21.0492C37.3331 28.8542 30.6203 35.2575 22.2432 35.2575C13.8661 35.2575 7.15332 28.8542 7.15332 21.0492C7.15332 13.2441 13.8661 6.84084 22.2432 6.84082Z" stroke="#FAFAFA" stroke-width="1.58273"/>
<path d="M22.1889 9.33398C29.0729 9.33398 34.5958 14.604 34.5958 21.0357C34.5958 27.4673 29.0729 32.7374 22.1889 32.7374C15.3048 32.7374 9.78198 27.4673 9.78198 21.0357C9.78198 14.604 15.3048 9.33398 22.1889 9.33398Z" stroke="#FAFAFA" stroke-width="1.19836"/>
<path d="M20.1575 20.2642C20.1554 20.2792 20.154 20.2935 20.1536 20.3206C20.1534 20.3358 20.1568 20.3501 20.1593 20.3597C20.1629 20.3733 20.1618 20.3894 20.1636 20.4109C20.1682 20.4659 20.1618 20.4846 20.16 20.4987C20.1587 20.5091 20.1561 20.5176 20.155 20.528C20.154 20.538 20.1497 20.5491 20.1472 20.5606C20.1449 20.5712 20.1432 20.5814 20.1404 20.5928C20.1377 20.6037 20.1346 20.6136 20.1318 20.6272C20.129 20.6402 20.1275 20.6501 20.1218 20.673C20.1067 20.7231 20.0981 20.7454 20.085 20.7696C20.0732 20.7916 20.0513 20.8334 20.0265 20.8786" stroke="#FAFAFA" stroke-width="0.0904419" stroke-linecap="round"/>
<path d="M26.1592 15.9956C26.1572 15.9936 26.1511 15.9929 26.1472 15.9908C26.1454 15.9898 26.1443 15.9874 26.1438 15.9854C26.1434 15.9833 26.1441 15.9812 26.1445 15.9832C26.1474 16.0002 26.1483 16.01 26.1513 16.0183C26.1549 16.0277 26.1572 16.0369 26.1612 16.0486C26.1651 16.0591 26.1669 16.0699 26.1714 16.0799C26.175 16.088 26.1764 16.0981 26.18 16.1071C26.1836 16.1166 26.1875 16.1277 26.1909 16.1363C26.1956 16.1481 26.2033 16.1566 26.2085 16.1649C26.2132 16.1726 26.2191 16.1855 26.2252 16.1975C26.2297 16.2063 26.2343 16.2144 26.2377 16.2244C26.2406 16.2329 26.2433 16.2412 26.246 16.2495C26.249 16.2584 26.2528 16.2694 26.258 16.2784C26.2637 16.2884 26.2713 16.3011 26.2756 16.3097C26.2806 16.3203 26.2872 16.3293 26.2937 16.3386C26.3007 16.3483 26.3057 16.3582 26.312 16.3675C26.3188 16.3777 26.3319 16.3987 26.341 16.4146C26.3521 16.4344 26.3595 16.4414 26.3715 16.461C26.3862 16.4849 26.398 16.502 26.4041 16.5116C26.4258 16.5452 26.435 16.5543 26.4529 16.5751C26.4674 16.5925 26.4925 16.6238 26.5067 16.6413C26.5212 16.6589 26.5239 16.6616 26.5266 16.6644" stroke="#FAFAFA" stroke-width="0.0904419" stroke-linecap="round"/>
<path d="M27.9933 16.6235C27.9933 16.6312 27.9951 16.6465 28.0019 16.658C28.0087 16.6698 28.0218 16.6781 28.0333 16.6867C28.0444 16.6951 28.0525 16.704 28.0616 16.7131C28.0708 16.7222 28.0821 16.7279 28.0937 16.738C28.1043 16.7473 28.1167 16.7538 28.1355 16.771C28.1477 16.7824 28.1599 16.7911 28.1715 16.7964C28.1843 16.8025 28.1972 16.8094 28.211 16.8127C28.2228 16.8156 28.2345 16.818 28.2486 16.8195C28.2549 16.8201 28.2653 16.8219 28.2782 16.8209C28.2936 16.8198 28.3035 16.8047 28.3146 16.7927C28.3218 16.7788 28.3295 16.7635 28.3424 16.7262C28.3467 16.7147 28.3523 16.7024 28.3582 16.6896" stroke="#FAFAFA" stroke-width="0.0904419" stroke-linecap="round"/>
</svg>
