<svg width="85" height="85" viewBox="0 0 85 85" fill="none" xmlns="http://www.w3.org/2000/svg">
<g filter="url(#filter0_i_448_8062)">
<path d="M0 24C0 12.6863 0 7.02944 3.51472 3.51472C7.02944 0 12.6863 0 24 0H61C72.3137 0 77.9706 0 81.4853 3.51472C85 7.02944 85 12.6863 85 24V61C85 72.3137 85 77.9706 81.4853 81.4853C77.9706 85 72.3137 85 61 85H24C12.6863 85 7.02944 85 3.51472 81.4853C0 77.9706 0 72.3137 0 61V24Z" fill="#222222"/>
<path d="M0 24C0 12.6863 0 7.02944 3.51472 3.51472C7.02944 0 12.6863 0 24 0H61C72.3137 0 77.9706 0 81.4853 3.51472C85 7.02944 85 12.6863 85 24V61C85 72.3137 85 77.9706 81.4853 81.4853C77.9706 85 72.3137 85 61 85H24C12.6863 85 7.02944 85 3.51472 81.4853C0 77.9706 0 72.3137 0 61V24Z" fill="url(#paint0_radial_448_8062)"/>
<path d="M24 0.5H61C66.6709 0.5 70.8739 0.500763 74.1006 0.93457C77.3129 1.36646 79.4829 2.21919 81.1318 3.86816C82.7808 5.51714 83.6335 7.68709 84.0654 10.8994C84.4992 14.1261 84.5 18.3291 84.5 24V61C84.5 66.6709 84.4992 70.8739 84.0654 74.1006C83.6335 77.3129 82.7808 79.4829 81.1318 81.1318C79.4829 82.7808 77.3129 83.6335 74.1006 84.0654C70.8739 84.4992 66.6709 84.5 61 84.5H24C18.3291 84.5 14.1261 84.4992 10.8994 84.0654C7.68709 83.6335 5.51714 82.7808 3.86816 81.1318C2.21919 79.4829 1.36646 77.3129 0.93457 74.1006C0.500763 70.8739 0.5 66.6709 0.5 61V24C0.5 18.3291 0.500763 14.1261 0.93457 10.8994C1.36646 7.68709 2.21919 5.51714 3.86816 3.86816C5.51714 2.21919 7.68709 1.36646 10.8994 0.93457C13.3195 0.609207 16.2888 0.527467 20.0146 0.506836L24 0.5Z" stroke="#414141"/>
<g style="mix-blend-mode:soft-light">
<path d="M40.0663 26.7065C43.0313 26.2777 46.5535 26.7314 49.2773 27.9888C52.7376 29.5864 55.5008 32.4366 57.1074 35.854C57.1106 35.8609 57.1125 35.8717 57.1132 35.8862C57.1139 35.8998 57.1135 35.9164 57.1161 35.9321C57.1188 35.948 57.1244 35.9643 57.1357 35.978C57.1457 35.99 57.1604 35.9981 57.1796 36.0034C57.1795 36.0129 57.1793 36.023 57.1796 36.0327C57.1808 36.0541 57.1913 36.0719 57.2001 36.0845C57.2041 36.09 57.2093 36.0965 57.2119 36.1001C57.215 36.1044 57.2163 36.1067 57.2167 36.1079V36.1089C57.2426 36.215 57.2788 36.2808 57.3134 36.3335C57.3483 36.3865 57.3798 36.4237 57.4003 36.4761C57.4107 36.5025 57.4223 36.5386 57.4345 36.5776C57.4467 36.6164 57.4596 36.6584 57.4736 36.6958V36.6968C57.4787 36.7104 57.4822 36.7297 57.4872 36.7554C57.4922 36.7807 57.498 36.811 57.5097 36.8433C57.6828 37.3196 57.8935 37.9172 57.9492 38.4165C57.9508 38.4308 57.9508 38.4457 57.9501 38.4614C57.9494 38.477 57.9476 38.494 57.9482 38.5103C57.9493 38.5416 57.9578 38.5726 57.9853 38.6011V38.6714C57.9837 38.6931 57.9816 38.7162 57.9804 38.7358C57.9792 38.7559 57.9786 38.7756 57.9824 38.7915C57.9862 38.8075 57.9948 38.8212 58.0107 38.8286C58.0233 38.8343 58.0393 38.8348 58.0585 38.8315V39.0396C58.0609 39.0701 58.0671 39.1678 58.0742 39.2583C58.0777 39.3038 58.0822 39.3484 58.0859 39.3823C58.0877 39.3991 58.089 39.4135 58.0908 39.4243C58.0916 39.4297 58.0928 39.4343 58.0937 39.438C58.0941 39.4398 58.0951 39.4413 58.0956 39.4429C58.0961 39.4442 58.0963 39.4469 58.0976 39.4487C58.0996 39.4514 58.1028 39.4529 58.1044 39.4536C58.106 39.4542 58.108 39.4544 58.1093 39.4546C58.1121 39.455 58.1151 39.4556 58.1181 39.4556C58.1245 39.4555 58.1328 39.4543 58.1406 39.4536C58.1486 39.4529 58.157 39.4529 58.164 39.4526C58.1658 39.4526 58.1674 39.4526 58.1689 39.4526C58.1709 39.4974 58.1717 39.5428 58.1708 39.5884C58.1699 39.6372 58.1677 39.6868 58.1689 39.7358C58.1693 39.754 58.1689 39.7724 58.1679 39.7915C58.1669 39.8106 58.1651 39.8307 58.166 39.8501C58.1676 39.8874 58.1772 39.9242 58.205 39.9575C58.2039 39.9753 58.2045 39.993 58.205 40.0103L58.206 40.0649C58.2037 40.1197 58.192 40.2229 58.1962 40.3062C58.1984 40.3476 58.2047 40.3865 58.2187 40.4126C58.2258 40.4258 58.2357 40.4372 58.249 40.4429C58.2583 40.4468 58.2683 40.4465 58.2792 40.4448V40.6489C58.2654 40.6711 58.2534 40.7024 58.2451 40.7358C58.2364 40.7709 58.2309 40.8094 58.2314 40.8442C58.2319 40.8788 58.2376 40.9121 58.2529 40.9341C58.2607 40.9454 58.2716 40.9534 58.2851 40.9575C58.2946 40.9604 58.3042 40.9575 58.3154 40.9556C58.3255 41.3491 58.3196 41.7497 58.3154 42.144C58.2803 42.1406 58.2565 42.1476 58.2431 42.1685C58.2293 42.1901 58.23 42.2206 58.2353 42.2505C58.2407 42.2811 58.2513 42.3152 58.2607 42.3442C58.2654 42.3588 58.2701 42.3725 58.2734 42.3843C58.2767 42.3961 58.2788 42.4059 58.2792 42.4126C58.2808 42.4362 58.2807 42.4605 58.2802 42.4849C58.2798 42.5049 58.2792 42.5252 58.2792 42.5454C58.2574 42.5425 58.2402 42.5436 58.2275 42.5493C58.2114 42.5568 58.2046 42.5704 58.2021 42.5854C58.1997 42.5998 58.2005 42.6169 58.2021 42.6333L58.206 42.6851C58.199 42.9021 58.1789 43.111 58.1689 43.3276V43.6821C58.1483 43.6781 58.1314 43.6789 58.1181 43.688C58.1021 43.6989 58.0942 43.7177 58.0908 43.7378C58.0873 43.7582 58.0882 43.7829 58.0898 43.8071L58.0956 43.8794V43.9478C58.0733 43.9701 58.0637 43.994 58.0605 44.019C58.0588 44.0321 58.0594 44.046 58.0595 44.0591V44.0981C58.0321 44.8244 57.7355 45.7991 57.3456 46.7476C56.9557 47.696 56.473 48.6175 56.0751 49.2358C50.6899 57.6092 38.7984 59.024 31.496 52.2642C28.5401 49.5278 26.9425 46.2211 26.7431 42.1724C26.7376 42.0607 26.7224 41.5903 26.7158 41.1382C26.7125 40.9121 26.7112 40.6906 26.7148 40.521C26.7166 40.4364 26.7192 40.3648 26.7236 40.312C26.7258 40.2856 26.7285 40.2635 26.7314 40.2476C26.7328 40.2399 26.7339 40.2337 26.7353 40.229C26.7367 40.2243 26.7376 40.2211 26.7382 40.2202L26.7402 40.2222L26.7411 40.2153L26.8505 39.3345H26.8515L26.8525 39.3325C26.9675 38.6318 27.1461 37.8721 27.3622 37.1431C27.383 37.1465 27.3993 37.1471 27.412 37.1421C27.4276 37.1359 27.4358 37.1233 27.4404 37.1099C27.4447 37.0972 27.4457 37.082 27.4472 37.0679C27.4488 37.0531 27.4507 37.0384 27.455 37.0249C27.5105 36.8548 27.5636 36.6803 27.621 36.5122C27.7465 36.1457 27.8983 35.7713 28.0644 35.4058C28.0775 35.377 28.0974 35.3471 28.1201 35.3149C28.1427 35.283 28.1685 35.2481 28.1923 35.2124C28.2389 35.1425 28.2796 35.0641 28.2812 34.9751C28.2951 34.9702 28.3069 34.9658 28.3154 34.9575C28.3254 34.9476 28.3316 34.9357 28.3359 34.9243C28.34 34.9132 28.3422 34.9012 28.3447 34.8911C28.3472 34.8809 28.3497 34.8721 28.3535 34.8647C28.386 34.8027 28.4273 34.7438 28.4638 34.6821C31.0074 30.403 35.099 27.4255 40.0663 26.7065ZM56.1396 38.7046C54.1646 30.2992 44.6805 26.0875 36.8437 29.4048C34.2586 30.4988 31.5563 32.73 30.2031 35.2192C30.1917 35.2399 30.1863 35.2624 30.1816 35.2817C30.1767 35.3017 30.173 35.3177 30.1669 35.3296C30.1665 35.3304 30.1653 35.3324 30.162 35.3354C30.1589 35.3384 30.1543 35.3413 30.1494 35.3452C30.1397 35.3529 30.1272 35.3634 30.1161 35.3755C30.1052 35.3875 30.095 35.4023 30.0898 35.4204C30.0852 35.4367 30.0852 35.4553 30.0908 35.4761C30.0656 35.4893 30.0409 35.51 30.0185 35.5356C29.9934 35.5644 29.9695 35.5997 29.9492 35.6362C29.9087 35.709 29.8791 35.79 29.872 35.8462C29.871 35.8537 29.8725 35.8619 29.873 35.8677C29.8734 35.8721 29.8732 35.8756 29.873 35.8784C29.5954 36.258 29.4076 36.7358 29.249 37.1802C27.707 41.4998 28.5454 46.7271 31.7646 50.0767C31.7826 50.0954 31.7922 50.1134 31.7988 50.1284C31.8021 50.136 31.8049 50.1423 31.8076 50.1489C31.8101 50.1553 31.8135 50.162 31.8173 50.1675C31.8214 50.1732 31.8264 50.1785 31.8339 50.1812C31.8411 50.1837 31.8493 50.1834 31.8583 50.1821C31.8733 50.18 31.8929 50.1714 31.9208 50.1597C31.9139 50.1923 31.9121 50.2178 31.916 50.2378C31.9207 50.2618 31.9325 50.2776 31.9472 50.2896C31.9612 50.3009 31.979 50.3095 31.9941 50.3179C32.0098 50.3266 32.0251 50.3363 32.037 50.3511C33.1402 51.7109 34.8426 52.829 36.6992 53.6099C38.5558 54.3908 40.5677 54.8355 42.289 54.8491C50.4364 54.9118 57.6055 48.2122 56.3593 39.8052C56.3059 39.4455 56.2559 39.1695 56.1767 38.814C56.171 38.7891 56.1622 38.7678 56.1552 38.7495L56.1396 38.7046Z" fill="#FAFAFA" stroke="#FAFAFA" stroke-width="0.0226105"/>
<path d="M49.3616 60.2817C50.094 60.1009 50.8496 60.058 51.5051 60.2896C51.8073 60.3963 51.9449 60.6459 51.9426 60.9058C51.9403 61.1662 51.7977 61.4374 51.5374 61.5854C51.4042 61.6612 51.2895 61.6692 51.1731 61.6567C51.1146 61.6505 51.0557 61.6389 50.9934 61.6284C50.9313 61.618 50.8657 61.6083 50.7952 61.606C49.6188 61.5687 48.6855 61.9945 47.7913 62.521C46.8965 63.0478 46.0416 63.6747 45.0168 64.0435C43.2626 64.6748 41.4711 64.632 39.7483 63.9331C38.9579 63.6127 38.1988 63.0922 37.4211 62.6216C36.6442 62.1514 35.8486 61.7317 34.9866 61.6177C34.8051 61.5938 34.5165 61.6114 34.2405 61.6216C34.1021 61.6267 33.9663 61.6303 33.8479 61.6255C33.7293 61.6207 33.6291 61.6077 33.5608 61.5815C33.5604 61.5813 33.5588 61.5798 33.5559 61.5776C33.5527 61.5752 33.5482 61.5721 33.5432 61.5679C33.5326 61.5589 33.5185 61.5457 33.5022 61.5308C33.4697 61.5009 33.4283 61.4615 33.387 61.4214C33.3456 61.3812 33.3039 61.3402 33.2717 61.3071C33.2558 61.2907 33.242 61.2765 33.2317 61.2651C33.221 61.2533 33.215 61.2449 33.2131 61.2417C33.1414 61.1211 33.1233 61.0175 33.135 60.9146C33.1469 60.8109 33.1882 60.7067 33.2366 60.5845C33.245 60.5636 33.2635 60.5464 33.2834 60.5269C33.3024 60.5082 33.3232 60.4868 33.3293 60.4595H33.3303C33.3323 60.4501 33.3301 60.4395 33.3274 60.4302C33.3245 60.4204 33.3198 60.4099 33.3157 60.4009C33.3118 60.3925 33.3085 60.3861 33.3059 60.3804C33.3074 60.3804 33.309 60.3803 33.3108 60.3804C33.3195 60.3808 33.3308 60.382 33.343 60.3833C33.3548 60.3846 33.3678 60.3862 33.3801 60.3862C33.3923 60.3863 33.4046 60.3843 33.4153 60.3804C33.4268 60.376 33.4377 60.3669 33.4475 60.3569C33.4577 60.3466 33.4684 60.3345 33.4827 60.3218C33.5112 60.2965 33.5528 60.2678 33.6223 60.2515C35.4627 59.8169 36.9254 60.648 38.4045 61.5151C39.8827 62.3817 41.3783 63.2849 43.2795 62.981C44.9141 62.7198 45.986 61.8819 47.3606 61.1001C47.9207 60.7817 48.6291 60.4626 49.3616 60.2817Z" fill="#FAFAFA" stroke="#FAFAFA" stroke-width="0.0226105"/>
<path d="M55.2357 51.6851C55.2824 51.7061 55.3235 51.7417 55.3627 51.7808C55.3944 51.8124 55.4267 51.8462 55.4584 51.8765H55.4545L55.4779 51.896C55.6328 52.0316 55.7495 52.146 55.8217 52.2817C55.8935 52.417 55.9219 52.5752 55.8978 52.8003C55.8919 52.856 55.8704 52.9091 55.8519 52.9634C55.8338 53.0167 55.8186 53.0714 55.8246 53.1284C55.829 53.1711 55.8479 53.2167 55.8773 53.2632C55.9068 53.3097 55.9466 53.3585 55.9945 53.4077C56.0904 53.5062 56.218 53.6089 56.3519 53.7075C56.4858 53.8061 56.6274 53.9004 56.7513 53.9829C56.8755 54.0655 56.9817 54.1364 57.0472 54.186C57.3862 54.4425 57.7886 54.7073 58.0492 55.0327C58.1793 55.1951 58.2736 55.3724 58.307 55.5698C58.3402 55.767 58.3131 55.9861 58.1986 56.2329C58.062 56.5267 57.8911 56.7058 57.6771 56.8022C57.4625 56.8988 57.2018 56.9131 56.8851 56.8726C56.6729 56.8452 56.4566 56.7082 56.2572 56.5376C56.0581 56.3672 55.8774 56.1646 55.7347 56.0083C55.5627 55.82 55.3707 55.5514 55.1761 55.2935C54.9821 55.0362 54.7847 54.789 54.6039 54.644C54.5284 54.5837 54.4647 54.5483 54.4066 54.5298C54.3484 54.5113 54.296 54.51 54.2435 54.5161C54.1919 54.5222 54.1389 54.5355 54.0804 54.5474C54.0213 54.5594 53.9545 54.5704 53.8744 54.5708C53.7301 54.5716 53.6251 54.5537 53.5297 54.5151C53.434 54.4765 53.3472 54.4163 53.2396 54.3315C53.185 54.2884 53.0656 54.1938 52.972 54.0913C52.9253 54.04 52.8851 53.9875 52.8627 53.939C52.8401 53.8902 52.8366 53.8477 52.8568 53.8149C52.858 53.8131 52.8617 53.8099 52.8676 53.8042C52.8733 53.7987 52.8806 53.7916 52.89 53.7837C52.9088 53.7678 52.9342 53.7473 52.9642 53.7241C53.0245 53.6775 53.1036 53.6189 53.1849 53.5591C53.3471 53.4397 53.5206 53.3141 53.5775 53.2661C54.0457 52.8687 54.7219 52.251 55.0756 51.7739C55.0916 51.752 55.0994 51.7291 55.1039 51.7095C55.105 51.7047 55.1059 51.7001 55.1068 51.6958C55.1077 51.6914 55.1088 51.687 55.1097 51.6831C55.1116 51.6752 55.1132 51.6691 55.1156 51.6646C55.1179 51.6603 55.1202 51.6574 55.1234 51.6558C55.1269 51.654 55.1331 51.6531 55.142 51.6538C55.1602 51.6553 55.1895 51.6643 55.2357 51.6851Z" fill="#FAFAFA" stroke="#FAFAFA" stroke-width="0.0226105"/>
<path d="M59.7855 39.9895L59.8832 40.0012H59.8842L59.9642 40.0325C59.9989 40.049 60.0394 40.0702 60.0795 40.093C60.1595 40.1387 60.2378 40.1897 60.2709 40.218C60.3365 40.2745 60.404 40.3583 60.472 40.4446C60.5396 40.5304 60.608 40.619 60.6742 40.6848L60.6703 40.6887L60.683 40.6877C61.1803 40.6576 61.6792 40.568 62.1781 40.4973C62.6766 40.4267 63.1761 40.3742 63.6781 40.4202V40.4211C64.39 40.5922 64.7202 41.1381 64.6869 41.6555C64.6534 42.1726 64.2573 42.6641 63.5131 42.7278C63.0507 42.7675 62.579 42.696 62.1068 42.6135C61.6351 42.5311 61.1623 42.4373 60.6996 42.4338V42.426L60.6908 42.4387C60.4553 42.7525 60.1924 43.0903 59.7758 43.1331C59.6448 43.1465 59.5144 43.1342 59.3832 43.1194C59.2566 43.1051 59.1289 43.089 59.0004 43.094C59.1914 42.0747 59.1801 41.0203 59.0004 40.0022C59.1322 40.0172 59.2898 40.0062 59.4437 39.9963C59.564 39.9886 59.6819 39.9825 59.7855 39.9895Z" fill="#FAFAFA" stroke="#FAFAFA" stroke-width="0.0226105"/>
<path d="M44.1503 57.2344C44.2404 57.4023 44.2643 57.6318 44.2313 57.8564C44.198 58.0834 44.1074 58.3019 43.9745 58.4434C43.9482 58.4713 43.9041 58.5073 43.8514 58.5469C43.7993 58.586 43.738 58.6291 43.6805 58.6729C43.6228 58.7168 43.5671 58.7622 43.5243 58.8047C43.5031 58.8258 43.4845 58.8463 43.4706 58.8662C43.4568 58.886 43.447 58.906 43.4432 58.9248H43.4423L43.4432 58.9287C43.4799 59.2382 43.55 59.5608 43.6161 59.8818C43.6822 60.203 43.744 60.5231 43.7635 60.8301C43.7948 61.3255 43.6631 61.7936 43.3885 62.1045C43.1146 62.4147 42.6977 62.5701 42.1561 62.4404C41.7993 62.355 41.5779 62.1578 41.4481 61.8955C41.3182 61.6327 41.2793 61.3033 41.2889 60.9521C41.2985 60.601 41.3564 60.2293 41.4188 59.8828C41.45 59.7097 41.4826 59.5426 41.5106 59.3877L41.576 58.9658V58.9629C41.5667 58.8826 41.5298 58.8231 41.4764 58.7666C41.4519 58.7404 41.3525 58.6531 41.2518 58.5684C41.1512 58.4837 41.0472 58.4 41.0155 58.3799C40.9824 58.359 40.9439 58.3535 40.913 58.3486C40.8973 58.3461 40.8837 58.3436 40.8729 58.3398C40.8624 58.3361 40.8552 58.3313 40.8514 58.3252C40.8488 58.3206 40.8456 58.3125 40.8427 58.3008C40.8398 58.2893 40.8373 58.2747 40.8348 58.2578C40.8298 58.2236 40.8254 58.1793 40.8221 58.1289C40.8155 58.0282 40.8128 57.902 40.8134 57.7773C40.8139 57.6527 40.8175 57.5294 40.8251 57.4346C40.8289 57.3872 40.8333 57.347 40.8387 57.3174C40.8414 57.3027 40.8446 57.291 40.8475 57.2822C40.8494 57.2768 40.8511 57.2727 40.8524 57.2705C41.9519 57.3299 43.0514 57.3899 44.1503 57.2344Z" fill="#FAFAFA" stroke="#FAFAFA" stroke-width="0.0226105"/>
<path d="M29.8698 51.6997C29.9896 51.8713 30.1331 52.0361 30.277 52.186C30.8555 52.7897 31.3814 53.2559 32.0593 53.7456C32.0844 53.7637 32.1097 53.7723 32.1306 53.7788C32.141 53.782 32.1498 53.7847 32.1579 53.7876C32.166 53.7905 32.1725 53.7937 32.1774 53.7974C32.1821 53.8009 32.1858 53.8052 32.1882 53.811C32.1906 53.817 32.1924 53.825 32.1921 53.8364C32.1914 53.8597 32.1834 53.8948 32.1657 53.9478C32.0906 54.0053 32.0161 54.0756 31.9391 54.147C31.8615 54.219 31.7818 54.2929 31.6989 54.3599C31.5328 54.494 31.3535 54.5979 31.1481 54.5972C31.1163 54.5971 31.077 54.5901 31.0339 54.5796C30.9908 54.5691 30.9442 54.5551 30.8972 54.5415C30.8503 54.528 30.8029 54.5145 30.7585 54.5054C30.7141 54.4963 30.6715 54.4913 30.6354 54.4946C30.6183 54.4962 30.5986 54.5042 30.5778 54.5151C30.5569 54.5262 30.5335 54.5412 30.5095 54.5591C30.4613 54.595 30.4077 54.6434 30.3552 54.6938C30.2499 54.795 30.1483 54.9079 30.1022 54.9614C29.9885 55.0933 29.8556 55.2724 29.7097 55.4683C29.5636 55.6644 29.404 55.8778 29.236 56.0776C29.068 56.2775 28.8916 56.4642 28.7126 56.6069C28.5336 56.7496 28.3525 56.848 28.1745 56.8735C27.7737 56.9315 27.3166 56.9056 27.0143 56.6226C26.9357 56.5488 26.8723 56.4369 26.8259 56.3042C26.7795 56.1715 26.7497 56.0186 26.7399 55.8647C26.7302 55.711 26.7402 55.5565 26.7702 55.4194C26.8003 55.2822 26.8506 55.1632 26.9225 55.0806C26.9519 55.0469 27.002 55.0122 27.0554 54.9761C27.1081 54.9404 27.1642 54.9031 27.2018 54.8657C27.6195 54.4506 28.0043 54.1889 28.444 53.8179C28.5162 53.7569 28.5762 53.7284 28.6325 53.7075C28.6887 53.6867 28.7438 53.6723 28.8015 53.6382C28.8039 53.6367 28.8072 53.6341 28.8102 53.6313C28.8136 53.6282 28.818 53.6236 28.8229 53.6187C28.8329 53.6087 28.846 53.5954 28.861 53.5796C28.8911 53.5479 28.9295 53.5068 28.9675 53.4653C29.0054 53.4239 29.0429 53.3818 29.072 53.3491C29.0863 53.3329 29.099 53.3188 29.1081 53.3081C29.1127 53.3028 29.1169 53.298 29.1198 53.2944C29.1225 53.2911 29.1244 53.2878 29.1257 53.2856C29.1702 53.2087 29.1702 53.1415 29.1589 53.0757C29.1533 53.0434 29.1453 53.0104 29.1384 52.978C29.1313 52.9451 29.1255 52.911 29.1247 52.8755C29.121 52.7321 29.1145 52.6193 29.1306 52.5122C29.1466 52.4057 29.1845 52.3044 29.2702 52.1851C29.3082 52.1322 29.4295 51.9912 29.5573 51.8735C29.6211 51.8148 29.6861 51.7621 29.7429 51.729C29.7713 51.7124 29.7978 51.7018 29.82 51.6968C29.841 51.6921 29.8573 51.6932 29.8698 51.6997Z" fill="#FAFAFA" stroke="#FAFAFA" stroke-width="0.0226105"/>
<path d="M24.9738 40.0186C25.2837 39.9395 25.6312 39.9678 25.9484 40C25.811 41.0239 25.8646 42.0636 26.0187 43.082C26.012 43.1006 26.0025 43.1106 25.9904 43.1172C25.9774 43.1242 25.9611 43.1283 25.9406 43.1318C25.8512 43.1473 25.6309 43.1466 25.4113 43.1328C25.3018 43.1259 25.1925 43.1155 25.1008 43.1025C25.0085 43.0895 24.9343 43.0743 24.8947 43.0566C24.8534 43.0383 24.8035 42.9904 24.7482 42.9268C24.6932 42.8634 24.6339 42.7852 24.5754 42.709C24.5171 42.6331 24.4592 42.558 24.4055 42.501C24.3786 42.4725 24.352 42.4487 24.3273 42.4307C24.3028 42.4128 24.2788 42.4005 24.256 42.3975V42.3965L24.2531 42.3975C23.6187 42.4761 22.9835 42.5595 22.3527 42.6582C22.2679 42.6715 22.2319 42.6786 22.1935 42.6826C22.1554 42.6866 22.1152 42.6876 22.0226 42.6895C21.7517 42.6947 21.4748 42.7054 21.2199 42.6562C20.9655 42.6072 20.7335 42.4985 20.5519 42.2676C20.1407 41.7448 20.2679 40.9492 20.8478 40.6172C21.2214 40.4034 21.6862 40.3917 22.1642 40.4385C22.403 40.4619 22.6445 40.5 22.8791 40.5342C22.9963 40.5513 23.1123 40.5672 23.2248 40.5801L23.5519 40.6074C23.6565 40.6164 23.7001 40.6215 23.7219 40.624C23.7325 40.6253 23.7388 40.6258 23.7443 40.626C23.7498 40.6261 23.7547 40.6256 23.7629 40.625C23.7789 40.6238 23.8037 40.6268 23.8303 40.6299C23.8552 40.6328 23.8822 40.6349 23.9016 40.6338V40.6348C24.0575 40.6458 24.0308 40.6484 24.1369 40.6484C24.16 40.6485 24.1866 40.6504 24.2141 40.6523C24.2412 40.6542 24.2692 40.6558 24.2932 40.6533C24.3249 40.6499 24.3426 40.6427 24.3517 40.6338C24.3565 40.6291 24.3588 40.6236 24.3596 40.6191V40.6182C24.4113 40.5717 24.458 40.5165 24.5021 40.458C24.5478 40.3976 24.5905 40.3351 24.6369 40.2754C24.7288 40.1572 24.8296 40.0551 24.9728 40.0186H24.9738Z" fill="#FAFAFA" stroke="#FAFAFA" stroke-width="0.0226105"/>
<path d="M48.2817 58.1824C49.9262 56.9661 52.1482 57.5716 53.6499 58.7097L53.6616 58.7195V58.7175C53.8453 58.8571 53.993 58.9774 54.0845 59.1257C54.1773 59.2764 54.2127 59.4573 54.1665 59.7185C54.1464 59.8317 54.0679 59.9369 53.9663 60.0212C53.8649 60.1054 53.742 60.1684 53.6353 60.197C53.362 60.2702 53.1513 60.2028 52.9595 60.0828C52.8634 60.0226 52.7718 59.9496 52.6792 59.8738C52.5867 59.798 52.493 59.7193 52.3931 59.6501C51.7333 59.1945 50.8118 58.833 49.9966 59.0144C49.8401 59.0492 49.6855 59.1207 49.5327 59.199C49.3795 59.2774 49.2282 59.362 49.0767 59.4246C48.9252 59.487 48.7744 59.5269 48.6235 59.5154C48.4731 59.5038 48.321 59.4414 48.1665 59.2976C48.008 59.1502 47.953 58.9329 47.98 58.7214C48.007 58.51 48.1158 58.3054 48.2817 58.1824Z" fill="#FAFAFA" stroke="#FAFAFA" stroke-width="0.0226105"/>
<path d="M31.1539 58.9507C32.216 58.0153 33.7545 57.3223 35.2057 57.5688C35.4284 57.6068 35.8167 57.7227 36.1813 57.8765C36.3636 57.9534 36.5401 58.0396 36.6862 58.1304C36.8324 58.2213 36.9474 58.3164 37.0094 58.4097L37.0162 58.4194C37.1316 58.6013 37.1259 58.8169 37.0446 59.0083C36.9616 59.2033 36.8005 59.3715 36.6119 59.4507C36.3517 59.5601 36.1566 59.5225 35.9723 59.436C35.8798 59.3926 35.7903 59.3368 35.6959 59.2808C35.6017 59.2247 35.5026 59.1691 35.3932 59.1255C34.5757 58.8001 33.5532 59.0764 32.8297 59.519C32.7072 59.594 32.5859 59.6893 32.4645 59.7847C32.3429 59.8802 32.2207 59.9763 32.0944 60.0532C31.842 60.2068 31.5749 60.2842 31.2692 60.1343C31.0661 60.0347 30.928 59.8377 30.8795 59.6235C30.831 59.4093 30.8727 59.1787 31.026 59.0112C31.0412 58.9947 31.0613 58.9876 31.0846 58.981C31.107 58.9746 31.1334 58.9687 31.1539 58.9507Z" fill="#FAFAFA" stroke="#FAFAFA" stroke-width="0.0226105"/>
<path d="M56.7015 26.2947C56.9663 26.234 57.2002 26.2254 57.4135 26.2791C57.6266 26.3327 57.8203 26.4489 58.0043 26.6404L58.0131 26.6492C58.3524 27.008 58.4358 27.482 58.2015 27.9373C58.0719 28.1886 57.7924 28.442 57.4867 28.6746C57.3341 28.7907 57.1749 28.9011 57.0258 29.0037C56.8768 29.106 56.7375 29.2007 56.6234 29.2839C56.5587 29.3311 56.3903 29.4479 56.2328 29.5642C56.1539 29.6225 56.0773 29.6816 56.017 29.7312C55.9869 29.7559 55.9602 29.7781 55.9398 29.7976C55.9196 29.8169 55.9045 29.8342 55.8969 29.8474C55.8768 29.8816 55.8709 29.9288 55.8724 29.9812C55.874 30.0338 55.8834 30.094 55.8939 30.156C55.9152 30.281 55.9436 30.4133 55.9359 30.5154C55.9237 30.6756 55.8115 30.8931 55.6635 31.0818C55.5896 31.1759 55.5072 31.2628 55.4242 31.3308C55.3413 31.3987 55.2586 31.4479 55.184 31.4685C55.1508 31.4776 55.1326 31.4793 55.1234 31.4773C55.1194 31.4764 55.1173 31.4744 55.1166 31.4734C55.1157 31.4721 55.115 31.4695 55.1146 31.4656C55.1142 31.4614 55.1143 31.4562 55.1146 31.45C55.1149 31.4439 55.1157 31.4367 55.1156 31.4294C55.1153 31.4148 55.1125 31.3978 55.101 31.3826C54.8597 31.066 54.2437 30.4687 53.9369 30.1765C53.8593 30.1028 53.5798 29.8885 53.3187 29.6853C53.1881 29.5836 53.0619 29.4842 52.9672 29.406C52.9198 29.3669 52.88 29.3335 52.8519 29.3074C52.8379 29.2943 52.8264 29.2829 52.8187 29.2742C52.815 29.2699 52.8119 29.2663 52.8099 29.2634C52.809 29.2621 52.8084 29.2604 52.808 29.2595V29.238C52.8096 29.2299 52.8129 29.2206 52.8177 29.2097C52.8274 29.1879 52.8424 29.1617 52.8627 29.1335C52.9034 29.0769 52.9625 29.0107 53.0258 28.946C53.1525 28.8166 53.297 28.6933 53.3529 28.6589C53.4607 28.5932 53.5556 28.5563 53.6547 28.5378C53.7539 28.5194 53.8582 28.5197 53.9847 28.5271C54.0449 28.5307 54.1201 28.5487 54.1937 28.5662C54.2665 28.5834 54.339 28.5999 54.39 28.5974C54.4228 28.5956 54.4577 28.5821 54.4935 28.5603C54.5295 28.5384 54.5674 28.508 54.6058 28.4714C54.6828 28.3982 54.764 28.2995 54.8422 28.196C54.9203 28.0927 54.9954 27.9835 55.0609 27.8884C55.1266 27.7931 55.1824 27.7118 55.2211 27.6638C55.3776 27.4695 55.631 27.1544 55.9037 26.8738C56.0401 26.7335 56.1812 26.6018 56.3177 26.4988C56.4544 26.3957 56.5853 26.3213 56.7015 26.2947Z" fill="#FAFAFA" stroke="#FAFAFA" stroke-width="0.0226105"/>
<path d="M41.3292 21.3889C41.6855 20.1769 43.3953 20.2496 43.6954 21.427L43.7198 21.5442C43.7525 21.9868 43.7108 22.4248 43.6466 22.8616C43.6145 23.0801 43.5766 23.2987 43.5392 23.5168C43.5018 23.7348 43.4656 23.9529 43.4357 24.1711H43.4347L43.4357 24.1741C43.4383 24.2001 43.451 24.2267 43.4698 24.2532C43.4888 24.2797 43.5139 24.3076 43.5441 24.3352C43.6045 24.3904 43.6842 24.4475 43.7648 24.5042C43.8457 24.5611 43.9284 24.6175 43.9952 24.6702C44.0285 24.6964 44.0579 24.7216 44.0812 24.7454C44.1046 24.7693 44.1212 24.792 44.13 24.8118C44.138 24.8296 44.1464 24.859 44.1544 24.8977C44.1624 24.9363 44.17 24.9839 44.1769 25.0364C44.1906 25.1411 44.2021 25.2668 44.2072 25.3889C44.2123 25.5112 44.2113 25.6296 44.2023 25.719C44.1977 25.7638 44.1906 25.8009 44.1818 25.8274C44.1774 25.8405 44.173 25.8506 44.1681 25.8577C44.1636 25.8639 44.159 25.866 44.1554 25.8674L42.9171 25.7551L42.3849 25.7502C41.8595 25.7568 41.3389 25.7992 40.8195 25.9006C40.8344 25.7626 40.8235 25.6006 40.8136 25.4417C40.8033 25.2759 40.794 25.1128 40.8175 24.9817L40.8263 24.9836L40.8185 24.9758C40.8302 24.9201 40.8688 24.8613 40.924 24.801C40.9808 24.739 41.0548 24.6765 41.1329 24.6155C41.2114 24.5542 41.2936 24.4948 41.3673 24.4387C41.4405 24.3831 41.5058 24.3307 41.549 24.2834L41.5519 24.2854V24.2756C41.5572 23.994 41.5061 23.7115 41.4474 23.4309C41.3886 23.1499 41.3222 22.8708 41.295 22.595C41.2809 22.4516 41.2701 22.2157 41.2726 21.9827C41.2751 21.749 41.2907 21.5194 41.3292 21.3889Z" fill="#FAFAFA" stroke="#FAFAFA" stroke-width="0.0226105"/>
<path d="M27.1811 26.4404C27.5695 26.1945 28.1269 26.1734 28.6274 26.4922L28.727 26.5605C29.0433 26.7949 29.3216 27.141 29.5942 27.499C29.8662 27.8563 30.1331 28.2258 30.4272 28.5049L30.4291 28.5068C30.5553 28.5913 30.6643 28.5992 30.7729 28.585C30.8266 28.5779 30.8806 28.5652 30.936 28.5537C30.9918 28.5421 31.0503 28.5324 31.1127 28.5293C31.5986 28.505 31.8713 28.8375 32.1782 29.1699C32.1853 29.1982 32.1692 29.23 32.1401 29.2627C32.1108 29.2956 32.0731 29.325 32.0463 29.3496C31.3609 29.977 30.7643 30.4501 30.1196 31.1523C30.0956 31.1783 30.0678 31.2181 30.0385 31.2598C30.0089 31.3019 29.9773 31.3477 29.9438 31.3857C29.9101 31.424 29.8753 31.4541 29.8412 31.4678C29.8245 31.4745 29.8077 31.4767 29.7914 31.4746C29.7753 31.4725 29.7587 31.4655 29.7416 31.4521C29.6806 31.4038 29.5359 31.2542 29.4028 31.0996C29.3364 31.0225 29.273 30.9441 29.2241 30.877C29.1996 30.8434 29.1792 30.8125 29.1635 30.7861C29.1478 30.7598 29.1372 30.7388 29.1332 30.7236C29.1153 30.6525 29.1134 30.5721 29.1176 30.4883C29.1219 30.4047 29.1326 30.3181 29.1411 30.2324C29.1495 30.1468 29.1556 30.062 29.1498 29.9844C29.1441 29.9067 29.1261 29.835 29.0864 29.7754C29.0554 29.7292 28.9889 29.6719 28.9047 29.6104C28.8201 29.5485 28.7156 29.4816 28.6088 29.415C28.3947 29.2816 28.1697 29.1513 28.06 29.0732C27.8817 28.9461 27.6 28.7422 27.3442 28.5205C27.2162 28.4096 27.095 28.2936 26.9965 28.1816C26.8979 28.0695 26.8222 27.9614 26.7856 27.8643C26.5431 27.2217 26.7673 26.7026 27.1811 26.4404Z" fill="#FAFAFA" stroke="#FAFAFA" stroke-width="0.0226105"/>
<mask id="path-15-inside-1_448_8062" fill="white">
<path d="M31.0565 35.7743C31.1119 35.7363 31.5136 35.0174 31.6076 34.8854C36.0214 28.6643 44.5734 27.3817 50.6631 32.0209C52.7301 33.5954 54.5109 36.1042 55.0947 38.6595C55.109 38.7212 55.099 38.7883 55.1757 38.8168C55.4818 40.3702 55.61 41.9923 55.3197 43.561C53.829 51.6147 44.9904 55.8675 37.4877 52.8937C32.3582 50.8604 28.8591 45.6973 29.5902 40.0451C29.6947 39.2385 30.0256 38.4726 30.1396 37.7173C30.1412 37.7051 30.1381 37.6925 30.1396 37.6809C30.2167 37.6904 30.2225 37.6846 30.213 37.6075C30.2209 37.5996 30.2484 37.4222 30.2494 37.3874C30.3418 37.3985 30.3202 37.332 30.3413 37.2792C30.4284 37.0586 30.5176 36.8326 30.6163 36.6178C30.6548 36.5334 30.6907 36.4373 30.7261 36.3613C30.7451 36.3212 30.7762 36.2636 30.7995 36.2145C30.819 36.1728 30.8327 36.1095 30.8359 36.1048C30.8512 36.0826 30.8855 36.138 30.9457 35.958C30.9589 35.9189 30.9694 35.8947 30.9821 35.8482C31.0523 35.8604 31.0676 35.8445 31.0554 35.7748L31.0565 35.7743ZM48.2476 37.1673C48.0688 36.7888 47.3667 36.4009 47.0621 36.0984C47.0373 36.0736 46.9878 36.0678 47.0025 36.015L49.9235 33.1272C49.978 32.9958 49.8803 33.0343 49.8116 32.9836C49.3451 32.639 48.8875 32.3164 48.3824 32.0293C46.907 31.19 45.3261 30.7313 43.6387 30.5397C43.6091 30.5265 43.5557 30.5741 43.5557 30.5878V31.7791C43.1064 31.4709 42.395 31.6276 42.1913 32.156C42.1791 32.1866 42.1264 32.3703 42.1264 32.384V34.7482C41.9469 34.7281 41.6909 34.7413 41.5214 34.7118C41.4797 34.7044 41.4475 34.6986 41.4354 34.6516L41.3937 30.5693C39.1034 30.734 36.9171 31.6677 35.094 33.0301L35.1235 33.1557L36.8838 34.878C36.8981 34.9551 36.8712 34.9203 36.8342 34.935C36.5423 35.0522 35.6128 35.2306 35.4698 35.4581C35.256 35.7981 35.3125 36.1786 35.673 36.3813L36.261 36.6173C36.1544 36.5782 35.8071 36.6706 35.7479 36.6384C35.7052 36.6152 35.6941 36.5471 35.6624 36.5202C35.086 36.0346 34.5513 35.4602 34.0235 34.9514C33.8683 34.802 33.7242 34.64 33.5674 34.4922C32.8606 35.3388 32.1481 36.2985 31.7897 37.3504H31.7533C31.7211 37.3441 31.7258 37.371 31.7168 37.3869C31.6414 37.5194 31.5368 37.8176 31.4793 37.9738C31.19 38.7651 31.019 39.5864 30.8749 40.4156C30.8586 40.4547 30.9003 40.5391 30.9288 40.5391H35.5289C35.474 40.8447 35.2444 41.1778 35.0522 41.4264C34.9409 41.57 34.669 41.778 34.6036 41.9411C34.5703 42.0239 34.5846 42.1796 34.5761 42.1886C34.5508 42.215 34.0018 42.1659 33.8488 42.2124C33.7965 42.2282 33.6366 42.3332 33.6065 42.3734C33.5437 42.4552 33.5732 42.5919 33.4217 42.5919H30.8374C30.8987 42.8843 30.9303 43.1873 30.9947 43.4792C31.1362 44.1211 31.3447 44.6895 31.5516 45.3045C31.5859 45.4058 31.5801 45.5704 31.6139 45.6464C31.6398 45.7045 31.7036 45.6989 31.7137 45.7131C31.73 45.7362 31.6794 45.7864 31.6873 45.8117C31.6894 45.8191 31.7965 45.8693 31.8139 45.9026C31.8393 45.9516 31.8303 46.0129 31.8557 46.0629C32.3265 46.9883 32.8665 47.8704 33.5685 48.6389C33.6355 48.5828 33.8081 48.3633 33.8947 48.3854C33.9105 48.3897 34.072 48.5871 34.1137 48.6251C34.5392 49.0131 35.0258 49.3608 35.6028 49.4827C35.6746 49.5831 35.0591 50.0138 35.1314 50.1373C35.1425 50.1563 35.3869 50.2967 35.4291 50.3263C36.4457 51.0494 37.6191 51.6233 38.8205 52.0011C39.6582 52.2652 40.5539 52.4725 41.4312 52.5247V50.0324H41.9627C42.0361 50.0324 42.5075 49.877 42.613 49.8397C42.9403 49.724 43.2412 49.5487 43.5568 49.4095L43.5932 52.5252C44.4599 52.4752 45.3241 52.2819 46.1521 52.0232C47.3145 51.6601 48.6521 51.0209 49.6312 50.2974C49.6929 50.2512 49.8993 50.1262 49.893 50.0577C49.883 49.9499 49.3112 49.5103 49.3851 49.4463C49.7569 49.4859 50.2577 49.5392 50.4621 49.1492C50.6579 48.775 50.5222 48.4736 50.2281 48.2181C49.8724 47.9084 49.3017 47.6951 48.8346 47.6501C48.7903 47.6074 49.0589 47.2036 49.098 47.1256C49.2527 46.8172 49.1941 46.4525 49.5753 46.8441L51.4178 48.605C51.5799 48.5808 52.3232 47.5231 52.4498 47.325C53.2954 46.0027 53.8206 44.5432 54.0544 42.9994C54.0628 42.9429 54.0908 42.6062 54.0766 42.5919C53.4901 42.699 53.7151 42.4562 53.5414 42.1195C53.4042 41.8534 53.0679 41.6829 52.7756 41.6835C52.6503 41.6835 52.2361 41.8038 52.1712 41.7695C52.1061 41.7352 51.6722 41.0237 51.5784 40.8923C51.5336 40.83 51.2896 40.6178 51.364 40.5396H54.1137C53.9093 38.6605 53.1403 36.8786 52.0903 35.323C51.9067 35.0507 51.7041 34.7371 51.4574 34.526C51.3518 34.5429 50.2414 35.7653 50.0666 35.9432C49.6929 36.3227 49.0876 37.0147 48.6964 37.313C48.5449 37.428 48.5739 37.3526 48.4319 37.3135C48.4292 37.2206 48.3729 37.1942 48.2851 37.2037C48.2777 37.1847 48.2519 37.1747 48.2487 37.1673H48.2476Z"/>
</mask>
<path d="M31.0565 35.7743C31.1119 35.7363 31.5136 35.0174 31.6076 34.8854C36.0214 28.6643 44.5734 27.3817 50.6631 32.0209C52.7301 33.5954 54.5109 36.1042 55.0947 38.6595C55.109 38.7212 55.099 38.7883 55.1757 38.8168C55.4818 40.3702 55.61 41.9923 55.3197 43.561C53.829 51.6147 44.9904 55.8675 37.4877 52.8937C32.3582 50.8604 28.8591 45.6973 29.5902 40.0451C29.6947 39.2385 30.0256 38.4726 30.1396 37.7173C30.1412 37.7051 30.1381 37.6925 30.1396 37.6809C30.2167 37.6904 30.2225 37.6846 30.213 37.6075C30.2209 37.5996 30.2484 37.4222 30.2494 37.3874C30.3418 37.3985 30.3202 37.332 30.3413 37.2792C30.4284 37.0586 30.5176 36.8326 30.6163 36.6178C30.6548 36.5334 30.6907 36.4373 30.7261 36.3613C30.7451 36.3212 30.7762 36.2636 30.7995 36.2145C30.819 36.1728 30.8327 36.1095 30.8359 36.1048C30.8512 36.0826 30.8855 36.138 30.9457 35.958C30.9589 35.9189 30.9694 35.8947 30.9821 35.8482C31.0523 35.8604 31.0676 35.8445 31.0554 35.7748L31.0565 35.7743ZM48.2476 37.1673C48.0688 36.7888 47.3667 36.4009 47.0621 36.0984C47.0373 36.0736 46.9878 36.0678 47.0025 36.015L49.9235 33.1272C49.978 32.9958 49.8803 33.0343 49.8116 32.9836C49.3451 32.639 48.8875 32.3164 48.3824 32.0293C46.907 31.19 45.3261 30.7313 43.6387 30.5397C43.6091 30.5265 43.5557 30.5741 43.5557 30.5878V31.7791C43.1064 31.4709 42.395 31.6276 42.1913 32.156C42.1791 32.1866 42.1264 32.3703 42.1264 32.384V34.7482C41.9469 34.7281 41.6909 34.7413 41.5214 34.7118C41.4797 34.7044 41.4475 34.6986 41.4354 34.6516L41.3937 30.5693C39.1034 30.734 36.9171 31.6677 35.094 33.0301L35.1235 33.1557L36.8838 34.878C36.8981 34.9551 36.8712 34.9203 36.8342 34.935C36.5423 35.0522 35.6128 35.2306 35.4698 35.4581C35.256 35.7981 35.3125 36.1786 35.673 36.3813L36.261 36.6173C36.1544 36.5782 35.8071 36.6706 35.7479 36.6384C35.7052 36.6152 35.6941 36.5471 35.6624 36.5202C35.086 36.0346 34.5513 35.4602 34.0235 34.9514C33.8683 34.802 33.7242 34.64 33.5674 34.4922C32.8606 35.3388 32.1481 36.2985 31.7897 37.3504H31.7533C31.7211 37.3441 31.7258 37.371 31.7168 37.3869C31.6414 37.5194 31.5368 37.8176 31.4793 37.9738C31.19 38.7651 31.019 39.5864 30.8749 40.4156C30.8586 40.4547 30.9003 40.5391 30.9288 40.5391H35.5289C35.474 40.8447 35.2444 41.1778 35.0522 41.4264C34.9409 41.57 34.669 41.778 34.6036 41.9411C34.5703 42.0239 34.5846 42.1796 34.5761 42.1886C34.5508 42.215 34.0018 42.1659 33.8488 42.2124C33.7965 42.2282 33.6366 42.3332 33.6065 42.3734C33.5437 42.4552 33.5732 42.5919 33.4217 42.5919H30.8374C30.8987 42.8843 30.9303 43.1873 30.9947 43.4792C31.1362 44.1211 31.3447 44.6895 31.5516 45.3045C31.5859 45.4058 31.5801 45.5704 31.6139 45.6464C31.6398 45.7045 31.7036 45.6989 31.7137 45.7131C31.73 45.7362 31.6794 45.7864 31.6873 45.8117C31.6894 45.8191 31.7965 45.8693 31.8139 45.9026C31.8393 45.9516 31.8303 46.0129 31.8557 46.0629C32.3265 46.9883 32.8665 47.8704 33.5685 48.6389C33.6355 48.5828 33.8081 48.3633 33.8947 48.3854C33.9105 48.3897 34.072 48.5871 34.1137 48.6251C34.5392 49.0131 35.0258 49.3608 35.6028 49.4827C35.6746 49.5831 35.0591 50.0138 35.1314 50.1373C35.1425 50.1563 35.3869 50.2967 35.4291 50.3263C36.4457 51.0494 37.6191 51.6233 38.8205 52.0011C39.6582 52.2652 40.5539 52.4725 41.4312 52.5247V50.0324H41.9627C42.0361 50.0324 42.5075 49.877 42.613 49.8397C42.9403 49.724 43.2412 49.5487 43.5568 49.4095L43.5932 52.5252C44.4599 52.4752 45.3241 52.2819 46.1521 52.0232C47.3145 51.6601 48.6521 51.0209 49.6312 50.2974C49.6929 50.2512 49.8993 50.1262 49.893 50.0577C49.883 49.9499 49.3112 49.5103 49.3851 49.4463C49.7569 49.4859 50.2577 49.5392 50.4621 49.1492C50.6579 48.775 50.5222 48.4736 50.2281 48.2181C49.8724 47.9084 49.3017 47.6951 48.8346 47.6501C48.7903 47.6074 49.0589 47.2036 49.098 47.1256C49.2527 46.8172 49.1941 46.4525 49.5753 46.8441L51.4178 48.605C51.5799 48.5808 52.3232 47.5231 52.4498 47.325C53.2954 46.0027 53.8206 44.5432 54.0544 42.9994C54.0628 42.9429 54.0908 42.6062 54.0766 42.5919C53.4901 42.699 53.7151 42.4562 53.5414 42.1195C53.4042 41.8534 53.0679 41.6829 52.7756 41.6835C52.6503 41.6835 52.2361 41.8038 52.1712 41.7695C52.1061 41.7352 51.6722 41.0237 51.5784 40.8923C51.5336 40.83 51.2896 40.6178 51.364 40.5396H54.1137C53.9093 38.6605 53.1403 36.8786 52.0903 35.323C51.9067 35.0507 51.7041 34.7371 51.4574 34.526C51.3518 34.5429 50.2414 35.7653 50.0666 35.9432C49.6929 36.3227 49.0876 37.0147 48.6964 37.313C48.5449 37.428 48.5739 37.3526 48.4319 37.3135C48.4292 37.2206 48.3729 37.1942 48.2851 37.2037C48.2777 37.1847 48.2519 37.1747 48.2487 37.1673H48.2476Z" fill="#FAFAFA" stroke="#FAFAFA" stroke-width="0.0452209" mask="url(#path-15-inside-1_448_8062)"/>
<path d="M52.6645 42.3447C52.8093 42.3368 52.9132 42.4082 52.9575 42.5C53.0016 42.592 52.9867 42.7056 52.893 42.7842C52.8892 42.7872 52.8792 42.7931 52.8627 42.8008C52.8465 42.8084 52.8249 42.817 52.8002 42.8271C52.7507 42.8475 52.6874 42.8724 52.6225 42.8965C52.4925 42.9448 52.3569 42.9918 52.3139 43.0049C52.1805 43.0456 52.0339 43.0772 51.8852 43.1094C51.7366 43.1415 51.5856 43.1747 51.4448 43.2178L51.4155 43.2266L51.4321 43.2334C51.4292 43.2387 51.4264 43.2446 51.4223 43.251C51.4141 43.2639 51.4025 43.2774 51.3832 43.2842C51.2371 43.3359 51.0644 43.3683 50.8901 43.4082C50.7162 43.448 50.5405 43.495 50.392 43.5771C50.3003 43.628 50.1883 43.7316 50.0698 43.8623C49.9511 43.9932 49.8247 44.1532 49.7036 44.3184C49.4612 44.6489 49.2389 45.0026 49.1401 45.1943C49.0516 45.3664 48.9647 45.5825 48.8745 45.8154C48.784 46.0488 48.6899 46.2994 48.5854 46.54C48.4809 46.7806 48.3663 47.0114 48.2358 47.2051C48.1052 47.3987 47.959 47.5554 47.7914 47.6484C47.6657 47.7181 47.414 47.8071 47.1596 47.8701C47.0325 47.9016 46.9049 47.9271 46.7924 47.9395C46.6797 47.9519 46.5829 47.9512 46.517 47.9336L46.5004 47.917C46.4898 47.9051 46.4755 47.8875 46.4594 47.8672C46.4272 47.8266 46.3856 47.7728 46.3422 47.7158C46.2987 47.6587 46.253 47.5981 46.2114 47.5469C46.17 47.496 46.132 47.4532 46.1049 47.4297C45.2853 46.7172 44.0204 46.7976 43.0756 47.1826C42.936 47.2396 42.794 47.3143 42.6498 47.3926C42.5056 47.471 42.3595 47.5536 42.2114 47.6289C41.9148 47.7796 41.6118 47.8996 41.3051 47.8926C41.1589 47.8891 41.0663 47.8283 40.9838 47.7451C40.9423 47.7032 40.9028 47.6556 40.8608 47.6064C40.8189 47.5575 40.7743 47.5066 40.7211 47.46C40.0188 46.8435 39.0004 46.7009 38.1186 46.9541C37.8792 47.0228 37.6533 47.1275 37.4291 47.2344C37.2056 47.3409 36.9835 47.4485 36.7514 47.5283C36.3787 47.397 36.1922 47.1134 36.0424 46.7939C36.0049 46.7139 35.9703 46.6313 35.935 46.5488C35.8997 46.4663 35.8635 46.3838 35.8256 46.3027C35.7498 46.1406 35.6637 45.9847 35.5483 45.8516C35.4115 45.6938 35.2416 45.5859 35.0639 45.4922C34.9747 45.4451 34.8841 45.4018 34.7944 45.3574L34.5307 45.2168C34.457 45.1522 34.4366 45.048 34.4291 44.9326C34.4254 44.8746 34.4252 44.8161 34.4223 44.7578C34.4195 44.7001 34.4142 44.6437 34.4008 44.5938C34.3845 44.5325 34.3799 44.5103 34.3774 44.4824C34.3761 44.4682 34.3749 44.4527 34.3735 44.4297C34.372 44.4067 34.3706 44.3764 34.3666 44.334C34.3471 44.1217 34.298 43.8814 34.2553 43.6455C34.2126 43.4093 34.176 43.177 34.1791 42.9775C34.1807 42.8829 34.1981 42.8459 34.2299 42.8301C34.2469 42.8217 34.27 42.8178 34.3002 42.8174C34.3303 42.817 34.3662 42.8193 34.4096 42.8213C35.5859 42.8762 36.7904 42.9819 37.9633 43.0801C38.3243 43.1106 38.6867 43.1556 39.0483 43.1904C39.3035 43.579 39.4753 43.9055 39.9594 44.0508C40.5888 44.2397 41.4964 44.3252 42.4077 44.3359C43.319 44.3466 44.2358 44.282 44.8852 44.1699C45.1729 44.1203 45.3631 44.0432 45.5317 43.9316C45.699 43.8208 45.8445 43.6751 46.0424 43.4912C47.9488 43.2148 49.8479 42.9102 51.7387 42.5566C51.866 42.5328 52.042 42.4828 52.2133 42.4375C52.385 42.3921 52.552 42.351 52.6645 42.3447ZM40.8578 44.6846C40.6648 44.7068 40.4737 44.8107 40.3217 45.0234C40.1662 45.2411 40.1338 45.4587 40.183 45.6494C40.2323 45.8397 40.3623 46.0022 40.5278 46.1113C40.6932 46.2204 40.8954 46.2769 41.0903 46.2539C41.2855 46.2307 41.4736 46.1275 41.6088 45.9199C41.8846 45.4962 41.7147 45.0585 41.4008 44.834C41.2439 44.7218 41.0506 44.6624 40.8578 44.6846ZM43.2787 44.6924C43.0799 44.7025 42.8946 44.7942 42.7563 44.9316C42.6182 45.0691 42.5265 45.2527 42.5131 45.4473C42.4997 45.6422 42.5651 45.8474 42.7416 46.0273C43.3174 46.6142 44.3769 45.9733 44.0043 45.1084C43.9967 45.0906 43.9798 45.0804 43.9662 45.0732C43.9514 45.0654 43.9396 45.06 43.933 45.0508C43.9237 45.0367 43.9179 45.0178 43.9116 44.9971C43.9056 44.9776 43.8986 44.9556 43.8832 44.9404L43.8637 44.9219V44.9238C43.676 44.7495 43.4715 44.6825 43.2787 44.6924ZM39.1889 44.9434C38.8258 44.5513 38.1618 44.6344 37.9174 45.1143C37.6498 45.6398 38.0015 46.2267 38.5883 46.2354C39.2822 46.2461 39.6564 45.4488 39.1889 44.9434ZM47.8393 44.3193C47.6947 44.1833 47.4873 44.151 47.3061 44.2031C47.1247 44.2553 46.9677 44.3925 46.9252 44.5957C46.8664 44.8785 46.997 45.1149 47.1928 45.2314C47.3887 45.348 47.6499 45.3444 47.852 45.1475C47.9607 45.0416 48.0122 44.8858 48.0092 44.7314C48.0061 44.5772 47.9487 44.4226 47.8393 44.3193Z" fill="#FAFAFA" stroke="#FAFAFA" stroke-width="0.0226105"/>
<path d="M40.5588 35.2366C42.1706 35.4474 43.7798 35.6147 45.3889 35.8596C45.6041 36.2905 45.8046 36.7316 46.0012 37.1721C46.6513 38.6286 47.3112 40.0095 46.9807 41.6458C46.9389 41.8526 46.8667 42.0492 46.7912 42.2454C46.7169 42.4383 46.6381 42.6312 46.5842 42.8323C46.1819 42.8357 45.7798 42.8222 45.3771 42.8098C44.9715 42.7973 44.565 42.7876 44.1584 42.8C43.169 42.8307 42.1013 42.939 41.1174 43.0588C40.9308 43.0816 40.745 43.1164 40.5598 43.1467C40.3813 43.1759 40.2026 43.1992 40.0217 43.2024C40.1055 43.0718 40.2028 42.9497 40.301 42.8274C40.4037 42.6994 40.5078 42.5715 40.5978 42.4348C40.789 42.1451 40.9315 41.8245 41.0734 41.4973C41.8995 39.5934 41.6855 37.8514 40.8908 35.9709C40.8686 35.9184 40.776 35.7402 40.6945 35.5715C40.6536 35.4868 40.6156 35.4038 40.59 35.3401C40.5773 35.3084 40.5678 35.2818 40.5627 35.262C40.5602 35.2521 40.559 35.244 40.5588 35.2385V35.2366Z" fill="#FAFAFA" stroke="#FAFAFA" stroke-width="0.0226105"/>
<path d="M36.0578 37.252C36.7944 37.2775 37.5265 37.4004 38.259 37.4707C38.4683 37.4908 38.6862 37.4914 38.9016 37.501C39.1162 37.5105 39.3293 37.5288 39.5324 37.584C39.5391 37.5877 39.5497 37.5971 39.5627 37.6123C39.5754 37.6272 39.5905 37.6471 39.6066 37.6699C39.6388 37.7156 39.6762 37.7744 39.7131 37.835C39.787 37.9563 39.8593 38.0859 39.8869 38.1377C40.1963 38.7153 40.4506 39.4073 40.5021 40.0645C40.5026 40.0697 40.5033 40.0751 40.5031 40.0811C40.5029 40.0868 40.5019 40.0932 40.5021 40.0996V40.1006C40.5142 40.2911 40.5116 40.5309 40.5021 40.7227C40.5008 40.7486 40.5021 40.793 40.5031 40.8311C40.5036 40.8501 40.5041 40.8676 40.5041 40.8809C40.5041 40.8861 40.5043 40.891 40.5041 40.8945H40.5031C40.4967 40.894 40.4879 40.8931 40.4787 40.8936C40.4693 40.894 40.4578 40.8956 40.4484 40.9004C40.4389 40.9054 40.4311 40.9141 40.4279 40.9268C40.419 40.9639 40.4281 41.0034 40.4377 41.0391C40.4476 41.0759 40.4579 41.1091 40.4553 41.1387C40.4535 41.1578 40.4415 41.2014 40.424 41.2588C40.4066 41.3158 40.3837 41.3859 40.3596 41.4561C40.3113 41.5961 40.2588 41.7381 40.2365 41.7891C40.2104 41.8489 40.1662 41.9144 40.1213 41.9824C40.0785 42.0472 40.0349 42.1146 40.007 42.1797L35.3312 42.1045L35.7922 41.5459L35.7932 41.5449C36.3578 40.6853 36.6727 39.7792 36.5187 38.7344C36.4417 38.2127 36.2367 37.7386 36.0578 37.252Z" fill="#FAFAFA" stroke="#FAFAFA" stroke-width="0.0226105"/>
<path d="M38.11 47.7278C38.8149 47.474 39.7495 47.4643 40.2936 48.0403H40.2927L40.3005 48.0481C40.317 48.0656 40.3392 48.0778 40.3571 48.0901C40.3758 48.1029 40.3924 48.1172 40.403 48.1399C40.4288 48.1964 40.4414 48.2414 40.4499 48.2786C40.4582 48.315 40.4631 48.347 40.4763 48.3743C40.5036 48.4308 40.5631 48.4684 40.7321 48.5217C41.4622 48.752 42.0908 48.4903 42.7048 48.1868C43.32 47.8826 43.9199 47.5371 44.5993 47.5901C44.7405 47.601 45.011 47.6693 45.2643 47.7668C45.3909 47.8156 45.5129 47.8716 45.612 47.9309C45.7114 47.9904 45.7863 48.0528 45.821 48.1135C45.8464 48.158 45.8569 48.1972 45.863 48.2336C45.8661 48.2521 45.8686 48.2698 45.8708 48.2874C45.8729 48.3047 45.8746 48.322 45.8786 48.3391C45.8867 48.3739 45.9019 48.408 45.9343 48.4426C45.9664 48.4769 46.0155 48.5118 46.0915 48.5491C46.5213 48.7593 46.9421 48.681 47.3659 48.5618C47.7909 48.4422 48.2184 48.2817 48.6677 48.3225C48.8558 48.3398 49.086 48.4014 49.3024 48.4915C49.5073 48.5767 49.6981 48.6886 49.8298 48.8118C49.7215 48.8125 49.6127 48.7931 49.5036 48.7688C49.3847 48.7424 49.2645 48.7121 49.1462 48.7034C48.4676 48.6534 47.9862 48.9414 47.4948 49.1663C47.2489 49.2788 47.0004 49.3764 46.7224 49.4084C46.4444 49.4405 46.136 49.4072 45.7712 49.26C45.5315 49.1634 45.3072 49.0056 45.0759 48.8625C44.8454 48.72 44.6075 48.5924 44.3425 48.5588C43.8671 48.4986 43.441 48.677 43.0173 48.8801C42.6459 49.0582 42.2764 49.2553 41.8747 49.3333L41.6999 49.3586C40.6435 49.4638 40.271 49.0679 39.4186 48.6858C38.9411 48.4716 38.5348 48.5134 38.1364 48.6174C37.938 48.6693 37.7402 48.7376 37.5378 48.7961C37.3346 48.8549 37.1246 48.9045 36.9011 48.9221C36.4059 48.9611 35.9855 48.9189 35.6052 48.7766C35.2325 48.6371 34.8975 48.401 34.5681 48.05C34.7555 48.0624 34.9421 48.1155 35.1306 48.1731C35.3284 48.2336 35.5291 48.2979 35.7341 48.3176C36.8461 48.4239 37.1873 48.0597 38.11 47.7278Z" fill="#FAFAFA" stroke="#FAFAFA" stroke-width="0.0226105"/>
<path d="M46.4647 36.4443C46.5981 36.5484 46.7329 36.6675 46.87 36.7832C47.0073 36.8991 47.1468 37.0121 47.2889 37.1035C47.2978 37.1092 47.3054 37.1154 47.3134 37.1211C47.321 37.1267 47.329 37.1324 47.3378 37.1367C47.3542 37.1447 47.3724 37.1459 47.3973 37.1416C47.4031 37.1573 47.4083 37.1691 47.4139 37.1787C47.4205 37.1899 47.426 37.1975 47.4305 37.208V37.209C47.4757 37.3072 47.5486 37.3788 47.6268 37.4424C47.7058 37.5066 47.7888 37.5618 47.8583 37.6299C48.9531 38.7031 50.0487 39.9133 50.9286 41.1719C51.1041 41.4228 51.2625 41.6906 51.4237 41.9512V41.9531C51.4218 41.9547 51.4179 41.9562 51.412 41.958C51.3997 41.9618 51.381 41.9641 51.3573 41.9648C51.31 41.9664 51.2454 41.9626 51.1786 41.9561C51.1117 41.9495 51.0424 41.9399 50.9862 41.9326C50.9306 41.9254 50.8863 41.9195 50.87 41.9189C50.0974 41.8941 49.2519 41.9635 48.4882 42.0723C48.3249 42.0955 48.1623 42.1291 47.9999 42.1621C47.843 42.194 47.6862 42.2253 47.5292 42.248C47.5645 42.0788 47.6106 41.906 47.6522 41.7305C47.6952 41.5495 47.7329 41.3656 47.7469 41.1826C47.8499 39.8175 47.3045 38.0278 46.5887 36.8984L46.5936 36.9014L46.5712 36.8682L46.5702 36.8633C46.5692 36.859 46.5677 36.8528 46.5663 36.8457C46.5635 36.8312 46.5604 36.8126 46.5565 36.792C46.5489 36.7519 46.5388 36.7047 46.5272 36.6768C46.5234 36.6678 46.5104 36.6441 46.496 36.6162C46.4811 36.5875 46.4637 36.553 46.451 36.5215C46.4447 36.5057 46.4396 36.4904 46.4364 36.4775C46.4332 36.4645 46.4325 36.454 46.4335 36.4473C46.4344 36.4414 46.4364 36.44 46.4384 36.4395C46.442 36.4384 46.4502 36.4383 46.4647 36.4443Z" fill="#FAFAFA" stroke="#FAFAFA" stroke-width="0.0226105"/>
<path d="M35.3259 46.8975C35.3679 46.9319 35.3865 46.9792 35.3992 47.0322C35.4059 47.0605 35.4113 47.0882 35.4177 47.1172C35.424 47.1454 35.4313 47.1735 35.4431 47.1992C35.4515 47.2176 35.4702 47.2487 35.4919 47.2842C35.5139 47.3199 35.5399 47.3609 35.5632 47.4014C35.5867 47.442 35.6072 47.482 35.6199 47.5137C35.6261 47.5293 35.6302 47.5425 35.6316 47.5527C35.6322 47.5573 35.6299 47.5608 35.6296 47.5635C35.5785 47.5471 35.5256 47.5399 35.4734 47.5352C35.4168 47.53 35.3617 47.5272 35.3093 47.5146C35.2825 47.5081 35.1827 47.4789 35.0876 47.4502C35.0403 47.4359 34.9942 47.4216 34.9587 47.4102C34.941 47.4044 34.9259 47.3995 34.9148 47.3955C34.9093 47.3935 34.9044 47.392 34.9011 47.3906C34.899 47.3898 34.8979 47.389 34.8972 47.3887C34.8824 47.3784 34.8756 47.3661 34.8738 47.3535C34.8719 47.3402 34.875 47.3249 34.8796 47.3086V47.3076C34.8803 47.3065 34.8821 47.3056 34.8835 47.3037C34.8866 47.2998 34.8906 47.2942 34.8962 47.2881C34.9075 47.2757 34.924 47.2591 34.9431 47.2402C34.9813 47.2026 35.0321 47.1547 35.0847 47.1064C35.1374 47.0582 35.1919 47.0098 35.2371 46.9707C35.2763 46.9368 35.3082 46.9102 35.3259 46.8975Z" fill="#FAFAFA" stroke="#FAFAFA" stroke-width="0.0226105"/>
<path d="M43.2517 43.8276H42.7625L42.7966 43.3726L43.2517 43.3374V43.8276Z" fill="#FAFAFA" stroke="#FAFAFA" stroke-width="0.0226105"/>
<path d="M42.9481 32.2717C43.011 32.2494 43.0806 32.2494 43.1385 32.2776L43.1425 32.2795L43.1581 32.2952C43.1695 32.3076 43.1838 32.3248 43.1981 32.342C43.2124 32.3592 43.2265 32.3769 43.2372 32.3918C43.2425 32.3993 43.2467 32.406 43.2499 32.4114C43.2533 32.4172 43.2546 32.4202 43.2548 32.4211C43.2702 32.5155 43.2538 32.6159 43.2362 32.719C43.2188 32.8213 43.2 32.9266 43.2147 33.0276L43.2167 33.0374H43.2274C43.5501 33.0161 43.9093 32.9658 44.2294 33.0042C44.3881 33.0232 44.5364 33.0877 44.6913 33.1516C44.8456 33.2153 45.006 33.2785 45.1864 33.2932C45.3632 33.3076 45.5383 33.2925 45.7118 33.2727C45.8785 33.2537 46.0442 33.2303 46.2108 33.2219C46.1913 33.2601 46.1578 33.3062 46.1132 33.3547C46.0617 33.4108 45.9998 33.4709 45.9393 33.5305C45.879 33.5901 45.8198 33.6492 45.7762 33.7034C45.7545 33.7304 45.7363 33.7571 45.7235 33.7815C45.7109 33.8057 45.7029 33.8292 45.703 33.8508C45.703 33.8833 45.7236 33.9188 45.7518 33.9534C45.7804 33.9884 45.8189 34.0254 45.8602 34.0608C45.9017 34.0963 45.9464 34.1309 45.9862 34.1624C46.0262 34.194 46.0614 34.222 46.0848 34.2444C46.1072 34.266 46.1386 34.2915 46.1669 34.3206C46.1808 34.3348 46.1934 34.3495 46.203 34.3635C46.2114 34.3757 46.216 34.3875 46.2186 34.3977C46.2165 34.4005 46.2137 34.4045 46.2079 34.4084C46.2 34.4137 46.1893 34.4195 46.1757 34.425C46.1485 34.436 46.1114 34.4469 46.0673 34.4573C45.9788 34.4781 45.8628 34.4965 45.744 34.512C45.6252 34.5274 45.503 34.5397 45.4022 34.5471C45.3011 34.5546 45.2221 34.557 45.1884 34.554C44.97 34.5341 44.774 34.4475 44.5741 34.3674C44.3749 34.2876 44.1718 34.2147 43.9413 34.2249C43.9213 34.2257 43.8714 34.2339 43.8085 34.2454C43.7453 34.2569 43.6677 34.2713 43.5917 34.2874C43.5154 34.3034 43.4398 34.3208 43.3817 34.3352C43.3529 34.3424 43.3282 34.3491 43.3094 34.3547C43.3 34.3576 43.2913 34.3601 43.285 34.3625C43.2792 34.3648 43.2739 34.3676 43.2704 34.3704C43.2155 34.4126 43.2061 34.4837 43.2079 34.5569C43.2088 34.5938 43.2124 34.6329 43.2157 34.6702C43.219 34.7074 43.2219 34.7433 43.2206 34.7756C43.2192 34.8082 43.213 34.8367 43.201 34.8586C43.1894 34.88 43.1714 34.8965 43.1425 34.9055C43.1128 34.9147 43.0714 34.9158 43.0145 34.9065C42.959 34.8974 42.889 34.8783 42.8016 34.8459C42.7919 34.5108 42.7946 34.175 42.7977 33.8391C42.8009 33.5006 42.805 33.1617 42.7987 32.8235C42.7979 32.7812 42.7912 32.7438 42.7841 32.7092C42.7769 32.6743 42.7696 32.6428 42.7645 32.6106C42.7546 32.5476 42.7557 32.4832 42.8007 32.3958C42.8298 32.3388 42.8852 32.2941 42.9481 32.2717Z" fill="#FAFAFA" stroke="#FAFAFA" stroke-width="0.0226105"/>
<path d="M37.9863 34.8835C38.0331 34.8707 38.1036 34.882 38.163 34.9099C38.1926 34.9238 38.2188 34.942 38.2372 34.9617C38.2555 34.9812 38.2656 35.0022 38.2656 35.0232V36.863C38.1292 36.8761 38.0379 36.8796 37.9765 36.8699C37.9453 36.8649 37.9222 36.8572 37.9052 36.8464C37.8885 36.8358 37.8774 36.8217 37.8691 36.8044C37.8606 36.7867 37.8551 36.7646 37.8515 36.738C37.8479 36.7113 37.8457 36.68 37.8437 36.6443C37.8397 36.5731 37.8356 36.4837 37.8144 36.3748L37.8027 36.3767L37.8271 36.3718L37.8056 36.366L36.0615 35.8591L36.1357 35.781L37.7997 35.3054L37.8085 35.3025V35.1716C37.8115 35.1297 37.8178 35.0875 37.83 35.0486C37.8546 34.9708 37.9017 34.907 37.9863 34.8835Z" fill="#FAFAFA" stroke="#FAFAFA" stroke-width="0.0226105"/>
<path d="M41.0029 45.1768C41.0632 45.187 41.1201 45.2272 41.1826 45.2949C41.2479 45.3656 41.2761 45.4442 41.2676 45.5176C41.259 45.5908 41.2136 45.6606 41.1289 45.7148V45.7158C41.0448 45.7698 40.962 45.7802 40.8906 45.7627C40.819 45.7451 40.7578 45.699 40.7168 45.6396C40.6759 45.5802 40.6555 45.5074 40.665 45.4365C40.6747 45.3658 40.7146 45.2955 40.7949 45.2412C40.8771 45.1858 40.9431 45.1667 41.0029 45.1768Z" fill="#FAFAFA" stroke="#FAFAFA" stroke-width="0.0226105"/>
<path d="M38.6709 45.1853C38.712 45.1888 38.7482 45.1991 38.7744 45.2156C38.8395 45.2568 38.8777 45.3325 38.8857 45.4148C38.8938 45.4969 38.8715 45.5838 38.8193 45.6462C38.7575 45.7199 38.6872 45.7546 38.6201 45.7605C38.553 45.7662 38.4872 45.744 38.4336 45.7029C38.3261 45.6203 38.2686 45.463 38.3447 45.3113C38.359 45.283 38.3862 45.2581 38.4209 45.238C38.4555 45.2181 38.4974 45.2031 38.541 45.1941C38.5848 45.185 38.6299 45.1818 38.6709 45.1853Z" fill="#FAFAFA" stroke="#FAFAFA" stroke-width="0.0226105"/>
<path d="M43.356 45.1931C43.4271 45.2025 43.4942 45.2444 43.5405 45.3337C43.5871 45.4237 43.5944 45.5048 43.5757 45.572C43.5568 45.6394 43.5112 45.6936 43.4536 45.7283C43.3384 45.7976 43.1734 45.7892 43.063 45.6541C43.0032 45.5808 42.9912 45.5023 43.0103 45.4314C43.0295 45.3602 43.0802 45.2961 43.144 45.2517C43.208 45.2073 43.2843 45.1837 43.356 45.1931Z" fill="#FAFAFA" stroke="#FAFAFA" stroke-width="0.0226105"/>
<path d="M42.5431 27.3408C50.9201 27.3408 57.6329 33.7441 57.6329 41.5492C57.6329 49.3542 50.9201 55.7575 42.5431 55.7575C34.166 55.7575 27.4532 49.3542 27.4532 41.5492C27.4532 33.7441 34.166 27.3408 42.5431 27.3408Z" stroke="#FAFAFA" stroke-width="1.58273"/>
<path d="M42.4889 29.8342C49.373 29.8342 54.8958 35.1043 54.8958 41.5359C54.8958 47.9676 49.373 53.2376 42.4889 53.2376C35.6049 53.2376 30.082 47.9676 30.082 41.5359C30.082 35.1043 35.6049 29.8342 42.4889 29.8342Z" stroke="#FAFAFA" stroke-width="1.19836"/>
<path d="M40.4575 40.7644C40.4553 40.7794 40.4539 40.7937 40.4535 40.8209C40.4533 40.8361 40.4567 40.8503 40.4593 40.86C40.4628 40.8735 40.4618 40.8896 40.4635 40.9111C40.4681 40.9662 40.4618 40.9849 40.46 40.9989C40.4587 41.0093 40.456 41.0179 40.455 41.0283C40.4539 41.0382 40.4496 41.0494 40.4471 41.0609C40.4448 41.0714 40.4432 41.0816 40.4403 41.0931C40.4376 41.1039 40.4346 41.1138 40.4317 41.1275C40.429 41.1404 40.4274 41.1504 40.4217 41.1732C40.4067 41.2234 40.398 41.2456 40.3849 41.2698C40.3732 41.2918 40.3512 41.3336 40.3264 41.3789" stroke="#FAFAFA" stroke-width="0.0904419" stroke-linecap="round"/>
<path d="M46.4591 36.4961C46.457 36.4941 46.4509 36.4934 46.4471 36.4913C46.4453 36.4903 46.4441 36.4879 46.4437 36.4858C46.4432 36.4838 46.4439 36.4817 46.4444 36.4837C46.4473 36.5007 46.4482 36.5105 46.4512 36.5188C46.4548 36.5282 46.457 36.5374 46.4611 36.5491C46.4649 36.5596 46.4668 36.5704 46.4713 36.5804C46.4749 36.5885 46.4763 36.5986 46.4799 36.6076C46.4835 36.6171 46.4873 36.6282 46.4907 36.6368C46.4955 36.6486 46.5032 36.6571 46.5084 36.6653C46.5131 36.6731 46.519 36.6859 46.5251 36.698C46.5296 36.7068 46.5341 36.7149 46.5375 36.7249C46.5405 36.7334 46.5432 36.7417 46.5459 36.75C46.5488 36.7589 46.5527 36.7699 46.5579 36.7789C46.5635 36.7888 46.5712 36.8016 46.5755 36.8102C46.5805 36.8208 46.587 36.8297 46.5936 36.8391C46.6006 36.8488 46.6056 36.8586 46.6119 36.868C46.6187 36.8782 46.6318 36.8992 46.6409 36.9151C46.6519 36.9349 46.6594 36.9419 46.6714 36.9615C46.6861 36.9854 46.6978 37.0025 46.7039 37.0121C46.7256 37.0457 46.7349 37.0548 46.7528 37.0756C46.7672 37.093 46.7923 37.1243 46.8066 37.1418C46.8211 37.1593 46.8238 37.1621 46.8265 37.1649" stroke="#FAFAFA" stroke-width="0.0904419" stroke-linecap="round"/>
<path d="M48.2933 37.1238C48.2933 37.1314 48.2951 37.1467 48.3019 37.1582C48.3086 37.17 48.3218 37.1783 48.3333 37.187C48.3444 37.1953 48.3525 37.2042 48.3616 37.2133C48.3708 37.2225 48.3821 37.2282 48.3937 37.2382C48.4043 37.2475 48.4167 37.254 48.4355 37.2712C48.4477 37.2826 48.4599 37.2914 48.4714 37.2967C48.4843 37.3027 48.4972 37.3096 48.511 37.313C48.5228 37.3158 48.5345 37.3182 48.5485 37.3197C48.5549 37.3204 48.5653 37.3221 48.5782 37.3211C48.5935 37.32 48.6035 37.3049 48.6146 37.2929C48.6218 37.279 48.6295 37.2637 48.6424 37.2265C48.6467 37.2149 48.6523 37.2026 48.6582 37.1899" stroke="#FAFAFA" stroke-width="0.0904419" stroke-linecap="round"/>
</g>
</g>
<defs>
<filter id="filter0_i_448_8062" x="0" y="0" width="85" height="85" filterUnits="userSpaceOnUse" color-interpolation-filters="sRGB">
<feFlood flood-opacity="0" result="BackgroundImageFix"/>
<feBlend mode="normal" in="SourceGraphic" in2="BackgroundImageFix" result="shape"/>
<feColorMatrix in="SourceAlpha" type="matrix" values="0 0 0 0 0 0 0 0 0 0 0 0 0 0 0 0 0 0 127 0" result="hardAlpha"/>
<feOffset dy="-1"/>
<feComposite in2="hardAlpha" operator="arithmetic" k2="-1" k3="1"/>
<feColorMatrix type="matrix" values="0 0 0 0 0.346154 0 0 0 0 0.345204 0 0 0 0 0.34449 0 0 0 1 0"/>
<feBlend mode="normal" in2="shape" result="effect1_innerShadow_448_8062"/>
</filter>
<radialGradient id="paint0_radial_448_8062" cx="0" cy="0" r="1" gradientUnits="userSpaceOnUse" gradientTransform="translate(42.5) rotate(90) scale(85)">
<stop stop-color="#222222"/>
<stop offset="1" stop-color="#111111"/>
</radialGradient>
</defs>
</svg>
