<svg width="46" height="45" viewBox="0 0 46 45" fill="none" xmlns="http://www.w3.org/2000/svg">
<path d="M20.5664 6.70605C23.5313 6.27722 27.0535 6.73089 29.7773 7.98828C33.2377 9.58591 36.0009 12.4361 37.6074 15.8535C37.6107 15.8604 37.6125 15.8712 37.6133 15.8857C37.614 15.8993 37.6136 15.9159 37.6162 15.9316C37.6189 15.9475 37.6245 15.9638 37.6357 15.9775C37.6457 15.9895 37.6605 15.9976 37.6797 16.0029C37.6796 16.0124 37.6793 16.0225 37.6797 16.0322C37.6809 16.0536 37.6913 16.0714 37.7002 16.084C37.7041 16.0895 37.7093 16.096 37.7119 16.0996C37.715 16.1039 37.7164 16.1063 37.7168 16.1074V16.1084C37.7427 16.2145 37.7788 16.2803 37.8135 16.333C37.8483 16.386 37.8799 16.4232 37.9004 16.4756C37.9107 16.502 37.9223 16.5381 37.9346 16.5771C37.9467 16.6159 37.9597 16.6579 37.9736 16.6953V16.6963C37.9787 16.7099 37.9823 16.7292 37.9873 16.7549C37.9922 16.7802 37.998 16.8105 38.0098 16.8428C38.1828 17.3191 38.3936 17.9167 38.4492 18.416C38.4509 18.4303 38.4509 18.4452 38.4502 18.4609C38.4495 18.4765 38.4477 18.4935 38.4482 18.5098C38.4494 18.5411 38.4579 18.5721 38.4854 18.6006V18.6709C38.4837 18.6926 38.4817 18.7157 38.4805 18.7354C38.4792 18.7554 38.4786 18.7751 38.4824 18.791C38.4863 18.807 38.4949 18.8207 38.5107 18.8281C38.5233 18.8338 38.5393 18.8343 38.5586 18.8311V19.0391C38.5609 19.0696 38.5672 19.1674 38.5742 19.2578C38.5778 19.3033 38.5823 19.348 38.5859 19.3818C38.5878 19.3986 38.5891 19.4131 38.5908 19.4238C38.5917 19.4292 38.5928 19.4338 38.5938 19.4375C38.5942 19.4393 38.5952 19.4409 38.5957 19.4424C38.5962 19.4437 38.5963 19.4464 38.5977 19.4482C38.5996 19.4509 38.6029 19.4524 38.6045 19.4531C38.6061 19.4538 38.608 19.4539 38.6094 19.4541C38.6121 19.4545 38.6152 19.4551 38.6182 19.4551C38.6246 19.455 38.6328 19.4538 38.6406 19.4531C38.6486 19.4525 38.6571 19.4524 38.6641 19.4521C38.6659 19.4521 38.6675 19.4522 38.6689 19.4521C38.6709 19.4969 38.6718 19.5423 38.6709 19.5879C38.67 19.6367 38.6678 19.6863 38.6689 19.7354C38.6693 19.7535 38.669 19.772 38.668 19.791C38.667 19.8101 38.6652 19.8302 38.666 19.8496C38.6677 19.8869 38.6773 19.9237 38.7051 19.957C38.7039 19.9748 38.7046 19.9925 38.7051 20.0098L38.7061 20.0645C38.7037 20.1192 38.692 20.2224 38.6963 20.3057C38.6984 20.3471 38.7048 20.3861 38.7188 20.4121C38.7259 20.4254 38.7358 20.4367 38.749 20.4424C38.7583 20.4463 38.7684 20.446 38.7793 20.4443V20.6484C38.7655 20.6706 38.7534 20.7019 38.7451 20.7354C38.7364 20.7704 38.731 20.8089 38.7314 20.8438C38.7319 20.8783 38.7376 20.9116 38.7529 20.9336C38.7608 20.9449 38.7717 20.9529 38.7852 20.957C38.7947 20.9599 38.8043 20.957 38.8154 20.9551C38.8256 21.3486 38.8197 21.7492 38.8154 22.1436C38.7803 22.1401 38.7565 22.1471 38.7432 22.168C38.7294 22.1896 38.7301 22.2201 38.7354 22.25C38.7408 22.2806 38.7514 22.3147 38.7607 22.3438C38.7654 22.3583 38.7702 22.372 38.7734 22.3838C38.7767 22.3956 38.7789 22.4054 38.7793 22.4121C38.7808 22.4357 38.7808 22.46 38.7803 22.4844C38.7799 22.5044 38.7792 22.5247 38.7793 22.5449C38.7575 22.542 38.7402 22.5431 38.7275 22.5488C38.7115 22.5563 38.7047 22.5699 38.7021 22.585C38.6997 22.5993 38.7005 22.6164 38.7021 22.6328L38.7061 22.6846C38.699 22.9016 38.6789 23.1106 38.6689 23.3271V23.6816C38.6483 23.6777 38.6315 23.6784 38.6182 23.6875C38.6021 23.6984 38.5943 23.7172 38.5908 23.7373C38.5874 23.7577 38.5883 23.7824 38.5898 23.8066L38.5957 23.8789V23.9473C38.5734 23.9696 38.5637 23.9935 38.5605 24.0186C38.5589 24.0316 38.5594 24.0455 38.5596 24.0586V24.0977C38.5321 24.8239 38.2356 25.7986 37.8457 26.7471C37.4558 27.6955 36.9731 28.617 36.5752 29.2354C31.1899 37.6087 19.2985 39.0235 11.9961 32.2637C9.04018 29.5273 7.44256 26.2206 7.24316 22.1719C7.23763 22.0602 7.22242 21.5898 7.21582 21.1377C7.21252 20.9116 7.21129 20.6901 7.21484 20.5205C7.21662 20.4359 7.21929 20.3643 7.22363 20.3115C7.22581 20.2851 7.22858 20.263 7.23145 20.2471C7.23282 20.2394 7.23392 20.2332 7.23535 20.2285C7.2368 20.2238 7.23764 20.2206 7.23828 20.2197L7.24023 20.2217L7.24121 20.2148L7.35059 19.334H7.35156L7.35254 19.332C7.46757 18.6313 7.64614 17.8716 7.8623 17.1426C7.88305 17.146 7.8994 17.1467 7.91211 17.1416C7.92768 17.1354 7.93584 17.1228 7.94043 17.1094C7.94473 17.0967 7.94577 17.0815 7.94727 17.0674C7.94883 17.0526 7.95073 17.0379 7.95508 17.0244C8.01052 16.8544 8.06366 16.6798 8.12109 16.5117C8.24658 16.1453 8.39833 15.7708 8.56445 15.4053C8.57753 15.3765 8.59743 15.3466 8.62012 15.3145C8.64272 15.2825 8.6686 15.2476 8.69238 15.2119C8.73895 15.142 8.77966 15.0636 8.78125 14.9746C8.79516 14.9697 8.80698 14.9653 8.81543 14.957C8.82551 14.9471 8.83169 14.9352 8.83594 14.9238C8.84009 14.9127 8.84228 14.9007 8.84473 14.8906C8.84722 14.8804 8.84975 14.8716 8.85352 14.8643C8.8861 14.8022 8.92741 14.7433 8.96387 14.6816C11.5075 10.4025 15.5991 7.42505 20.5664 6.70605ZM36.6396 18.7041C34.6647 10.2987 25.1805 6.08702 17.3438 9.4043C14.7586 10.4983 12.0563 12.7296 10.7031 15.2188C10.6918 15.2394 10.6864 15.2619 10.6816 15.2812C10.6767 15.3012 10.6731 15.3172 10.667 15.3291C10.6666 15.3299 10.6654 15.3319 10.6621 15.335C10.6589 15.3379 10.6544 15.3408 10.6494 15.3447C10.6397 15.3524 10.6273 15.3629 10.6162 15.375C10.6052 15.3871 10.595 15.4018 10.5898 15.4199C10.5852 15.4362 10.5853 15.4548 10.5908 15.4756C10.5656 15.4888 10.541 15.5095 10.5186 15.5352C10.4934 15.5639 10.4696 15.5992 10.4492 15.6357C10.4087 15.7085 10.3792 15.7895 10.3721 15.8457C10.3711 15.8532 10.3726 15.8614 10.373 15.8672C10.3734 15.8716 10.3733 15.8751 10.373 15.8779C10.0955 16.2575 9.90768 16.7353 9.74902 17.1797C8.20703 21.4993 9.04544 26.7266 12.2646 30.0762C12.2826 30.0949 12.2923 30.1129 12.2988 30.1279C12.3021 30.1355 12.305 30.1418 12.3076 30.1484C12.3102 30.1548 12.3135 30.1616 12.3174 30.167C12.3214 30.1727 12.3265 30.178 12.334 30.1807C12.3411 30.1832 12.3493 30.1829 12.3584 30.1816C12.3734 30.1795 12.393 30.1709 12.4209 30.1592C12.414 30.1918 12.4122 30.2173 12.416 30.2373C12.4207 30.2613 12.4326 30.2771 12.4473 30.2891C12.4613 30.3004 12.4791 30.309 12.4941 30.3174C12.5099 30.3261 12.5252 30.3358 12.5371 30.3506C13.6402 31.7105 15.3427 32.8285 17.1992 33.6094C19.0559 34.3903 21.0677 34.835 22.7891 34.8486C30.9365 34.9113 38.1056 28.2117 36.8594 19.8047C36.806 19.445 36.756 19.169 36.6768 18.8135C36.6711 18.7886 36.6623 18.7673 36.6553 18.749L36.6396 18.7041Z" fill="#FAFAFA" stroke="#FAFAFA" stroke-width="0.0226105"/>
<path d="M29.8616 40.2812C30.594 40.1004 31.3496 40.0575 32.0051 40.2891C32.3073 40.3958 32.4449 40.6454 32.4426 40.9053C32.4403 41.1657 32.2977 41.4369 32.0374 41.585C31.9042 41.6607 31.7895 41.6687 31.6731 41.6562C31.6146 41.65 31.5557 41.6384 31.4934 41.6279C31.4313 41.6175 31.3657 41.6078 31.2952 41.6055C30.1188 41.5682 29.1855 41.994 28.2913 42.5205C27.3965 43.0473 26.5416 43.6743 25.5168 44.043C23.7626 44.6743 21.9711 44.6315 20.2483 43.9326C19.4579 43.6122 18.6988 43.0917 17.9211 42.6211C17.1442 42.1509 16.3486 41.7312 15.4866 41.6172C15.3051 41.5933 15.0165 41.611 14.7405 41.6211C14.6021 41.6262 14.4663 41.6298 14.3479 41.625C14.2293 41.6202 14.1291 41.6072 14.0608 41.5811C14.0604 41.5808 14.0588 41.5793 14.0559 41.5771C14.0527 41.5747 14.0482 41.5717 14.0432 41.5674C14.0326 41.5584 14.0185 41.5452 14.0022 41.5303C13.9697 41.5004 13.9283 41.461 13.887 41.4209C13.8456 41.3807 13.8039 41.3397 13.7717 41.3066C13.7558 41.2903 13.742 41.276 13.7317 41.2646C13.721 41.2529 13.715 41.2444 13.7131 41.2412C13.6414 41.1206 13.6233 41.0171 13.635 40.9141C13.6469 40.8104 13.6882 40.7062 13.7366 40.584C13.745 40.5631 13.7635 40.5459 13.7834 40.5264C13.8024 40.5077 13.8232 40.4863 13.8293 40.459H13.8303C13.8323 40.4496 13.8301 40.439 13.8274 40.4297C13.8245 40.4199 13.8198 40.4094 13.8157 40.4004C13.8118 40.392 13.8085 40.3856 13.8059 40.3799C13.8074 40.3799 13.809 40.3798 13.8108 40.3799C13.8195 40.3804 13.8308 40.3815 13.843 40.3828C13.8548 40.3841 13.8678 40.3857 13.8801 40.3857C13.8923 40.3858 13.9046 40.3838 13.9153 40.3799C13.9268 40.3756 13.9377 40.3664 13.9475 40.3564C13.9577 40.3461 13.9684 40.334 13.9827 40.3213C14.0112 40.296 14.0528 40.2674 14.1223 40.251C15.9627 39.8164 17.4254 40.6475 18.9045 41.5146C20.3827 42.3812 21.8783 43.2844 23.7795 42.9805C25.4141 42.7193 26.486 41.8814 27.8606 41.0996C28.4207 40.7812 29.1291 40.4621 29.8616 40.2812Z" fill="#FAFAFA" stroke="#FAFAFA" stroke-width="0.0226105"/>
<path d="M35.7357 31.6846C35.7824 31.7057 35.8235 31.7412 35.8627 31.7803C35.8944 31.8119 35.9267 31.8458 35.9584 31.876H35.9545L35.9779 31.8955C36.1328 32.0311 36.2495 32.1455 36.3217 32.2812C36.3935 32.4165 36.4219 32.5747 36.3978 32.7998C36.3919 32.8555 36.3704 32.9086 36.3519 32.9629C36.3338 33.0162 36.3186 33.071 36.3246 33.1279C36.329 33.1706 36.3479 33.2162 36.3773 33.2627C36.4068 33.3092 36.4466 33.358 36.4945 33.4072C36.5904 33.5057 36.718 33.6084 36.8519 33.707C36.9858 33.8056 37.1274 33.9 37.2513 33.9824C37.3755 34.065 37.4817 34.1359 37.5472 34.1855C37.8862 34.442 38.2886 34.7068 38.5492 35.0322C38.6793 35.1946 38.7736 35.3719 38.807 35.5693C38.8402 35.7665 38.8131 35.9856 38.6986 36.2324C38.562 36.5262 38.3911 36.7053 38.1771 36.8018C37.9625 36.8983 37.7018 36.9127 37.3851 36.8721C37.1729 36.8447 36.9566 36.7077 36.7572 36.5371C36.5581 36.3667 36.3774 36.1641 36.2347 36.0078C36.0627 35.8195 35.8707 35.5509 35.6761 35.293C35.4821 35.0358 35.2847 34.7885 35.1039 34.6436C35.0284 34.5832 34.9647 34.5478 34.9066 34.5293C34.8484 34.5108 34.796 34.5095 34.7435 34.5156C34.6919 34.5217 34.6389 34.535 34.5804 34.5469C34.5213 34.5589 34.4545 34.5699 34.3744 34.5703C34.2301 34.5711 34.1251 34.5532 34.0297 34.5146C33.934 34.476 33.8472 34.4158 33.7396 34.3311C33.685 34.2879 33.5656 34.1933 33.472 34.0908C33.4253 34.0396 33.3851 33.987 33.3627 33.9385C33.3401 33.8897 33.3366 33.8472 33.3568 33.8145C33.358 33.8126 33.3617 33.8094 33.3676 33.8037C33.3733 33.7982 33.3806 33.7912 33.39 33.7832C33.4088 33.7673 33.4342 33.7469 33.4642 33.7236C33.5245 33.677 33.6036 33.6185 33.6849 33.5586C33.8471 33.4392 34.0206 33.3136 34.0775 33.2656C34.5457 32.8682 35.2219 32.2505 35.5756 31.7734C35.5916 31.7516 35.5994 31.7286 35.6039 31.709C35.605 31.7042 35.6059 31.6996 35.6068 31.6953C35.6077 31.6909 35.6088 31.6865 35.6097 31.6826C35.6116 31.6748 35.6132 31.6686 35.6156 31.6641C35.6179 31.6598 35.6202 31.6569 35.6234 31.6553C35.6269 31.6535 35.6331 31.6527 35.642 31.6533C35.6602 31.6548 35.6895 31.6638 35.7357 31.6846Z" fill="#FAFAFA" stroke="#FAFAFA" stroke-width="0.0226105"/>
<path d="M40.2855 19.9893L40.3832 20.001H40.3842L40.4642 20.0322C40.4989 20.0488 40.5394 20.0699 40.5795 20.0928C40.6595 20.1384 40.7378 20.1894 40.7709 20.2178C40.8365 20.2742 40.904 20.358 40.972 20.4443C41.0396 20.5301 41.108 20.6188 41.1742 20.6846L41.1703 20.6885L41.183 20.6875C41.6803 20.6574 42.1792 20.5677 42.6781 20.4971C43.1766 20.4265 43.6761 20.3739 44.1781 20.4199V20.4209C44.89 20.592 45.2202 21.1379 45.1869 21.6553C45.1534 22.1723 44.7573 22.6638 44.0131 22.7275C43.5507 22.7673 43.079 22.6958 42.6068 22.6133C42.1351 22.5309 41.6623 22.437 41.1996 22.4336V22.4258L41.1908 22.4385C40.9553 22.7523 40.6924 23.0901 40.2758 23.1328C40.1448 23.1463 40.0144 23.134 39.8832 23.1191C39.7566 23.1048 39.6289 23.0888 39.5004 23.0938C39.6914 22.0744 39.6801 21.02 39.5004 20.002C39.6322 20.017 39.7898 20.006 39.9437 19.9961C40.064 19.9884 40.1819 19.9822 40.2855 19.9893Z" fill="#FAFAFA" stroke="#FAFAFA" stroke-width="0.0226105"/>
<path d="M24.6503 37.2339C24.7404 37.4018 24.7643 37.6313 24.7313 37.856C24.698 38.0829 24.6074 38.3015 24.4745 38.4429C24.4482 38.4708 24.4041 38.5068 24.3514 38.5464C24.2993 38.5855 24.238 38.6286 24.1805 38.6724C24.1228 38.7163 24.0671 38.7617 24.0243 38.8042C24.0031 38.8253 23.9845 38.8458 23.9706 38.8657C23.9568 38.8855 23.947 38.9055 23.9432 38.9243H23.9423L23.9432 38.9282C23.9799 39.2377 24.05 39.5603 24.1161 39.8813C24.1822 40.2025 24.244 40.5226 24.2635 40.8296C24.2948 41.325 24.1631 41.7931 23.8885 42.104C23.6146 42.4142 23.1977 42.5696 22.6561 42.4399C22.2993 42.3545 22.0779 42.1573 21.9481 41.895C21.8182 41.6322 21.7793 41.3028 21.7889 40.9517C21.7985 40.6005 21.8564 40.2288 21.9188 39.8823C21.95 39.7092 21.9826 39.5421 22.0106 39.3872L22.076 38.9653V38.9624C22.0667 38.8822 22.0298 38.8227 21.9764 38.7661C21.9519 38.74 21.8525 38.6526 21.7518 38.5679C21.6512 38.4832 21.5472 38.3995 21.5155 38.3794C21.4824 38.3585 21.4439 38.353 21.413 38.3481C21.3973 38.3457 21.3837 38.3431 21.3729 38.3394C21.3624 38.3357 21.3552 38.3308 21.3514 38.3247C21.3488 38.3201 21.3456 38.312 21.3427 38.3003C21.3398 38.2888 21.3373 38.2742 21.3348 38.2573C21.3298 38.2232 21.3254 38.1788 21.3221 38.1284C21.3155 38.0277 21.3128 37.9015 21.3134 37.7769C21.3139 37.6522 21.3175 37.5289 21.3251 37.4341C21.3289 37.3867 21.3333 37.3465 21.3387 37.3169C21.3414 37.3023 21.3446 37.2905 21.3475 37.2817C21.3494 37.2763 21.3511 37.2722 21.3524 37.27C22.4519 37.3294 23.5514 37.3894 24.6503 37.2339Z" fill="#FAFAFA" stroke="#FAFAFA" stroke-width="0.0226105"/>
<path d="M10.3699 31.6997C10.4897 31.8713 10.6331 32.0361 10.7771 32.186C11.3555 32.7897 11.8815 33.2559 12.5593 33.7456C12.5845 33.7637 12.6097 33.7723 12.6306 33.7788C12.6411 33.782 12.6498 33.7847 12.658 33.7876C12.6661 33.7905 12.6726 33.7937 12.6775 33.7974C12.6822 33.8009 12.6858 33.8052 12.6882 33.811C12.6906 33.817 12.6924 33.825 12.6921 33.8364C12.6915 33.8597 12.6835 33.8948 12.6658 33.9478C12.5907 34.0053 12.5161 34.0756 12.4392 34.147C12.3616 34.219 12.2819 34.2929 12.199 34.3599C12.0329 34.494 11.8535 34.5979 11.6482 34.5972C11.6164 34.5971 11.5771 34.5901 11.5339 34.5796C11.4909 34.5691 11.4443 34.5551 11.3972 34.5415C11.3503 34.528 11.3029 34.5145 11.2585 34.5054C11.2142 34.4963 11.1715 34.4913 11.1355 34.4946C11.1183 34.4962 11.0986 34.5042 11.0779 34.5151C11.057 34.5262 11.0336 34.5412 11.0095 34.5591C10.9613 34.595 10.9078 34.6434 10.8552 34.6938C10.75 34.795 10.6483 34.9079 10.6023 34.9614C10.4885 35.0933 10.3556 35.2724 10.2097 35.4683C10.0636 35.6644 9.90403 35.8778 9.73608 36.0776C9.56809 36.2775 9.39163 36.4642 9.21265 36.6069C9.03366 36.7496 8.85253 36.848 8.67456 36.8735C8.27373 36.9315 7.81663 36.9056 7.5144 36.6226C7.43578 36.5488 7.37234 36.4369 7.32593 36.3042C7.27955 36.1715 7.24977 36.0186 7.23999 35.8647C7.23025 35.711 7.24028 35.5565 7.27026 35.4194C7.30033 35.2822 7.35069 35.1632 7.42261 35.0806C7.45199 35.0469 7.50206 35.0122 7.55542 34.9761C7.60815 34.9404 7.66429 34.9031 7.7019 34.8657C8.11955 34.4506 8.50441 34.1889 8.94409 33.8179C9.01626 33.7569 9.07622 33.7284 9.13257 33.7075C9.18876 33.6867 9.24389 33.6723 9.30151 33.6382C9.30396 33.6367 9.30729 33.6341 9.3103 33.6313C9.3137 33.6282 9.31802 33.6236 9.323 33.6187C9.33295 33.6087 9.34608 33.5954 9.36108 33.5796C9.39116 33.5479 9.42955 33.5068 9.46753 33.4653C9.50545 33.4239 9.54301 33.3818 9.57202 33.3491C9.58639 33.3329 9.59905 33.3188 9.60815 33.3081C9.61272 33.3028 9.617 33.298 9.61987 33.2944C9.62254 33.2911 9.62448 33.2878 9.62573 33.2856C9.67023 33.2087 9.67029 33.1415 9.65894 33.0757C9.65336 33.0434 9.6454 33.0104 9.63843 32.978C9.63136 32.9451 9.62552 32.911 9.62476 32.8755C9.62104 32.7321 9.61452 32.6193 9.63062 32.5122C9.64664 32.4057 9.68454 32.3044 9.77026 32.1851C9.80826 32.1322 9.92956 31.9912 10.0574 31.8735C10.1212 31.8148 10.1862 31.7621 10.2429 31.729C10.2714 31.7124 10.2979 31.7018 10.3201 31.6968C10.341 31.6921 10.3573 31.6932 10.3699 31.6997Z" fill="#FAFAFA" stroke="#FAFAFA" stroke-width="0.0226105"/>
<path d="M5.47375 20.0186C5.7836 19.9395 6.13112 19.9678 6.44836 20C6.31095 21.0239 6.36451 22.0636 6.51868 23.082C6.51191 23.1006 6.50246 23.1106 6.49036 23.1172C6.47734 23.1242 6.46105 23.1283 6.44055 23.1318C6.3511 23.1473 6.13083 23.1466 5.91125 23.1328C5.8017 23.1259 5.69245 23.1155 5.60071 23.1025C5.50844 23.0895 5.43421 23.0743 5.39465 23.0566C5.35337 23.0383 5.30341 22.9904 5.24817 22.9268C5.19317 22.8634 5.13385 22.7852 5.07532 22.709C5.01703 22.6331 4.95914 22.558 4.9054 22.501C4.87852 22.4725 4.8519 22.4487 4.82727 22.4307C4.80279 22.4128 4.77876 22.4005 4.75598 22.3975V22.3965L4.75305 22.3975C4.11864 22.4761 3.48348 22.5595 2.85266 22.6582C2.76784 22.6715 2.73182 22.6786 2.69348 22.6826C2.65536 22.6866 2.61512 22.6876 2.52258 22.6895C2.25166 22.6947 1.9747 22.7054 1.71985 22.6562C1.46546 22.6072 1.23348 22.4985 1.05188 22.2676C0.640599 21.7448 0.767872 20.9492 1.34778 20.6172C1.72138 20.4034 2.18617 20.3917 2.66418 20.4385C2.90293 20.4619 3.14444 20.5 3.37903 20.5342C3.49623 20.5513 3.61223 20.5672 3.72473 20.5801L4.05188 20.6074C4.15642 20.6164 4.20009 20.6215 4.2218 20.624C4.23241 20.6253 4.23878 20.6258 4.24426 20.626C4.2497 20.6261 4.25464 20.6256 4.26282 20.625C4.27882 20.6238 4.30364 20.6268 4.3302 20.6299C4.3551 20.6328 4.3821 20.6349 4.40149 20.6338V20.6348C4.55743 20.6458 4.53076 20.6484 4.63684 20.6484C4.65995 20.6485 4.68656 20.6504 4.71399 20.6523C4.7411 20.6542 4.7691 20.6558 4.79309 20.6533C4.82485 20.6499 4.84254 20.6427 4.85168 20.6338C4.85641 20.6291 4.85869 20.6236 4.8595 20.6191V20.6182C4.91126 20.5717 4.9579 20.5165 5.00208 20.458C5.04775 20.3976 5.09049 20.3351 5.13684 20.2754C5.22869 20.1572 5.32956 20.0551 5.47278 20.0186H5.47375Z" fill="#FAFAFA" stroke="#FAFAFA" stroke-width="0.0226105"/>
<path d="M28.7817 38.1821C30.4262 36.9659 32.6482 37.5713 34.1499 38.7095L34.1616 38.7192V38.7173C34.3453 38.8569 34.493 38.9771 34.5845 39.1255C34.6773 39.2762 34.7127 39.4571 34.6665 39.7183C34.6464 39.8315 34.5679 39.9367 34.4663 40.021C34.3649 40.1052 34.242 40.1681 34.1353 40.1968C33.862 40.2699 33.6513 40.2025 33.4595 40.0825C33.3634 40.0224 33.2718 39.9493 33.1792 39.8735C33.0867 39.7978 32.993 39.719 32.8931 39.6499C32.2333 39.1943 31.3118 38.8327 30.4966 39.0142C30.3401 39.049 30.1855 39.1205 30.0327 39.1987C29.8795 39.2772 29.7282 39.3618 29.5767 39.4243C29.4252 39.4868 29.2744 39.5267 29.1235 39.5151C28.9731 39.5036 28.821 39.4411 28.6665 39.2974C28.508 39.1499 28.453 38.9327 28.48 38.7212C28.507 38.5098 28.6158 38.3052 28.7817 38.1821Z" fill="#FAFAFA" stroke="#FAFAFA" stroke-width="0.0226105"/>
<path d="M11.6539 38.9502C12.716 38.0148 14.2545 37.3218 15.7057 37.5684C15.9284 37.6063 16.3167 37.7222 16.6813 37.876C16.8636 37.9529 17.0401 38.0391 17.1862 38.1299C17.3324 38.2208 17.4474 38.316 17.5094 38.4092L17.5162 38.4189C17.6316 38.6008 17.6259 38.8164 17.5446 39.0078C17.4616 39.2028 17.3005 39.371 17.1119 39.4502C16.8517 39.5596 16.6566 39.522 16.4723 39.4355C16.3798 39.3921 16.2903 39.3364 16.1959 39.2803C16.1017 39.2243 16.0026 39.1686 15.8932 39.125C15.0757 38.7996 14.0532 39.0759 13.3297 39.5186C13.2072 39.5935 13.0859 39.6888 12.9645 39.7842C12.8429 39.8797 12.7207 39.9758 12.5944 40.0527C12.342 40.2063 12.0749 40.2837 11.7692 40.1338C11.5661 40.0342 11.428 39.8373 11.3795 39.623C11.331 39.4088 11.3727 39.1782 11.526 39.0107C11.5412 38.9942 11.5613 38.9871 11.5846 38.9805C11.607 38.9741 11.6334 38.9682 11.6539 38.9502Z" fill="#FAFAFA" stroke="#FAFAFA" stroke-width="0.0226105"/>
<path d="M37.2015 6.29443C37.4663 6.23376 37.7002 6.22517 37.9135 6.27881C38.1266 6.33243 38.3203 6.44863 38.5043 6.64014L38.5131 6.64893C38.8524 7.00774 38.9358 7.4818 38.7015 7.93701C38.5719 8.1884 38.2924 8.44172 37.9867 8.67432C37.8341 8.79045 37.6749 8.9009 37.5258 9.00342C37.3768 9.10578 37.2375 9.2005 37.1234 9.28369C37.0587 9.33084 36.8903 9.44764 36.7328 9.56396C36.6539 9.62223 36.5773 9.68131 36.517 9.73096C36.4869 9.7557 36.4602 9.77785 36.4398 9.79736C36.4196 9.81667 36.4045 9.83398 36.3969 9.84717C36.3768 9.8814 36.3709 9.92858 36.3724 9.98096C36.374 10.0336 36.3834 10.0938 36.3939 10.1558C36.4152 10.2808 36.4436 10.413 36.4359 10.5151C36.4237 10.6754 36.3115 10.8929 36.1635 11.0815C36.0896 11.1756 36.0072 11.2625 35.9242 11.3306C35.8413 11.3985 35.7586 11.4477 35.684 11.4683C35.6508 11.4774 35.6326 11.479 35.6234 11.4771C35.6194 11.4761 35.6173 11.4742 35.6166 11.4731C35.6157 11.4718 35.615 11.4693 35.6146 11.4653C35.6142 11.4611 35.6143 11.456 35.6146 11.4497C35.6149 11.4436 35.6157 11.4365 35.6156 11.4292C35.6153 11.4145 35.6125 11.3975 35.601 11.3823C35.3597 11.0658 34.7437 10.4684 34.4369 10.1763C34.3593 10.1025 34.0798 9.88825 33.8187 9.68506C33.6881 9.58338 33.5619 9.48399 33.4672 9.40576C33.4198 9.36666 33.38 9.33324 33.3519 9.30713C33.3379 9.29405 33.3264 9.28263 33.3187 9.27393C33.315 9.26969 33.3119 9.26602 33.3099 9.26318C33.309 9.26185 33.3084 9.26012 33.308 9.25928V9.23779C33.3096 9.2297 33.3129 9.22039 33.3177 9.20947C33.3274 9.1877 33.3424 9.1615 33.3627 9.1333C33.4034 9.07666 33.4625 9.01045 33.5258 8.9458C33.6525 8.81631 33.797 8.69301 33.8529 8.65869C33.9607 8.593 34.0556 8.55602 34.1547 8.5376C34.2539 8.51916 34.3582 8.51948 34.4847 8.52686C34.5449 8.53049 34.6201 8.54849 34.6937 8.56592C34.7665 8.58314 34.839 8.59964 34.89 8.59717C34.9228 8.59537 34.9577 8.58186 34.9935 8.56006C35.0295 8.53815 35.0674 8.50776 35.1058 8.47119C35.1828 8.39795 35.264 8.29926 35.3422 8.1958C35.4203 8.09242 35.4954 7.98329 35.5609 7.88818C35.6266 7.79281 35.6824 7.7116 35.7211 7.66357C35.8776 7.46928 36.131 7.15416 36.4037 6.87354C36.5401 6.73322 36.6812 6.60151 36.8177 6.49854C36.9544 6.3955 37.0853 6.32107 37.2015 6.29443Z" fill="#FAFAFA" stroke="#FAFAFA" stroke-width="0.0226105"/>
<path d="M21.8292 1.38867C22.1855 0.176688 23.8953 0.249359 24.1954 1.42676L24.2198 1.54395C24.2525 1.9866 24.2108 2.42459 24.1466 2.86133C24.1145 3.07986 24.0766 3.29845 24.0392 3.5166C24.0018 3.73452 23.9656 3.95261 23.9357 4.1709H23.9347L23.9357 4.17383C23.9383 4.19985 23.951 4.22642 23.9698 4.25293C23.9888 4.27947 24.0139 4.30738 24.0441 4.33496C24.1045 4.39011 24.1842 4.44721 24.2648 4.50391C24.3457 4.56086 24.4284 4.61727 24.4952 4.66992C24.5285 4.69612 24.5579 4.72134 24.5812 4.74512C24.6046 4.76909 24.6212 4.79178 24.63 4.81152C24.638 4.8294 24.6464 4.85876 24.6544 4.89746C24.6624 4.93606 24.67 4.98369 24.6769 5.03613C24.6906 5.14088 24.7021 5.26661 24.7072 5.38867C24.7123 5.51097 24.7113 5.62934 24.7023 5.71875C24.6977 5.76354 24.6906 5.80064 24.6818 5.82715C24.6774 5.84025 24.673 5.85039 24.6681 5.85742C24.6636 5.8637 24.659 5.8658 24.6554 5.86719L23.4171 5.75488L22.8849 5.75C22.3595 5.75655 21.8389 5.79894 21.3195 5.90039C21.3344 5.76236 21.3235 5.60033 21.3136 5.44141C21.3033 5.27561 21.294 5.1126 21.3175 4.98145L21.3263 4.9834L21.3185 4.97559C21.3302 4.91981 21.3688 4.86107 21.424 4.80078C21.4808 4.73872 21.5548 4.67625 21.6329 4.61523C21.7114 4.554 21.7936 4.49452 21.8673 4.43848C21.9405 4.38281 22.0058 4.33046 22.049 4.2832L22.0519 4.28516V4.27539C22.0572 3.99375 22.0061 3.71127 21.9474 3.43066C21.8886 3.14965 21.8222 2.87052 21.795 2.59473C21.7809 2.45135 21.7701 2.21548 21.7726 1.98242C21.7751 1.74877 21.7907 1.5192 21.8292 1.38867Z" fill="#FAFAFA" stroke="#FAFAFA" stroke-width="0.0226105"/>
<path d="M7.68115 6.44043C8.06956 6.1945 8.62696 6.17343 9.12744 6.49219L9.22705 6.56055C9.54334 6.79488 9.82166 7.14098 10.0942 7.49902C10.3662 7.85631 10.6331 8.22576 10.9272 8.50488L10.9292 8.50684C11.0553 8.59133 11.1644 8.59921 11.2729 8.58496C11.3266 8.57789 11.3806 8.5652 11.436 8.55371C11.4919 8.54213 11.5503 8.53242 11.6128 8.5293C12.0987 8.50501 12.3714 8.83754 12.6782 9.16992C12.6854 9.19822 12.6693 9.22997 12.6401 9.2627C12.6108 9.29563 12.5732 9.32504 12.5464 9.34961C11.861 9.97699 11.2644 10.4501 10.6196 11.1523C10.5957 11.1783 10.5678 11.2181 10.5386 11.2598C10.509 11.3019 10.4774 11.3477 10.4438 11.3857C10.4102 11.424 10.3754 11.4541 10.3413 11.4678C10.3245 11.4745 10.3078 11.4767 10.2915 11.4746C10.2754 11.4725 10.2588 11.4655 10.2417 11.4521C10.1806 11.4038 10.036 11.2542 9.90283 11.0996C9.83646 11.0225 9.77308 10.9441 9.72412 10.877C9.69967 10.8434 9.67922 10.8125 9.66357 10.7861C9.64791 10.7598 9.63722 10.7388 9.6333 10.7236C9.61536 10.6525 9.61343 10.5721 9.61768 10.4883C9.62193 10.4047 9.63261 10.3181 9.64111 10.2324C9.6496 10.1468 9.65568 10.062 9.6499 9.98438C9.64412 9.90675 9.62616 9.83499 9.58643 9.77539C9.55546 9.72921 9.48896 9.67188 9.40479 9.61035C9.32013 9.54848 9.21568 9.48161 9.10889 9.41504C8.89476 9.28158 8.66972 9.15134 8.56006 9.07324C8.38176 8.94611 8.10002 8.74215 7.84424 8.52051C7.71629 8.40962 7.5951 8.29364 7.49658 8.18164C7.39797 8.06952 7.32226 7.96144 7.28564 7.86426C7.04313 7.22168 7.26737 6.70257 7.68115 6.44043Z" fill="#FAFAFA" stroke="#FAFAFA" stroke-width="0.0226105"/>
<mask id="path-13-inside-1_2032_6129" fill="white">
<path d="M11.5565 15.7743C11.6119 15.7363 12.0136 15.0174 12.1076 14.8854C16.5214 8.66433 25.0734 7.38168 31.1631 12.0209C33.2301 13.5954 35.0109 16.1042 35.5947 18.6595C35.609 18.7212 35.599 18.7883 35.6757 18.8168C35.9818 20.3702 36.11 21.9923 35.8197 23.561C34.329 31.6147 25.4904 35.8675 17.9877 32.8937C12.8582 30.8604 9.35911 25.6973 10.0902 20.0451C10.1947 19.2385 10.5256 18.4726 10.6396 17.7173C10.6412 17.7051 10.6381 17.6925 10.6396 17.6809C10.7167 17.6904 10.7225 17.6846 10.713 17.6075C10.7209 17.5996 10.7484 17.4222 10.7494 17.3874C10.8418 17.3985 10.8202 17.332 10.8413 17.2792C10.9284 17.0586 11.0176 16.8326 11.1163 16.6178C11.1548 16.5334 11.1907 16.4373 11.2261 16.3613C11.2451 16.3212 11.2762 16.2636 11.2995 16.2145C11.319 16.1728 11.3327 16.1095 11.3359 16.1048C11.3512 16.0826 11.3855 16.138 11.4457 15.958C11.4589 15.9189 11.4694 15.8947 11.4821 15.8482C11.5523 15.8604 11.5676 15.8445 11.5554 15.7748L11.5565 15.7743ZM28.7476 17.1673C28.5688 16.7888 27.8667 16.4009 27.5621 16.0984C27.5373 16.0736 27.4878 16.0678 27.5025 16.015L30.4235 13.1272C30.478 12.9958 30.3803 13.0343 30.3116 12.9836C29.8451 12.639 29.3875 12.3164 28.8824 12.0293C27.407 11.19 25.8261 10.7313 24.1387 10.5397C24.1091 10.5265 24.0557 10.5741 24.0557 10.5878V11.7791C23.6064 11.4709 22.895 11.6276 22.6913 12.156C22.6791 12.1866 22.6264 12.3703 22.6264 12.384V14.7482C22.4469 14.7281 22.1909 14.7413 22.0214 14.7118C21.9797 14.7044 21.9475 14.6986 21.9354 14.6516L21.8937 10.5693C19.6034 10.734 17.4171 11.6677 15.594 13.0301L15.6235 13.1557L17.3838 14.878C17.3981 14.9551 17.3712 14.9203 17.3342 14.935C17.0423 15.0522 16.1128 15.2306 15.9698 15.4581C15.756 15.7981 15.8125 16.1786 16.173 16.3813L16.761 16.6173C16.6544 16.5782 16.3071 16.6706 16.2479 16.6384C16.2052 16.6152 16.1941 16.5471 16.1624 16.5202C15.586 16.0346 15.0513 15.4602 14.5235 14.9514C14.3683 14.802 14.2242 14.64 14.0674 14.4922C13.3606 15.3388 12.6481 16.2985 12.2897 17.3504H12.2533C12.2211 17.3441 12.2258 17.371 12.2168 17.3869C12.1414 17.5194 12.0368 17.8176 11.9793 17.9738C11.69 18.7651 11.519 19.5864 11.3749 20.4156C11.3586 20.4547 11.4003 20.5391 11.4288 20.5391H16.0289C15.974 20.8447 15.7444 21.1778 15.5522 21.4264C15.4409 21.57 15.169 21.778 15.1036 21.9411C15.0703 22.0239 15.0846 22.1796 15.0761 22.1886C15.0508 22.215 14.5018 22.1659 14.3488 22.2124C14.2965 22.2282 14.1366 22.3332 14.1065 22.3734C14.0437 22.4552 14.0732 22.5919 13.9217 22.5919H11.3374C11.3987 22.8843 11.4303 23.1873 11.4947 23.4792C11.6362 24.1211 11.8447 24.6895 12.0516 25.3045C12.0859 25.4058 12.0801 25.5704 12.1139 25.6464C12.1398 25.7045 12.2036 25.6989 12.2137 25.7131C12.23 25.7362 12.1794 25.7864 12.1873 25.8117C12.1894 25.8191 12.2965 25.8693 12.3139 25.9026C12.3393 25.9516 12.3303 26.0129 12.3557 26.0629C12.8265 26.9883 13.3665 27.8704 14.0685 28.6389C14.1355 28.5828 14.3081 28.3633 14.3947 28.3854C14.4105 28.3897 14.572 28.5871 14.6137 28.6251C15.0392 29.0131 15.5258 29.3608 16.1028 29.4827C16.1746 29.5831 15.5591 30.0138 15.6314 30.1373C15.6425 30.1563 15.8869 30.2967 15.9291 30.3263C16.9457 31.0494 18.1191 31.6233 19.3205 32.0011C20.1582 32.2652 21.0539 32.4725 21.9312 32.5247V30.0324H22.4627C22.5361 30.0324 23.0075 29.877 23.113 29.8397C23.4403 29.724 23.7412 29.5487 24.0568 29.4095L24.0932 32.5252C24.9599 32.4752 25.8241 32.2819 26.6521 32.0232C27.8145 31.6601 29.1521 31.0209 30.1312 30.2974C30.1929 30.2512 30.3993 30.1262 30.393 30.0577C30.383 29.9499 29.8112 29.5103 29.8851 29.4463C30.2569 29.4859 30.7577 29.5392 30.9621 29.1492C31.1579 28.775 31.0222 28.4736 30.7281 28.2181C30.3724 27.9084 29.8017 27.6951 29.3346 27.6501C29.2903 27.6074 29.5589 27.2036 29.598 27.1256C29.7527 26.8172 29.6941 26.4525 30.0753 26.8441L31.9178 28.605C32.0799 28.5808 32.8232 27.5231 32.9498 27.325C33.7954 26.0027 34.3206 24.5432 34.5544 22.9994C34.5628 22.9429 34.5908 22.6062 34.5766 22.5919C33.9901 22.699 34.2151 22.4562 34.0414 22.1195C33.9042 21.8534 33.5679 21.6829 33.2756 21.6835C33.1503 21.6835 32.7361 21.8038 32.6712 21.7695C32.6061 21.7352 32.1722 21.0237 32.0784 20.8923C32.0336 20.83 31.7896 20.6178 31.864 20.5396H34.6137C34.4093 18.6605 33.6403 16.8786 32.5903 15.323C32.4067 15.0507 32.2041 14.7371 31.9574 14.526C31.8518 14.5429 30.7414 15.7653 30.5666 15.9432C30.1929 16.3227 29.5876 17.0147 29.1964 17.313C29.0449 17.428 29.0739 17.3526 28.9319 17.3135C28.9292 17.2206 28.8729 17.1942 28.7851 17.2037C28.7777 17.1847 28.7519 17.1747 28.7487 17.1673H28.7476Z"/>
</mask>
<path d="M11.5565 15.7743C11.6119 15.7363 12.0136 15.0174 12.1076 14.8854C16.5214 8.66433 25.0734 7.38168 31.1631 12.0209C33.2301 13.5954 35.0109 16.1042 35.5947 18.6595C35.609 18.7212 35.599 18.7883 35.6757 18.8168C35.9818 20.3702 36.11 21.9923 35.8197 23.561C34.329 31.6147 25.4904 35.8675 17.9877 32.8937C12.8582 30.8604 9.35911 25.6973 10.0902 20.0451C10.1947 19.2385 10.5256 18.4726 10.6396 17.7173C10.6412 17.7051 10.6381 17.6925 10.6396 17.6809C10.7167 17.6904 10.7225 17.6846 10.713 17.6075C10.7209 17.5996 10.7484 17.4222 10.7494 17.3874C10.8418 17.3985 10.8202 17.332 10.8413 17.2792C10.9284 17.0586 11.0176 16.8326 11.1163 16.6178C11.1548 16.5334 11.1907 16.4373 11.2261 16.3613C11.2451 16.3212 11.2762 16.2636 11.2995 16.2145C11.319 16.1728 11.3327 16.1095 11.3359 16.1048C11.3512 16.0826 11.3855 16.138 11.4457 15.958C11.4589 15.9189 11.4694 15.8947 11.4821 15.8482C11.5523 15.8604 11.5676 15.8445 11.5554 15.7748L11.5565 15.7743ZM28.7476 17.1673C28.5688 16.7888 27.8667 16.4009 27.5621 16.0984C27.5373 16.0736 27.4878 16.0678 27.5025 16.015L30.4235 13.1272C30.478 12.9958 30.3803 13.0343 30.3116 12.9836C29.8451 12.639 29.3875 12.3164 28.8824 12.0293C27.407 11.19 25.8261 10.7313 24.1387 10.5397C24.1091 10.5265 24.0557 10.5741 24.0557 10.5878V11.7791C23.6064 11.4709 22.895 11.6276 22.6913 12.156C22.6791 12.1866 22.6264 12.3703 22.6264 12.384V14.7482C22.4469 14.7281 22.1909 14.7413 22.0214 14.7118C21.9797 14.7044 21.9475 14.6986 21.9354 14.6516L21.8937 10.5693C19.6034 10.734 17.4171 11.6677 15.594 13.0301L15.6235 13.1557L17.3838 14.878C17.3981 14.9551 17.3712 14.9203 17.3342 14.935C17.0423 15.0522 16.1128 15.2306 15.9698 15.4581C15.756 15.7981 15.8125 16.1786 16.173 16.3813L16.761 16.6173C16.6544 16.5782 16.3071 16.6706 16.2479 16.6384C16.2052 16.6152 16.1941 16.5471 16.1624 16.5202C15.586 16.0346 15.0513 15.4602 14.5235 14.9514C14.3683 14.802 14.2242 14.64 14.0674 14.4922C13.3606 15.3388 12.6481 16.2985 12.2897 17.3504H12.2533C12.2211 17.3441 12.2258 17.371 12.2168 17.3869C12.1414 17.5194 12.0368 17.8176 11.9793 17.9738C11.69 18.7651 11.519 19.5864 11.3749 20.4156C11.3586 20.4547 11.4003 20.5391 11.4288 20.5391H16.0289C15.974 20.8447 15.7444 21.1778 15.5522 21.4264C15.4409 21.57 15.169 21.778 15.1036 21.9411C15.0703 22.0239 15.0846 22.1796 15.0761 22.1886C15.0508 22.215 14.5018 22.1659 14.3488 22.2124C14.2965 22.2282 14.1366 22.3332 14.1065 22.3734C14.0437 22.4552 14.0732 22.5919 13.9217 22.5919H11.3374C11.3987 22.8843 11.4303 23.1873 11.4947 23.4792C11.6362 24.1211 11.8447 24.6895 12.0516 25.3045C12.0859 25.4058 12.0801 25.5704 12.1139 25.6464C12.1398 25.7045 12.2036 25.6989 12.2137 25.7131C12.23 25.7362 12.1794 25.7864 12.1873 25.8117C12.1894 25.8191 12.2965 25.8693 12.3139 25.9026C12.3393 25.9516 12.3303 26.0129 12.3557 26.0629C12.8265 26.9883 13.3665 27.8704 14.0685 28.6389C14.1355 28.5828 14.3081 28.3633 14.3947 28.3854C14.4105 28.3897 14.572 28.5871 14.6137 28.6251C15.0392 29.0131 15.5258 29.3608 16.1028 29.4827C16.1746 29.5831 15.5591 30.0138 15.6314 30.1373C15.6425 30.1563 15.8869 30.2967 15.9291 30.3263C16.9457 31.0494 18.1191 31.6233 19.3205 32.0011C20.1582 32.2652 21.0539 32.4725 21.9312 32.5247V30.0324H22.4627C22.5361 30.0324 23.0075 29.877 23.113 29.8397C23.4403 29.724 23.7412 29.5487 24.0568 29.4095L24.0932 32.5252C24.9599 32.4752 25.8241 32.2819 26.6521 32.0232C27.8145 31.6601 29.1521 31.0209 30.1312 30.2974C30.1929 30.2512 30.3993 30.1262 30.393 30.0577C30.383 29.9499 29.8112 29.5103 29.8851 29.4463C30.2569 29.4859 30.7577 29.5392 30.9621 29.1492C31.1579 28.775 31.0222 28.4736 30.7281 28.2181C30.3724 27.9084 29.8017 27.6951 29.3346 27.6501C29.2903 27.6074 29.5589 27.2036 29.598 27.1256C29.7527 26.8172 29.6941 26.4525 30.0753 26.8441L31.9178 28.605C32.0799 28.5808 32.8232 27.5231 32.9498 27.325C33.7954 26.0027 34.3206 24.5432 34.5544 22.9994C34.5628 22.9429 34.5908 22.6062 34.5766 22.5919C33.9901 22.699 34.2151 22.4562 34.0414 22.1195C33.9042 21.8534 33.5679 21.6829 33.2756 21.6835C33.1503 21.6835 32.7361 21.8038 32.6712 21.7695C32.6061 21.7352 32.1722 21.0237 32.0784 20.8923C32.0336 20.83 31.7896 20.6178 31.864 20.5396H34.6137C34.4093 18.6605 33.6403 16.8786 32.5903 15.323C32.4067 15.0507 32.2041 14.7371 31.9574 14.526C31.8518 14.5429 30.7414 15.7653 30.5666 15.9432C30.1929 16.3227 29.5876 17.0147 29.1964 17.313C29.0449 17.428 29.0739 17.3526 28.9319 17.3135C28.9292 17.2206 28.8729 17.1942 28.7851 17.2037C28.7777 17.1847 28.7519 17.1747 28.7487 17.1673H28.7476Z" fill="#FAFAFA" stroke="#FAFAFA" stroke-width="0.0452209" mask="url(#path-13-inside-1_2032_6129)"/>
<path d="M33.1644 22.3447C33.3092 22.3368 33.4131 22.4082 33.4574 22.5C33.5016 22.592 33.4866 22.7056 33.3929 22.7842C33.3892 22.7872 33.3791 22.7931 33.3627 22.8008C33.3465 22.8084 33.3249 22.817 33.3002 22.8271C33.2506 22.8475 33.1873 22.8724 33.1224 22.8965C32.9925 22.9448 32.8568 22.9918 32.8138 23.0049C32.6804 23.0456 32.5339 23.0772 32.3851 23.1094C32.2366 23.1415 32.0856 23.1747 31.9447 23.2178L31.9154 23.2266L31.932 23.2334C31.9292 23.2387 31.9263 23.2446 31.9222 23.251C31.914 23.2639 31.9024 23.2774 31.8832 23.2842C31.737 23.3359 31.5644 23.3683 31.39 23.4082C31.2161 23.448 31.0404 23.495 30.892 23.5771C30.8002 23.628 30.6883 23.7316 30.5697 23.8623C30.451 23.9932 30.3246 24.1532 30.2035 24.3184C29.9611 24.6489 29.7388 25.0026 29.64 25.1943C29.5515 25.3664 29.4646 25.5825 29.3744 25.8154C29.284 26.0488 29.1899 26.2994 29.0853 26.54C28.9808 26.7806 28.8663 27.0114 28.7357 27.2051C28.6052 27.3987 28.4589 27.5554 28.2914 27.6484C28.1656 27.7181 27.9139 27.8071 27.6595 27.8701C27.5325 27.9016 27.4049 27.9271 27.2924 27.9395C27.1796 27.9519 27.0829 27.9512 27.017 27.9336L27.0004 27.917C26.9897 27.9051 26.9755 27.8875 26.9594 27.8672C26.9272 27.8266 26.8856 27.7728 26.8422 27.7158C26.7987 27.6587 26.7529 27.5981 26.7113 27.5469C26.6699 27.496 26.6319 27.4532 26.6049 27.4297C25.7853 26.7172 24.5203 26.7976 23.5756 27.1826C23.4359 27.2396 23.2939 27.3143 23.1498 27.3926C23.0055 27.471 22.8594 27.5536 22.7113 27.6289C22.4148 27.7796 22.1117 27.8996 21.8051 27.8926C21.6588 27.8891 21.5663 27.8283 21.4838 27.7451C21.4422 27.7032 21.4027 27.6556 21.3607 27.6064C21.3189 27.5575 21.2743 27.5066 21.2211 27.46C20.5188 26.8435 19.5003 26.7009 18.6185 26.9541C18.3792 27.0228 18.1533 27.1275 17.9291 27.2344C17.7056 27.3409 17.4834 27.4485 17.2513 27.5283C16.8787 27.397 16.6921 27.1134 16.5424 26.7939C16.5048 26.7139 16.4703 26.6313 16.4349 26.5488C16.3996 26.4663 16.3635 26.3838 16.3256 26.3027C16.2497 26.1406 16.1636 25.9847 16.0482 25.8516C15.9115 25.6938 15.7415 25.5859 15.5638 25.4922C15.4747 25.4451 15.384 25.4018 15.2943 25.3574L15.0306 25.2168C14.9569 25.1522 14.9366 25.048 14.9291 24.9326C14.9253 24.8746 14.9251 24.8161 14.9222 24.7578C14.9194 24.7001 14.9141 24.6437 14.9008 24.5938C14.8845 24.5325 14.8799 24.5103 14.8773 24.4824C14.876 24.4682 14.8749 24.4527 14.8734 24.4297C14.872 24.4067 14.8705 24.3764 14.8666 24.334C14.847 24.1217 14.7979 23.8814 14.7552 23.6455C14.7125 23.4093 14.676 23.177 14.6791 22.9775C14.6807 22.8829 14.698 22.8459 14.7299 22.8301C14.7469 22.8217 14.77 22.8178 14.8002 22.8174C14.8302 22.817 14.8661 22.8193 14.9095 22.8213C16.0858 22.8762 17.2903 22.9819 18.4633 23.0801C18.8243 23.1106 19.1867 23.1556 19.5482 23.1904C19.8034 23.579 19.9752 23.9055 20.4594 24.0508C21.0887 24.2397 21.9963 24.3252 22.9076 24.3359C23.8189 24.3466 24.7357 24.282 25.3851 24.1699C25.6728 24.1203 25.8631 24.0432 26.0316 23.9316C26.199 23.8208 26.3445 23.6751 26.5424 23.4912C28.4487 23.2148 30.3478 22.9102 32.2386 22.5566C32.3659 22.5328 32.542 22.4828 32.7133 22.4375C32.885 22.3921 33.0519 22.351 33.1644 22.3447ZM21.3578 24.6846C21.1648 24.7068 20.9737 24.8107 20.8217 25.0234C20.6661 25.2411 20.6337 25.4587 20.683 25.6494C20.7322 25.8397 20.8622 26.0022 21.0277 26.1113C21.1932 26.2204 21.3954 26.2769 21.5902 26.2539C21.7855 26.2307 21.9735 26.1275 22.1088 25.9199C22.3845 25.4962 22.2146 25.0585 21.9008 24.834C21.7438 24.7218 21.5505 24.6624 21.3578 24.6846ZM23.7787 24.6924C23.5798 24.7025 23.3946 24.7942 23.2562 24.9316C23.1181 25.0691 23.0265 25.2527 23.0131 25.4473C22.9997 25.6422 23.065 25.8474 23.2416 26.0273C23.8173 26.6142 24.8769 25.9733 24.5043 25.1084C24.4966 25.0906 24.4798 25.0804 24.4662 25.0732C24.4513 25.0654 24.4396 25.06 24.433 25.0508C24.4236 25.0367 24.4179 25.0178 24.4115 24.9971C24.4055 24.9776 24.3985 24.9556 24.3832 24.9404L24.3636 24.9219V24.9238C24.1759 24.7495 23.9714 24.6825 23.7787 24.6924ZM19.6888 24.9434C19.3258 24.5513 18.6618 24.6344 18.4174 25.1143C18.1497 25.6398 18.5015 26.2267 19.0883 26.2354C19.7822 26.2461 20.1563 25.4488 19.6888 24.9434ZM28.3392 24.3193C28.1946 24.1833 27.9872 24.151 27.806 24.2031C27.6246 24.2553 27.4677 24.3925 27.4252 24.5957C27.3664 24.8785 27.497 25.1149 27.6927 25.2314C27.8886 25.348 28.1498 25.3444 28.3519 25.1475C28.4607 25.0416 28.5122 24.8858 28.5092 24.7314C28.5061 24.5772 28.4486 24.4226 28.3392 24.3193Z" fill="#FAFAFA" stroke="#FAFAFA" stroke-width="0.0226105"/>
<path d="M21.0588 15.2363C22.6706 15.4472 24.2798 15.6145 25.8889 15.8594C26.1042 16.2903 26.3047 16.7314 26.5012 17.1719C27.1514 18.6284 27.8112 20.0092 27.4807 21.6455C27.439 21.8523 27.3668 22.049 27.2913 22.2451C27.217 22.4381 27.1382 22.6309 27.0842 22.832C26.682 22.8354 26.2799 22.8219 25.8772 22.8096C25.4715 22.7971 25.065 22.7874 24.6584 22.7998C23.669 22.8304 22.6014 22.9388 21.6174 23.0586C21.4308 23.0813 21.2451 23.1162 21.0598 23.1465C20.8813 23.1757 20.7027 23.1989 20.5217 23.2021C20.6055 23.0716 20.7029 22.9494 20.801 22.8271C20.9038 22.6992 21.0078 22.5712 21.0979 22.4346C21.2891 22.1449 21.4315 21.8243 21.5735 21.4971C22.3995 19.5932 22.1855 17.8511 21.3909 15.9707C21.3687 15.9182 21.2761 15.7399 21.1946 15.5713C21.1536 15.4865 21.1157 15.4036 21.0901 15.3398C21.0774 15.3082 21.0679 15.2816 21.0627 15.2617C21.0602 15.2519 21.0591 15.2438 21.0588 15.2383V15.2363Z" fill="#FAFAFA" stroke="#FAFAFA" stroke-width="0.0226105"/>
<path d="M16.5577 17.2515C17.2944 17.277 18.0264 17.3999 18.7589 17.4702C18.9683 17.4903 19.1862 17.491 19.4015 17.5005C19.6162 17.51 19.8292 17.5283 20.0323 17.5835C20.039 17.5872 20.0496 17.5966 20.0626 17.6118C20.0754 17.6267 20.0904 17.6466 20.1066 17.6694C20.1388 17.7151 20.1761 17.7739 20.213 17.8345C20.2869 17.9559 20.3592 18.0854 20.3868 18.1372C20.6962 18.7149 20.9505 19.4068 21.0021 20.064C21.0025 20.0692 21.0032 20.0746 21.0031 20.0806C21.0029 20.0863 21.0018 20.0927 21.0021 20.0991V20.1001C21.0142 20.2906 21.0116 20.5304 21.0021 20.7222C21.0008 20.7481 21.0021 20.7926 21.0031 20.8306C21.0035 20.8496 21.0041 20.8671 21.004 20.8804C21.004 20.8857 21.0042 20.8905 21.004 20.894H21.0031C20.9967 20.8935 20.9879 20.8926 20.9786 20.8931C20.9693 20.8935 20.9577 20.8951 20.9484 20.8999C20.9388 20.9049 20.931 20.9136 20.9279 20.9263C20.9189 20.9634 20.9281 21.0029 20.9376 21.0386C20.9475 21.0754 20.9578 21.1086 20.9552 21.1382C20.9535 21.1573 20.9414 21.2009 20.924 21.2583C20.9066 21.3153 20.8837 21.3854 20.8595 21.4556C20.8113 21.5956 20.7587 21.7376 20.7365 21.7886C20.7103 21.8484 20.6661 21.9139 20.6212 21.9819C20.5785 22.0467 20.5349 22.1141 20.507 22.1792L15.8312 22.104L16.2921 21.5454L16.2931 21.5444C16.8578 20.6848 17.1726 19.7787 17.0187 18.7339C16.9417 18.2123 16.7366 17.7381 16.5577 17.2515Z" fill="#FAFAFA" stroke="#FAFAFA" stroke-width="0.0226105"/>
<path d="M18.61 27.7275C19.3149 27.4738 20.2494 27.464 20.7936 28.04H20.7926L20.8004 28.0479C20.817 28.0654 20.8391 28.0776 20.8571 28.0898C20.8757 28.1027 20.8923 28.117 20.903 28.1396C20.9288 28.1961 20.9413 28.2412 20.9498 28.2783C20.9582 28.3148 20.963 28.3468 20.9762 28.374C21.0036 28.4305 21.0631 28.4681 21.2321 28.5215C21.9622 28.7517 22.5907 28.4901 23.2047 28.1865C23.8199 27.8824 24.4199 27.5369 25.0992 27.5898C25.2405 27.6008 25.5109 27.6691 25.7643 27.7666C25.8908 27.8153 26.0129 27.8714 26.1119 27.9307C26.2113 27.9902 26.2863 28.0525 26.3209 28.1133C26.3463 28.1577 26.3568 28.1969 26.3629 28.2334C26.366 28.2518 26.3686 28.2695 26.3707 28.2871C26.3729 28.3044 26.3746 28.3218 26.3785 28.3389C26.3866 28.3736 26.4019 28.4078 26.4342 28.4424C26.4663 28.4767 26.5154 28.5116 26.5914 28.5488C27.0213 28.7591 27.442 28.6807 27.8658 28.5615C28.2908 28.442 28.7184 28.2814 29.1676 28.3223C29.3557 28.3395 29.586 28.4012 29.8024 28.4912C30.0072 28.5764 30.198 28.6884 30.3297 28.8115C30.2214 28.8122 30.1126 28.7928 30.0035 28.7686C29.8847 28.7421 29.7645 28.7119 29.6461 28.7031C28.9676 28.6531 28.4861 28.9412 27.9948 29.166C27.7488 29.2786 27.5004 29.3761 27.2223 29.4082C26.9443 29.4402 26.6359 29.4069 26.2711 29.2598C26.0314 29.1631 25.8072 29.0054 25.5758 28.8623C25.3453 28.7198 25.1074 28.5921 24.8424 28.5586C24.367 28.4983 23.9409 28.6768 23.5172 28.8799C23.1458 29.0579 22.7764 29.2551 22.3746 29.333L22.1998 29.3584C21.1434 29.4636 20.7709 29.0677 19.9186 28.6855C19.4411 28.4713 19.0347 28.5131 18.6364 28.6172C18.438 28.669 18.2402 28.7374 18.0377 28.7959C17.8346 28.8546 17.6245 28.9043 17.401 28.9219C16.9058 28.9608 16.4854 28.9187 16.1051 28.7764C15.7325 28.6369 15.3974 28.4007 15.068 28.0498C15.2555 28.0622 15.4421 28.1152 15.6305 28.1729C15.8283 28.2334 16.029 28.2977 16.234 28.3174C17.3461 28.4236 17.6872 28.0595 18.61 27.7275Z" fill="#FAFAFA" stroke="#FAFAFA" stroke-width="0.0226105"/>
<path d="M26.9647 16.4438C27.0981 16.5479 27.2329 16.667 27.37 16.7827C27.5073 16.8986 27.6468 17.0116 27.7889 17.103C27.7978 17.1087 27.8054 17.1149 27.8134 17.1206C27.821 17.1262 27.829 17.1319 27.8378 17.1362C27.8542 17.1443 27.8724 17.1455 27.8973 17.1411C27.9031 17.1568 27.9083 17.1686 27.9139 17.1782C27.9205 17.1894 27.926 17.197 27.9305 17.2075V17.2085C27.9757 17.3067 28.0486 17.3783 28.1268 17.4419C28.2058 17.5061 28.2888 17.5613 28.3583 17.6294C29.4531 18.7026 30.5487 19.9128 31.4286 21.1714C31.6041 21.4223 31.7625 21.6902 31.9237 21.9507V21.9526C31.9218 21.9543 31.9179 21.9557 31.912 21.9575C31.8997 21.9613 31.881 21.9636 31.8573 21.9644C31.81 21.9659 31.7454 21.9621 31.6786 21.9556C31.6117 21.949 31.5424 21.9394 31.4862 21.9321C31.4306 21.9249 31.3863 21.919 31.37 21.9185C30.5974 21.8936 29.7519 21.963 28.9882 22.0718C28.8249 22.0951 28.6623 22.1286 28.4999 22.1616C28.343 22.1935 28.1862 22.2248 28.0292 22.2476C28.0645 22.0783 28.1106 21.9055 28.1522 21.73C28.1952 21.549 28.2329 21.3651 28.2469 21.1821C28.3499 19.8171 27.8045 18.0273 27.0887 16.8979L27.0936 16.9009L27.0712 16.8677L27.0702 16.8628C27.0692 16.8585 27.0677 16.8523 27.0663 16.8452C27.0635 16.8307 27.0604 16.8121 27.0565 16.7915C27.0489 16.7514 27.0388 16.7042 27.0272 16.6763C27.0234 16.6673 27.0104 16.6436 26.996 16.6157C26.9811 16.587 26.9637 16.5525 26.951 16.521C26.9447 16.5052 26.9396 16.4899 26.9364 16.4771C26.9332 16.464 26.9325 16.4535 26.9335 16.4468C26.9344 16.441 26.9364 16.4396 26.9384 16.439C26.942 16.4379 26.9502 16.4378 26.9647 16.4438Z" fill="#FAFAFA" stroke="#FAFAFA" stroke-width="0.0226105"/>
<path d="M15.8259 26.8975C15.8679 26.9319 15.8865 26.9792 15.8992 27.0322C15.9059 27.0605 15.9113 27.0882 15.9177 27.1172C15.924 27.1454 15.9313 27.1735 15.9431 27.1992C15.9515 27.2176 15.9702 27.2487 15.9919 27.2842C16.0139 27.3199 16.0399 27.3609 16.0632 27.4014C16.0867 27.442 16.1072 27.482 16.1199 27.5137C16.1261 27.5293 16.1302 27.5425 16.1316 27.5527C16.1322 27.5573 16.1299 27.5608 16.1296 27.5635C16.0785 27.5471 16.0256 27.5399 15.9734 27.5352C15.9168 27.53 15.8617 27.5272 15.8093 27.5146C15.7825 27.5081 15.6827 27.4789 15.5876 27.4502C15.5403 27.4359 15.4942 27.4216 15.4587 27.4102C15.441 27.4044 15.4259 27.3995 15.4148 27.3955C15.4093 27.3935 15.4044 27.392 15.4011 27.3906C15.399 27.3898 15.3979 27.389 15.3972 27.3887C15.3824 27.3784 15.3756 27.3661 15.3738 27.3535C15.3719 27.3402 15.375 27.3249 15.3796 27.3086V27.3076C15.3803 27.3065 15.3821 27.3056 15.3835 27.3037C15.3866 27.2998 15.3906 27.2942 15.3962 27.2881C15.4075 27.2757 15.424 27.2591 15.4431 27.2402C15.4813 27.2026 15.5321 27.1547 15.5847 27.1064C15.6374 27.0582 15.6919 27.0098 15.7371 26.9707C15.7763 26.9368 15.8082 26.9102 15.8259 26.8975Z" fill="#FAFAFA" stroke="#FAFAFA" stroke-width="0.0226105"/>
<path d="M23.7517 23.8271H23.2625L23.2966 23.3721L23.7517 23.3369V23.8271Z" fill="#FAFAFA" stroke="#FAFAFA" stroke-width="0.0226105"/>
<path d="M23.4481 12.2715C23.511 12.2491 23.5806 12.2491 23.6385 12.2773L23.6425 12.2793L23.6581 12.2949C23.6695 12.3074 23.6838 12.3246 23.6981 12.3418C23.7124 12.359 23.7265 12.3767 23.7372 12.3916C23.7425 12.3991 23.7467 12.4058 23.7499 12.4111C23.7533 12.4169 23.7546 12.4199 23.7548 12.4209C23.7702 12.5153 23.7538 12.6156 23.7362 12.7188C23.7188 12.821 23.7 12.9263 23.7147 13.0273L23.7167 13.0371H23.7274C24.0501 13.0159 24.4093 12.9656 24.7294 13.0039C24.8881 13.023 25.0364 13.0875 25.1913 13.1514C25.3456 13.215 25.506 13.2782 25.6864 13.293C25.8632 13.3073 26.0383 13.2923 26.2118 13.2725C26.3785 13.2534 26.5442 13.2301 26.7108 13.2217C26.6913 13.2598 26.6578 13.3059 26.6132 13.3545C26.5617 13.4105 26.4998 13.4706 26.4393 13.5303C26.379 13.5898 26.3198 13.649 26.2762 13.7031C26.2545 13.7301 26.2363 13.7568 26.2235 13.7812C26.2109 13.8054 26.2029 13.8289 26.203 13.8506C26.203 13.8831 26.2236 13.9185 26.2518 13.9531C26.2804 13.9881 26.3189 14.0252 26.3602 14.0605C26.4017 14.096 26.4464 14.1307 26.4862 14.1621C26.5262 14.1937 26.5614 14.2218 26.5848 14.2441C26.6072 14.2657 26.6386 14.2912 26.6669 14.3203C26.6808 14.3346 26.6934 14.3493 26.703 14.3633C26.7114 14.3755 26.716 14.3872 26.7186 14.3975C26.7165 14.4002 26.7137 14.4043 26.7079 14.4082C26.7 14.4134 26.6893 14.4193 26.6757 14.4248C26.6485 14.4358 26.6114 14.4466 26.5673 14.457C26.4788 14.4778 26.3628 14.4962 26.244 14.5117C26.1252 14.5272 26.003 14.5394 25.9022 14.5469C25.8011 14.5544 25.7221 14.5568 25.6884 14.5537C25.47 14.5338 25.274 14.4473 25.0741 14.3672C24.8749 14.2874 24.6718 14.2145 24.4413 14.2246C24.4213 14.2254 24.3714 14.2337 24.3085 14.2451C24.2453 14.2566 24.1677 14.2711 24.0917 14.2871C24.0154 14.3032 23.9398 14.3205 23.8817 14.335C23.8529 14.3421 23.8282 14.3488 23.8094 14.3545C23.8 14.3573 23.7913 14.3599 23.785 14.3623C23.7792 14.3645 23.7739 14.3674 23.7704 14.3701C23.7155 14.4123 23.7061 14.4834 23.7079 14.5566C23.7088 14.5936 23.7124 14.6327 23.7157 14.6699C23.719 14.7072 23.7219 14.743 23.7206 14.7754C23.7192 14.808 23.713 14.8364 23.701 14.8584C23.6894 14.8797 23.6714 14.8963 23.6425 14.9053C23.6128 14.9144 23.5714 14.9156 23.5145 14.9062C23.459 14.8971 23.389 14.878 23.3016 14.8457C23.2919 14.5105 23.2946 14.1748 23.2977 13.8389C23.3009 13.5004 23.305 13.1615 23.2987 12.8232C23.2979 12.781 23.2912 12.7436 23.2841 12.709C23.2769 12.6741 23.2696 12.6426 23.2645 12.6104C23.2546 12.5474 23.2557 12.483 23.3007 12.3955C23.3298 12.3386 23.3852 12.2939 23.4481 12.2715Z" fill="#FAFAFA" stroke="#FAFAFA" stroke-width="0.0226105"/>
<path d="M18.4862 14.8833C18.533 14.8705 18.6036 14.8817 18.663 14.9097C18.6925 14.9236 18.7187 14.9418 18.7372 14.9614C18.7554 14.981 18.7655 15.002 18.7655 15.0229V16.8628C18.6291 16.8759 18.5378 16.8793 18.4764 16.8696C18.4453 16.8647 18.4221 16.857 18.4052 16.8462C18.3885 16.8356 18.3774 16.8215 18.369 16.8042C18.3605 16.7865 18.355 16.7644 18.3514 16.7378C18.3479 16.7111 18.3456 16.6798 18.3436 16.644C18.3396 16.5728 18.3356 16.4834 18.3143 16.3745L18.3026 16.3765L18.327 16.3716L18.3055 16.3657L16.5614 15.8589L16.6356 15.7808L18.2997 15.3052L18.3085 15.3022V15.1714C18.3114 15.1294 18.3177 15.0873 18.33 15.0483C18.3545 14.9705 18.4016 14.9068 18.4862 14.8833Z" fill="#FAFAFA" stroke="#FAFAFA" stroke-width="0.0226105"/>
<path d="M21.5029 25.1763C21.5632 25.1865 21.6201 25.2267 21.6826 25.2944C21.7479 25.3651 21.7761 25.4437 21.7676 25.5171C21.759 25.5903 21.7136 25.6601 21.6289 25.7144V25.7153C21.5448 25.7693 21.462 25.7797 21.3906 25.7622C21.319 25.7447 21.2578 25.6986 21.2168 25.6392C21.1759 25.5798 21.1555 25.5069 21.165 25.436C21.1747 25.3653 21.2146 25.295 21.2949 25.2407C21.3771 25.1853 21.4431 25.1662 21.5029 25.1763Z" fill="#FAFAFA" stroke="#FAFAFA" stroke-width="0.0226105"/>
<path d="M19.1709 25.1851C19.212 25.1886 19.2482 25.1988 19.2744 25.2153C19.3395 25.2565 19.3777 25.3323 19.3857 25.4146C19.3938 25.4967 19.3715 25.5835 19.3193 25.646C19.2575 25.7196 19.1872 25.7544 19.1201 25.7603C19.053 25.766 18.9872 25.7438 18.9336 25.7026C18.8261 25.6201 18.7686 25.4628 18.8447 25.311C18.859 25.2827 18.8862 25.2579 18.9209 25.2378C18.9555 25.2178 18.9974 25.2029 19.041 25.1938C19.0848 25.1848 19.1299 25.1816 19.1709 25.1851Z" fill="#FAFAFA" stroke="#FAFAFA" stroke-width="0.0226105"/>
<path d="M23.856 25.1929C23.9271 25.2023 23.9942 25.2442 24.0405 25.3335C24.0871 25.4234 24.0944 25.5046 24.0757 25.5718C24.0568 25.6392 24.0112 25.6933 23.9536 25.728C23.8384 25.7974 23.6734 25.7889 23.563 25.6538C23.5032 25.5805 23.4912 25.5021 23.5103 25.4312C23.5295 25.3599 23.5802 25.2958 23.644 25.2515C23.708 25.207 23.7843 25.1834 23.856 25.1929Z" fill="#FAFAFA" stroke="#FAFAFA" stroke-width="0.0226105"/>
<path d="M23.0432 7.34082C31.4202 7.34082 38.133 13.7441 38.133 21.5492C38.133 29.3542 31.4202 35.7575 23.0432 35.7575C14.666 35.7575 7.95325 29.3542 7.95325 21.5492C7.95325 13.7441 14.666 7.34084 23.0432 7.34082Z" stroke="#FAFAFA" stroke-width="1.58273"/>
<path d="M22.9889 9.83398C29.873 9.83398 35.3958 15.104 35.3958 21.5357C35.3958 27.9673 29.873 33.2374 22.9889 33.2374C16.1049 33.2374 10.582 27.9673 10.582 21.5357C10.582 15.104 16.1049 9.83398 22.9889 9.83398Z" stroke="#FAFAFA" stroke-width="1.19836"/>
<path d="M20.9575 20.7642C20.9553 20.7792 20.9539 20.7935 20.9535 20.8206C20.9533 20.8358 20.9567 20.8501 20.9593 20.8597C20.9628 20.8733 20.9618 20.8894 20.9635 20.9109C20.9681 20.9659 20.9618 20.9846 20.96 20.9987C20.9587 21.0091 20.956 21.0176 20.955 21.028C20.9539 21.038 20.9496 21.0491 20.9471 21.0606C20.9448 21.0712 20.9432 21.0814 20.9403 21.0928C20.9376 21.1037 20.9346 21.1136 20.9317 21.1272C20.929 21.1402 20.9274 21.1501 20.9217 21.173C20.9067 21.2231 20.898 21.2454 20.8849 21.2696C20.8732 21.2916 20.8512 21.3334 20.8264 21.3786" stroke="#FAFAFA" stroke-width="0.0904419" stroke-linecap="round"/>
<path d="M26.9591 16.4956C26.9571 16.4936 26.951 16.4929 26.9471 16.4908C26.9453 16.4898 26.9442 16.4874 26.9438 16.4854C26.9433 16.4833 26.944 16.4812 26.9444 16.4832C26.9474 16.5002 26.9483 16.51 26.9512 16.5183C26.9548 16.5277 26.9571 16.5369 26.9612 16.5486C26.965 16.5591 26.9668 16.5699 26.9713 16.5799C26.975 16.588 26.9763 16.5981 26.9799 16.6071C26.9835 16.6166 26.9874 16.6277 26.9908 16.6363C26.9955 16.6481 27.0032 16.6566 27.0084 16.6649C27.0132 16.6726 27.019 16.6855 27.0251 16.6975C27.0297 16.7063 27.0342 16.7144 27.0376 16.7244C27.0405 16.7329 27.0432 16.7412 27.046 16.7495C27.0489 16.7584 27.0527 16.7694 27.0579 16.7784C27.0636 16.7884 27.0713 16.8011 27.0756 16.8097C27.0805 16.8203 27.0871 16.8293 27.0937 16.8386C27.1007 16.8483 27.1056 16.8582 27.112 16.8675C27.1188 16.8777 27.1319 16.8987 27.1409 16.9146C27.152 16.9344 27.1595 16.9414 27.1714 16.961C27.1861 16.9849 27.1979 17.002 27.204 17.0116C27.2257 17.0452 27.235 17.0543 27.2528 17.0751C27.2673 17.0925 27.2924 17.1238 27.3066 17.1413C27.3211 17.1589 27.3238 17.1616 27.3265 17.1644" stroke="#FAFAFA" stroke-width="0.0904419" stroke-linecap="round"/>
<path d="M28.7932 17.1235C28.7932 17.1312 28.795 17.1465 28.8018 17.158C28.8086 17.1698 28.8217 17.1781 28.8332 17.1867C28.8443 17.1951 28.8525 17.204 28.8615 17.2131C28.8708 17.2222 28.8821 17.2279 28.8936 17.238C28.9042 17.2473 28.9167 17.2538 28.9354 17.271C28.9476 17.2824 28.9599 17.2911 28.9714 17.2964C28.9843 17.3025 28.9972 17.3094 29.011 17.3127C29.0227 17.3156 29.0345 17.318 29.0485 17.3195C29.0548 17.3201 29.0652 17.3219 29.0781 17.3209C29.0935 17.3198 29.1034 17.3047 29.1145 17.2927C29.1217 17.2788 29.1294 17.2635 29.1423 17.2262C29.1466 17.2147 29.1523 17.2024 29.1581 17.1896" stroke="#FAFAFA" stroke-width="0.0904419" stroke-linecap="round"/>
</svg>
