<svg width="1440" height="1440" viewBox="0 0 1440 1440" fill="none" xmlns="http://www.w3.org/2000/svg">
<rect width="1440" height="1440" fill="url(#paint0_linear_672_3503)"/>
<g clip-path="url(#clip0_672_3503)">
<path d="M918.594 253.06C955.861 286.02 981.379 332.636 1017.81 364.526C1075.31 414.889 1142.41 446.105 1180.81 517.318C1200.36 553.588 1224.28 635.305 1168.09 650.864C1134.8 660.08 1113.7 632.669 1088.52 616.298C1070.89 604.842 1051.89 594.992 1033.07 585.696C1041.31 608.568 1045.77 631.123 1044.52 655.66C1042.22 700.552 1017.85 731.194 1034.5 778.821C1046.72 813.783 1058.82 832.136 1051.65 872.093C1046.07 903.21 1026.45 920.018 1044.3 952.621C1057.26 976.286 1068.27 990.893 1069.19 1019.99C1069.46 1028.61 1066.83 1036.82 1067.76 1045.2C1106.33 1063.14 1132.98 1100.81 1135.79 1143.61C1137.82 1174.23 1134.19 1207.01 1135.79 1237.85C1133.56 1251.27 1118.04 1256.86 1108.53 1246.53C1105.62 1243.38 1104.69 1238.26 1104.37 1234.04C1099.82 1176.82 1122.66 1111.7 1061.82 1076.83C1032.2 1064.09 1003.39 1049.22 973.811 1036.44C962.24 1031.44 952.196 1024.45 941.18 1035.05C909.243 1103.03 881.446 1173.39 851.174 1242.31C850.044 1244.41 848.598 1246.81 846.736 1248.33C834.571 1258.32 816.74 1245.44 822.248 1230.5L895.176 1059.45L779.454 1094.45C773.728 1097.21 769.429 1103.05 768.696 1109.38C765.209 1139.54 771.093 1176.39 768.735 1207.41C764.852 1258.76 690.735 1268.37 673.815 1218.56C664.603 1191.47 674.053 1139.07 670.764 1108.41C669.734 1098.73 662.265 1094.73 653.845 1092.03L545.235 1059.41C543.848 1060.88 555.973 1085.55 557.617 1089.36C578.42 1138.06 599.579 1186.79 619.233 1235.87C618.956 1241.1 616.657 1244.9 612.814 1248.31C605.483 1254.77 594.745 1251.8 589.752 1243.7L501.371 1038.14C492.911 1027.32 486.789 1028.1 475.199 1032.61C443.024 1045.12 411.522 1063.73 379.13 1076.36C317.435 1111 339.188 1182.06 334.889 1240.45L331.937 1246.55C330.491 1246.91 325.32 1251.46 324.904 1251.56C315.216 1253.7 304.913 1247.24 304.636 1236.9C306.835 1169.65 289.797 1101.23 352.879 1056.75C356.088 1054.5 372.077 1046.15 372.691 1045.18C374.474 1042.27 371.462 1034.3 371.225 1030.45C368.907 993.311 382.716 979.041 397.595 949.252C412.473 919.463 394.167 901.07 388.639 872.232C380.893 831.819 394.563 812.455 406.173 777.097C419.566 736.327 404.945 714.387 398.11 676.293C392.503 644.997 396.01 615.149 407.382 585.657C385.331 596.3 363.637 608.192 343.369 621.986C316.008 640.617 295.503 666.581 259.128 645.017C216.531 619.767 245.16 539.238 265.844 506.397C301.248 450.168 353.849 418.694 404.43 378.658C467.749 328.534 496.873 256.905 572.496 218.573C672.349 167.933 833.006 177.308 918.673 253.04L918.594 253.06ZM904.052 282.789C876.553 256.825 845.567 237.679 808.241 228.8C741.137 212.845 645.088 214.787 583.333 247.589C526.809 277.616 500.122 328.811 457.705 372.117C399.853 431.2 307.727 470.246 277.513 552.419C272.778 565.282 264.615 599.59 269.469 611.74C273.472 621.689 291.005 625.851 297.623 617.745C299.386 615.604 299.227 598.619 299.901 593.862C309.688 524.334 387.015 477.143 437.754 436.849C463.292 416.573 485.541 392.829 507.057 368.233C536.339 334.816 560.391 299.081 601.362 278.013C657.867 248.957 759.84 247.788 818.999 269.352C890.223 295.316 921.447 364.348 973.513 413.481C1027.14 464.101 1125.12 510.004 1139.18 589.284C1140.81 598.46 1140.99 607.795 1141.86 617.051C1151.25 626.664 1169.67 621.392 1171.75 607.954C1173.83 594.516 1167.65 565.738 1162.76 552.379C1133.28 471.93 1044.92 433.856 987.659 377.925C957.585 348.532 934.919 311.944 903.993 282.75L904.052 282.789ZM866.984 338.939C830.529 300.746 792.312 288.26 739.71 285.98C675.163 283.186 618.024 290.618 572.278 339.276C538.796 374.912 510.96 415.027 474.347 448.701C444.232 476.37 404.767 498.251 374.137 527.347C355.791 544.768 339.109 565.123 332.214 589.997L334.116 591.008C349.748 581.594 364.528 571.743 380.655 563.339C576.082 461.327 877.702 461.802 1070.77 569.384L1107.21 591.424C1103.78 569.424 1087.93 549.347 1072.63 533.729C1036.42 496.725 988.075 470.028 950.274 433.995C919.743 404.88 896.008 369.402 866.964 338.959L866.984 338.939ZM402.548 1013.33C401.993 1018.92 402.964 1025.26 402.548 1030.93C403.598 1031.11 404.45 1030.81 405.44 1030.49C439.497 1019.79 475.377 983.659 511.831 1005.8C514.764 1007.58 522.49 1014.91 524.511 1014.62C549.296 1002.43 585.255 1003.58 588.029 968.655C589.059 955.515 587.573 940.531 587.533 927.232C547.632 898.969 515.695 857.684 500.083 811.127C478.289 746.197 490.395 671.932 487.304 604.347C488.671 592.851 498.002 584.884 509.751 589.284C512.604 590.354 518.587 596.458 518.587 599.471V684.617L559.044 656.988C559.995 654.868 556.488 646.068 555.933 642.956C552.961 626.545 555.121 609.103 562.927 594.338C586.543 549.664 643.622 540.646 680.234 575.192L756.353 521.44L755.778 519.042C667.376 515.514 575.389 525.345 490.791 551.666C484.867 553.509 460.062 561.318 456.595 563.815C454.158 565.579 446.134 577.887 444.212 581.177C399.477 658.237 458.953 707.271 437.06 781.417C429.017 808.63 415.921 825.516 417.724 856.336C419.229 882.221 436.585 905.014 434.861 931.434C432.761 963.998 405.579 983.322 402.548 1013.27V1013.33ZM1037.8 1030.93V1014.28C1037.8 991.805 1011.61 965.92 1006.84 942.513C999.784 908.007 1021.46 885.808 1022.63 854.493C1023.9 820.383 1004.28 796.441 999.071 764.769C990.572 713.019 1022.21 672.289 1010.9 619.747C1007.89 605.774 994.356 571.287 982.35 563.637C975.633 559.336 950.472 551.923 941.576 549.248C909.203 539.595 872.848 531.707 839.405 526.831C831.857 525.721 812.976 522.431 806.675 524.294L698.244 599.431C696.144 602.603 699.967 609.302 700.74 613.226C713.241 677.363 644.454 726.338 588.643 691.118C586.285 689.632 579.074 682.714 577.211 682.873C562.095 691.891 548.266 702.931 533.367 712.246C531.643 713.316 529.464 713.197 527.74 714.228C523.62 716.705 518.052 720.174 517.577 724.97C516.428 736.327 520.45 765.046 522.827 776.918C551.376 919.7 722.038 984.789 839.366 898.473C879.663 868.823 916.217 812.97 919.882 762.113C923.765 708.163 920.358 653.896 922.022 599.669C924.617 584.21 950.254 583.873 952.235 602.285C955.702 634.691 948.867 672.21 953.246 705.071C951.106 723.345 953.127 741.857 951.284 760.21C944.568 827.003 907.202 888.762 852.858 927.172C853.709 950.659 845.19 980.607 867.459 996.522L915.88 1014.56C918.475 1014.91 924.36 1008.14 927.232 1006.31C943.062 996.185 958.674 996.284 975.732 1003.12C996.674 1011.53 1016.49 1023.58 1037.86 1030.87L1037.8 1030.93ZM598.014 598.579C560.45 636.514 613.289 693.596 653.131 663.687C702.88 626.327 640.729 555.451 598.014 598.579ZM820.96 946.239C819.93 945.248 801.722 953.731 798.632 954.821C744.723 974.126 687.288 972.342 634.072 951.947C631.041 950.778 622.304 945.645 619.867 946.239L618.797 948.162C624.364 985.919 605.265 1022.74 567.048 1031.86C566.334 1034.2 569.326 1034.46 571.05 1034.97C601.501 1044.15 634.924 1052.43 664.563 1063.22C679.165 1068.53 690.339 1074.73 697.372 1089.38C708.804 1113.16 698.699 1174.98 702.186 1204.43C704.148 1220.98 724.891 1226.21 734.916 1212.64C737.373 1209.31 737.927 1205.82 738.264 1201.72C740.681 1170.9 735.53 1136.27 738.264 1105.61C740.107 1084.86 756.115 1068.45 775.788 1063.24L873.304 1033.76C873.759 1031.29 872.927 1032.3 871.956 1031.78C868.687 1030.1 864.804 1029.48 861.535 1027.94C835.74 1015.85 822.565 995.055 820.96 966.733C820.584 959.955 821.317 953.018 821 946.239H820.96Z" fill="white"/>
<path d="M808.262 732.561C819.218 740.212 833.186 764.372 834.989 777.632C836.435 788.176 835.207 797.689 823.874 801.217C794.295 800.127 760.931 807.897 734.739 791.347L720.633 779.673L718.454 779.97C717.84 781.06 717.444 782.289 716.433 783.142C707.696 790.554 696.106 797.63 684.833 800.068C672.311 802.783 630.983 803.338 618.026 801.554C602.236 799.394 603.9 782.904 606.496 771.17C612.756 742.967 636.887 723.266 665.456 720.749C705.259 725.862 774.938 709.332 808.262 732.561ZM700.207 752.183H663.594C656.165 752.183 643.425 761.934 640.414 768.97L641.722 771.21H673.104C676.294 771.21 686.675 766.909 689.687 764.967C691.47 763.817 701.713 753.57 700.207 752.183ZM776.761 752.183C765.686 750.696 751.58 753.293 740.148 752.183C741.892 758.862 748.767 764.729 754.869 767.424C756.751 768.257 765.805 771.21 767.251 771.21H798.634L799.941 768.97C795.266 761.439 785.815 753.392 776.761 752.183Z" fill="white"/>
<path d="M684.756 820.918C705.935 817.688 734.445 822.484 756.357 821.097C773.732 824.981 772.722 849.677 754.772 851.956C733.256 854.691 706.054 850.489 683.983 851.639C666.866 847.952 667.103 823.614 684.756 820.918Z" fill="white"/>
<path d="M798.855 588.768C805.472 587.421 831.129 587.817 838.618 588.511C856.924 590.235 855.656 616.397 840.441 618.934C833.388 620.103 810.069 619.747 802.421 619.013C783.719 617.249 784.531 591.662 798.875 588.748L798.855 588.768Z" fill="white"/>
<path d="M817.892 638.219C824.886 637.188 834.059 642.698 835.188 649.972C835.842 654.233 835.802 671.199 834.792 675.143C831.027 690.028 807.312 688.403 804.856 673.637C804.261 670.05 804.301 651.577 805.232 648.426C806.639 643.689 813.058 638.913 817.872 638.199L817.892 638.219Z" fill="white"/>
<path d="M832.074 347.561C831.182 348.631 826.923 351.188 825.437 351.862L783.831 365.418C781.811 366.766 785.872 382.503 785.852 386.388C785.813 392.254 783.891 400.797 781.989 406.326C782.227 407.377 786.427 408.725 787.695 409.2C798.255 413.204 821.019 418 829.181 423.372C841.861 431.716 834.531 455.44 814.818 450.545C798.691 446.541 782.544 438.276 766.179 434.471C762.415 434.312 758.829 439.049 755.639 440.932C734.559 453.359 711.458 455.301 689.407 443.766C684.176 441.031 680.055 436.79 674.924 434.471L620.718 451.595C605.245 451.08 598.984 433.856 610.812 423.53C624.403 417.227 639.381 414.274 653.309 408.963C654.102 408.665 656.004 407.813 656.439 407.337C658.44 405.117 654.716 393.325 654.498 389.301C654.042 381.017 656.38 373.98 656.994 365.894C643.978 360.662 627.335 357.708 614.874 351.862C595.894 342.923 605.839 318.366 623.195 321.676L674.984 338.939C682.908 333.013 690.596 327.562 700.165 324.55C721.819 317.752 740.502 322.072 759.046 334.143C761.206 335.55 762.296 338.582 765.287 338.424L817.076 321.636C831.202 318.287 840.989 336.858 832.034 347.541L832.074 347.561ZM716.153 352.872C687.366 356.004 674.944 390.55 696.361 411.143C719.997 433.856 757.501 414.076 754.391 381.631C752.667 363.753 733.41 350.989 716.153 352.872Z" fill="white"/>
</g>
<defs>
<linearGradient id="paint0_linear_672_3503" x1="720" y1="0" x2="720" y2="1440" gradientUnits="userSpaceOnUse">
<stop stop-color="#EA8D46"/>
<stop offset="1" stop-color="#B35523"/>
</linearGradient>
<clipPath id="clip0_672_3503">
<rect width="966" height="1065" fill="white" transform="translate(237 187)"/>
</clipPath>
</defs>
</svg>
