<?xml version="1.0" encoding="UTF-8"?>
<svg id="Layer_2" data-name="Layer 2" xmlns="http://www.w3.org/2000/svg" viewBox="0 0 487.58 537.34">
  <g id="Layer_1-2" data-name="Layer 1">
    <g>
      <g>
        <path d="M344.03,33.33c18.81,16.63,31.69,40.15,50.08,56.24,29.02,25.41,62.89,41.16,82.27,77.09,9.87,18.3,21.94,59.53-6.42,67.38-16.8,4.65-27.45-9.18-40.16-17.44-8.9-5.78-18.49-10.75-27.99-15.44,4.16,11.54,6.41,22.92,5.78,35.3-1.16,22.65-13.46,38.11-5.06,62.14,6.17,17.64,12.28,26.9,8.66,47.06-2.82,15.7-12.72,24.18-3.71,40.63,6.54,11.94,12.1,19.31,12.56,33.99.14,4.35-1.19,8.49-.72,12.72,19.47,9.05,32.92,28.06,34.34,49.65,1.02,15.45-.81,31.99,0,47.55-1.13,6.77-8.96,9.59-13.76,4.38-1.47-1.59-1.94-4.17-2.1-6.3-2.3-28.87,9.23-61.73-21.48-79.32-14.95-6.43-29.49-13.93-44.42-20.38-5.84-2.52-10.91-6.05-16.47-.7-16.12,34.3-30.15,69.8-45.43,104.57-.57,1.06-1.3,2.27-2.24,3.04-6.14,5.04-15.14-1.46-12.36-9l36.81-86.3-58.41,17.66c-2.89,1.39-5.06,4.34-5.43,7.53-1.76,15.22,1.21,33.81.02,49.46-1.96,25.91-39.37,30.76-47.91,5.63-4.65-13.67.12-40.11-1.54-55.58-.52-4.88-4.29-6.9-8.54-8.26l-54.82-16.46c-.7.74,5.42,13.19,6.25,15.11,10.5,24.57,21.18,49.16,31.1,73.92-.14,2.64-1.3,4.56-3.24,6.28-3.7,3.26-9.12,1.76-11.64-2.33l-44.61-103.71c-4.27-5.46-7.36-5.07-13.21-2.79-16.24,6.31-32.14,15.7-48.49,22.07-31.14,17.48-20.16,53.33-22.33,82.79l-1.49,3.08c-.73.18-3.34,2.48-3.55,2.53-4.89,1.08-10.09-2.18-10.23-7.4,1.11-33.93-7.49-68.45,24.35-90.89,1.62-1.14,9.69-5.35,10-5.84.9-1.47-.62-5.49-.74-7.43-1.17-18.74,5.8-25.94,13.31-40.97s-1.73-24.31-4.52-38.86c-3.91-20.39,2.99-30.16,8.85-48,6.76-20.57-.62-31.64-4.07-50.86-2.83-15.79-1.06-30.85,4.68-45.73-11.13,5.37-22.08,11.37-32.31,18.33-13.81,9.4-24.16,22.5-42.52,11.62-21.5-12.74-7.05-53.37,3.39-69.94,17.87-28.37,44.42-44.25,69.95-64.45,31.96-25.29,46.66-61.43,84.83-80.77,50.4-25.55,131.49-20.82,174.73,17.39ZM336.69,48.33c-13.88-13.1-29.52-22.76-48.36-27.24-33.87-8.05-82.35-7.07-113.52,9.48-28.53,15.15-42,40.98-63.41,62.83-29.2,29.81-75.7,49.51-90.95,90.97-2.39,6.49-6.51,23.8-4.06,29.93,2.02,5.02,10.87,7.12,14.21,3.03.89-1.08.81-9.65,1.15-12.05,4.94-35.08,43.97-58.89,69.58-79.22,12.89-10.23,24.12-22.21,34.98-34.62,14.78-16.86,26.92-34.89,47.6-45.52,28.52-14.66,79.99-15.25,109.85-4.37,35.95,13.1,51.71,47.93,77.99,72.72,27.07,25.54,76.52,48.7,83.62,88.7.82,4.63.91,9.34,1.35,14.01,4.74,4.85,14.04,2.19,15.09-4.59s-2.07-21.3-4.54-28.04c-14.88-40.59-59.48-59.8-88.38-88.02-15.18-14.83-26.62-33.29-42.23-48.02ZM317.98,76.66c-18.4-19.27-37.69-25.57-64.24-26.72-32.58-1.41-61.42,2.34-84.51,26.89-16.9,17.98-30.95,38.22-49.43,55.21-15.2,13.96-35.12,25-50.58,39.68-9.26,8.79-17.68,19.06-21.16,31.61l.96.51c7.89-4.75,15.35-9.72,23.49-13.96,98.64-51.47,250.88-51.23,348.33,3.05l18.39,11.12c-1.73-11.1-9.73-21.23-17.45-29.11-18.28-18.67-42.68-32.14-61.76-50.32-15.41-14.69-27.39-32.59-42.05-47.95ZM83.56,416.92c-.28,2.82.21,6.02,0,8.88.53.09.96-.06,1.46-.22,17.19-5.4,35.3-23.63,53.7-12.46,1.48.9,5.38,4.6,6.4,4.45,12.51-6.15,30.66-5.57,32.06-23.19.52-6.63-.23-14.19-.25-20.9-20.14-14.26-36.26-35.09-44.14-58.58-11-32.76-4.89-70.23-6.45-104.33.69-5.8,5.4-9.82,11.33-7.6,1.44.54,4.46,3.62,4.46,5.14v42.96l20.42-13.94c.48-1.07-1.29-5.51-1.57-7.08-1.5-8.28-.41-17.08,3.53-24.53,11.92-22.54,40.73-27.09,59.21-9.66l38.42-27.12-.29-1.21c-44.62-1.78-91.05,3.18-133.75,16.46-2.99.93-15.51,4.87-17.26,6.13-1.23.89-5.28,7.1-6.25,8.76-22.58,38.88,7.44,63.62-3.61,101.03-4.06,13.73-10.67,22.25-9.76,37.8.76,13.06,9.52,24.56,8.65,37.89-1.06,16.43-14.78,26.18-16.31,41.29ZM404.2,425.8v-8.4c0-11.34-13.22-24.4-15.63-36.21-3.56-17.41,7.38-28.61,7.97-44.41.64-17.21-9.26-29.29-11.89-45.27-4.29-26.11,11.68-46.66,5.97-73.17-1.52-7.05-8.35-24.45-14.41-28.31-3.39-2.17-16.09-5.91-20.58-7.26-16.34-4.87-34.69-8.85-51.57-11.31-3.81-.56-13.34-2.22-16.52-1.28l-54.73,37.91c-1.06,1.6.87,4.98,1.26,6.96,6.31,32.36-28.41,57.07-56.58,39.3-1.19-.75-4.83-4.24-5.77-4.16-7.63,4.55-14.61,10.12-22.13,14.82-.87.54-1.97.48-2.84,1-2.08,1.25-4.89,3-5.13,5.42-.58,5.73,1.45,20.22,2.65,26.21,14.41,72.04,100.55,104.88,159.77,61.33,20.34-14.96,38.79-43.14,40.64-68.8,1.96-27.22.24-54.6,1.08-81.96,1.31-7.8,14.25-7.97,15.25,1.32,1.75,16.35-1.7,35.28.51,51.86-1.08,9.22-.06,18.56-.99,27.82-3.39,33.7-22.25,64.86-49.68,84.24.43,11.85-3.87,26.96,7.37,34.99l24.44,9.1c1.31.18,4.28-3.24,5.73-4.16,7.99-5.11,15.87-5.06,24.48-1.61,10.57,4.24,20.57,10.32,31.36,14ZM182.22,207.66c-18.96,19.14,7.71,47.94,27.82,32.85,25.11-18.85-6.26-54.61-27.82-32.85ZM294.75,383.07c-.52-.5-9.71,3.78-11.27,4.33-27.21,9.74-56.2,8.84-83.06-1.45-1.53-.59-5.94-3.18-7.17-2.88l-.54.97c2.81,19.05-6.83,37.63-26.12,42.23-.36,1.18,1.15,1.31,2.02,1.57,15.37,4.63,32.24,8.81,47.2,14.25,7.37,2.68,13.01,5.81,16.56,13.2,5.77,12,.67,43.19,2.43,58.05.99,8.35,11.46,10.99,16.52,4.14,1.24-1.68,1.52-3.44,1.69-5.51,1.22-15.55-1.38-33.02,0-48.49.93-10.47,9.01-18.75,18.94-21.38l49.22-14.87c.23-1.25-.19-.74-.68-1-1.65-.85-3.61-1.16-5.26-1.94-13.02-6.1-19.67-16.59-20.48-30.88-.19-3.42.18-6.92.02-10.34Z"/>
        <g>
          <path d="M288.34,275.26c5.53,3.86,12.58,16.05,13.49,22.74.73,5.32.11,10.12-5.61,11.9-14.93-.55-31.77,3.37-44.99-4.98l-7.12-5.89-1.1.15c-.31.55-.51,1.17-1.02,1.6-4.41,3.74-10.26,7.31-15.95,8.54-6.32,1.37-27.18,1.65-33.72.75-7.97-1.09-7.13-9.41-5.82-15.33,3.16-14.23,15.34-24.17,29.76-25.44,20.09,2.58,55.26-5.76,72.08,5.96ZM233.8,285.16h-18.48c-3.75,0-10.18,4.92-11.7,8.47l.66,1.13h15.84c1.61,0,6.85-2.17,8.37-3.15.9-.58,6.07-5.75,5.31-6.45ZM272.44,285.16c-5.59-.75-12.71.56-18.48,0,.88,3.37,4.35,6.33,7.43,7.69.95.42,5.52,1.91,6.25,1.91h15.84l.66-1.13c-2.36-3.8-7.13-7.86-11.7-8.47Z"/>
          <path d="M226,319.84c10.69-1.63,25.08.79,36.14.09,8.77,1.96,8.26,14.42-.8,15.57-10.86,1.38-24.59-.74-35.73-.16-8.64-1.86-8.52-14.14.39-15.5Z"/>
          <g>
            <path d="M283.59,202.71c3.34-.68,16.29-.48,20.07-.13,9.24.87,8.6,14.07.92,15.35-3.56.59-15.33.41-19.19.04-9.44-.89-9.03-13.8-1.79-15.27Z"/>
            <path d="M293.2,227.66c3.53-.52,8.16,2.26,8.73,5.93.33,2.15.31,10.71-.2,12.7-1.9,7.51-13.87,6.69-15.11-.76-.3-1.81-.28-11.13.19-12.72.71-2.39,3.95-4.8,6.38-5.16Z"/>
          </g>
        </g>
      </g>
      <path d="M300.36,81.01c-.45.54-2.6,1.83-3.35,2.17l-21,6.84c-1.02.68,1.03,8.62,1.02,10.58-.02,2.96-.99,7.27-1.95,10.06.12.53,2.24,1.21,2.88,1.45,5.33,2.02,16.82,4.44,20.94,7.15,6.4,4.21,2.7,16.18-7.25,13.71-8.14-2.02-16.29-6.19-24.55-8.11-1.9-.08-3.71,2.31-5.32,3.26-10.64,6.27-22.3,7.25-33.43,1.43-2.64-1.38-4.72-3.52-7.31-4.69l-27.36,8.64c-7.81-.26-10.97-8.95-5-14.16,6.86-3.18,14.42-4.67,21.45-7.35.4-.15,1.36-.58,1.58-.82,1.01-1.12-.87-7.07-.98-9.1-.23-4.18.95-7.73,1.26-11.81-6.57-2.64-14.97-4.13-21.26-7.08-9.58-4.51-4.56-16.9,4.2-15.23l26.14,8.71c4-2.99,7.88-5.74,12.71-7.26,10.93-3.43,20.36-1.25,29.72,4.84,1.09.71,1.64,2.24,3.15,2.16l26.14-8.47c7.13-1.69,12.07,7.68,7.55,13.07ZM241.85,83.69c-14.53,1.58-20.8,19.01-9.99,29.4,11.93,11.46,30.86,1.48,29.29-14.89-.87-9.02-10.59-15.46-19.3-14.51Z"/>
    </g>
  </g>
</svg>