<svg width="1024" height="1024" viewBox="0 0 1024 1024" fill="none" xmlns="http://www.w3.org/2000/svg">
<rect width="1024" height="1024" fill="#161616"/>
<path fill-rule="evenodd" clip-rule="evenodd" d="M494.077 185.856C508.2 185.635 525.693 184.094 538.109 186.88L553.469 187.904L583.165 193.024C600.466 197.92 617.654 201.728 633.341 208.384C717.878 244.245 776.998 302.625 813.565 386.56C820.897 403.385 826.063 422.042 831.485 441.344C834.967 453.75 834.68 467.282 837.629 480.256C837.798 484.864 837.969 489.472 838.141 494.08C839.601 500.9 839.657 523.643 838.141 530.432V538.112L835.069 564.224C828.782 589.845 824.614 613.955 815.101 635.904C784.934 705.506 739.126 756.67 677.373 794.624C660.216 805.172 640.576 812.718 621.053 820.736C601.505 828.765 579.494 830.71 557.053 836.096C548.18 836.951 539.306 837.805 530.429 838.656H516.605C506.524 838.656 495.015 839.563 486.397 837.632H480.253C471.549 836.439 462.845 835.245 454.141 834.048C443.731 831.657 433.32 829.268 422.909 826.88C409.174 822.39 395.442 817.49 382.973 812.032C301.782 776.505 244.673 717.323 209.405 635.904C204.055 623.555 201.504 611.067 197.117 597.504C189.144 572.852 185.862 544.297 185.853 512C185.85 499.255 185.456 486.328 187.901 475.648C188.072 472.918 188.243 470.187 188.413 467.456C193.822 445.033 195.735 423.005 203.773 403.456C211.812 383.908 219.345 364.327 229.885 347.136C266.822 286.897 317.267 240.325 385.021 210.944C406.337 201.701 429.463 196.797 454.141 190.464L480.253 186.88C484.455 185.932 490.801 187.917 494.077 185.856ZM503.293 219.136C500.767 220.611 495.883 218.889 492.541 219.648L468.989 222.208C447.418 227.437 426.774 230.318 408.061 238.08C324.266 272.839 271.105 328.095 236.541 412.16C229.373 429.597 227.085 449.102 222.205 468.992C221.693 474.795 221.181 480.598 220.669 486.4C218.932 494.367 217.726 512.174 219.645 520.704C221.432 528.64 218.929 536.244 220.669 543.744C223.969 557.963 224.947 572.944 228.861 585.728C233.333 600.336 236.449 613.571 242.173 626.688C271.507 693.904 323.085 748.785 390.141 778.24C407.719 785.961 426.596 792.438 446.973 798.208C457.935 801.311 468.854 800.656 480.765 803.328C484.047 804.066 489.154 804.091 492.541 804.864H503.293C507.395 805.745 516.319 806.482 521.213 805.376C528.264 803.779 536.502 805.52 543.741 803.84C562.209 799.555 580.283 798.664 596.989 793.088C684.505 763.869 746.913 707.851 782.333 626.688C790.679 607.565 795.057 586.829 800.765 564.736C801.958 556.032 803.153 547.328 804.349 538.624V531.968C805.788 525.317 806.408 510.667 804.861 503.808C804.692 497.835 804.522 491.862 804.349 485.888C802.813 475.307 801.277 464.726 799.741 454.144C794.734 435.712 790.157 417.913 783.357 401.92C751.89 327.923 699.978 274.163 626.685 242.176C605.965 233.133 583.391 228.664 559.101 222.72L547.837 221.696C534.766 218.685 518.756 219.176 503.293 219.136ZM495.613 254.976C510.194 254.725 527.286 253.663 539.645 256.512L548.349 257.024C568.737 261.888 588.086 264.57 605.693 271.872C674.547 300.425 722.153 347.175 751.613 415.232C758.075 430.166 762.452 446.95 766.973 464.384C768.166 473.088 769.361 481.792 770.557 490.496C772.165 497.53 772.119 522.998 770.557 529.92C768.694 538.174 770.414 545.726 768.509 553.472C763.584 573.497 760.619 592.553 753.149 609.792C722.568 680.366 673.349 727.24 601.597 756.736C588.127 762.271 572.987 764.652 558.077 768.512L535.037 771.584C528.008 773.192 502.506 773.141 495.613 771.584H487.933L464.893 768.512C445.259 763.413 426.752 758.892 410.109 751.616C346.961 724.004 299.896 678.974 272.381 615.936C267.349 604.406 264.732 592.876 260.605 580.096C254.907 562.448 251.907 541.548 251.901 518.656C251.901 509.236 251.115 498.443 252.925 490.496C254.288 484.516 253.056 479.311 254.461 473.6C258.731 456.249 260.972 439.226 267.261 423.936C296.223 353.525 342.935 303.954 412.157 273.92C428.371 266.886 446.367 263.338 464.893 258.56L488.445 255.488C490.825 254.949 493.94 256.025 495.613 254.976ZM510.973 279.04C508.642 281.378 505.832 282.464 504.317 285.696C501.063 292.64 503.731 305.519 503.805 313.856C505.474 314.975 505.512 316.678 506.877 317.952C507.967 318.97 509.914 318.985 510.973 320C514.245 319.371 520.031 317.476 521.213 314.88V284.672C517.855 282.438 516.16 279.744 510.973 279.04ZM357.373 353.792C355.245 356.997 352.488 358.247 352.253 363.52C353.18 364.792 353.886 367.043 354.301 368.64C355.804 369.298 357.789 370.101 358.909 371.2C363.523 369.747 368.912 368.221 369.149 362.496L367.613 357.888L363.517 354.304L357.373 353.792ZM663.037 353.792C658.9 359.787 653.273 368.862 665.085 371.712C674.44 373.97 672.868 362.059 672.253 356.352C671.347 355.86 671.393 355.709 670.205 355.328C668.541 353.979 666.125 353.754 663.037 353.792ZM615.421 379.904C607.946 389.069 591.455 390.483 581.117 396.8C554.283 413.197 523.451 426.476 496.637 442.88C486.999 448.776 474.204 450.498 464.893 456.704C454.7 463.499 451.256 485.943 445.949 498.176C435.883 521.38 426.448 545.68 416.253 568.832C408.877 585.585 394.391 605.835 394.237 628.736C397.866 631.296 399.874 635.249 404.989 636.416C409.517 637.451 418.234 630.892 421.373 629.248C435.733 621.722 450.199 614.149 464.381 606.72C490.713 592.922 518.121 579.984 543.229 565.248C550.961 560.712 562.189 560.517 567.293 553.472C574.016 544.185 575.419 531.042 580.093 519.68C587.886 500.736 595.479 481.597 603.645 462.336C608.765 450.261 613.604 437.777 619.005 425.472C621.442 419.915 625.293 414.26 627.709 408.576C629.02 405.493 634.027 390.279 631.805 386.56C631.205 384.924 630.136 383.499 628.733 382.464C625.974 380.3 620.116 379.892 615.421 379.904ZM718.333 504.32C717.151 505.109 714.181 504.893 712.189 504.832C711.073 506.504 709.056 508.09 707.581 509.44C707.474 512.715 707.819 515.988 708.605 519.168C718.333 524.811 728.865 522.338 742.397 522.24C745.239 518.277 747.671 519.22 747.517 511.488C745.587 509.92 744.732 507.038 742.397 505.856C736.868 503.055 726.111 504.274 718.333 504.32ZM284.157 504.832C281.965 507.934 278.445 507.967 278.013 513.024C279.713 515.764 279.153 519.747 282.109 521.216C288.396 525.435 316.557 522.834 318.461 517.632C320.788 514.842 318.434 508.063 315.901 506.88C310.899 503.638 292.475 504.799 284.157 504.832ZM358.397 656.384C356.575 658.345 354.695 660.66 352.765 662.528C352.458 666.256 352.663 669.717 354.813 672.256C355.539 672.748 356.489 672.758 357.885 672.768C359.861 674.089 362.896 672.61 365.053 672.256C365.815 671.212 367.589 670.198 368.125 669.184C370.147 665.36 367.589 659.088 365.053 657.92C363.486 656.651 361.278 656.369 358.397 656.384ZM664.061 656.384C660.82 659.574 657.262 659.216 657.405 666.112C659.141 668.713 659.049 672.405 662.525 673.28C667.077 676.127 674.245 669.886 674.813 666.112C672.791 662.907 673.042 658.76 669.181 657.408C667.963 656.43 666.37 656.354 664.061 656.384ZM509.437 707.072C508.082 709.151 506.233 711.757 505.341 714.24C503.01 720.733 502.606 742.237 507.901 744.96C511.434 747.613 518.858 745.216 520.189 742.4C524.444 736.072 520.86 713.913 518.653 708.608C516.226 707.723 512.499 707.282 509.437 707.072Z" fill="white"/>
</svg>
