<svg width="26" height="26" viewBox="0 0 26 26" fill="none" xmlns="http://www.w3.org/2000/svg">
<path d="M18.9475 10.4001L6.06671 18.1676C5.30837 18.6226 4.33337 18.0809 4.33337 17.1926V8.52594C4.33337 4.74511 8.41754 2.38344 11.7 4.26844L16.6725 7.12844L18.9367 8.42844C19.6842 8.87261 19.695 9.95594 18.9475 10.4001Z" fill="#FAFAFA"/>
<path d="M19.5975 16.7483L15.21 19.2833L10.8333 21.8074C9.26246 22.7066 7.48579 22.5224 6.19662 21.6124C5.56829 21.1791 5.64412 20.2149 6.30496 19.8249L20.0741 11.5699C20.7241 11.1799 21.58 11.5483 21.6991 12.2958C21.97 13.9749 21.2766 15.7841 19.5975 16.7483Z" fill="#414141"/>
</svg>
