<svg width="1024" height="1024" viewBox="0 0 1024 1024" fill="none" xmlns="http://www.w3.org/2000/svg">
<rect width="1024" height="1024" fill="#161616"/>
<path fill-rule="evenodd" clip-rule="evenodd" d="M370.685 513.536H465.405V320H397.309V321.024C399.818 323.553 398.743 327.666 399.869 331.776C400.879 335.455 401.953 340.173 402.941 344.064C403.994 348.211 403.552 352.985 404.477 356.864C404.648 361.301 404.818 365.739 404.989 370.176C409.773 390.936 404.221 418.615 399.357 435.2C397.656 441.001 397.997 446.259 396.285 452.096C393.204 462.596 390.649 472.534 386.557 481.792C385.226 484.803 382.973 488.09 381.437 491.008C378.911 495.816 377.302 500.531 374.781 505.344C373.45 507.888 371.26 510.339 370.685 513.536Z" fill="url(#paint0_linear_615_503)"/>
<path fill-rule="evenodd" clip-rule="evenodd" d="M465.405 513.536H370.685C371.26 510.339 373.45 507.888 374.781 505.344C377.302 500.531 378.911 495.816 381.437 491.008C382.973 488.09 385.226 484.803 386.557 481.792C390.649 472.534 393.204 462.596 396.285 452.096C397.997 446.259 397.656 441.001 399.357 435.2C404.221 418.615 409.773 390.936 404.989 370.176L404.477 356.864C403.552 352.985 403.994 348.211 402.941 344.064C401.953 340.173 400.879 335.455 399.869 331.776C398.743 327.666 399.818 323.553 397.309 321.024V320H465.405V513.536Z" fill="url(#paint1_linear_615_503)"/>
<path fill-rule="evenodd" clip-rule="evenodd" d="M465.405 513.536H370.685C371.26 510.339 373.45 507.888 374.781 505.344C377.302 500.531 378.911 495.816 381.437 491.008C382.973 488.09 385.226 484.803 386.557 481.792C390.649 472.534 393.204 462.596 396.285 452.096C397.997 446.259 397.656 441.001 399.357 435.2C404.221 418.615 409.773 390.936 404.989 370.176L404.477 356.864C403.552 352.985 403.994 348.211 402.941 344.064C401.953 340.173 400.879 335.455 399.869 331.776C398.743 327.666 399.818 323.553 397.309 321.024V320H465.405V513.536Z" fill="url(#paint2_linear_615_503)"/>
<path fill-rule="evenodd" clip-rule="evenodd" d="M465.405 513.536H370.685C371.26 510.339 373.45 507.888 374.781 505.344C377.302 500.531 378.911 495.816 381.437 491.008C382.973 488.09 385.226 484.803 386.557 481.792C390.649 472.534 393.204 462.596 396.285 452.096C397.997 446.259 397.656 441.001 399.357 435.2C404.221 418.615 409.773 390.936 404.989 370.176L404.477 356.864C403.552 352.985 403.994 348.211 402.941 344.064C401.953 340.173 400.879 335.455 399.869 331.776C398.743 327.666 399.818 323.553 397.309 321.024V320H465.405V513.536Z" fill="url(#paint3_linear_615_503)"/>
<path fill-rule="evenodd" clip-rule="evenodd" d="M465.405 513.536H370.685C371.26 510.339 373.45 507.888 374.781 505.344C377.302 500.531 378.911 495.816 381.437 491.008C382.973 488.09 385.226 484.803 386.557 481.792C390.649 472.534 393.204 462.596 396.285 452.096C397.997 446.259 397.656 441.001 399.357 435.2C404.221 418.615 409.773 390.936 404.989 370.176L404.477 356.864C403.552 352.985 403.994 348.211 402.941 344.064C401.953 340.173 400.879 335.455 399.869 331.776C398.743 327.666 399.818 323.553 397.309 321.024V320H465.405V513.536Z" fill="url(#paint4_linear_615_503)"/>
<path fill-rule="evenodd" clip-rule="evenodd" d="M492.029 588.8V627.712H493.053C497.559 624.154 506.877 627.84 513.533 626.176C525.76 623.125 539.824 623.166 551.933 620.032L565.757 618.496C577.994 615.004 592.391 612.91 604.669 609.28C608.489 608.154 611.253 608.466 614.909 607.232C636.403 599.977 658.204 592.702 678.397 584.192C684.725 581.525 690.598 580.265 696.829 577.536C705.697 573.655 715.22 569.088 723.965 565.248C728.148 563.415 731.932 562.949 736.253 561.152C742.802 558.428 750.482 555.848 758.781 557.568C762.636 563.564 766 562.719 765.949 573.44C764.152 576.144 764.137 582.421 762.877 585.728C759.989 593.301 756.928 600.407 753.661 607.744C751.7 612.147 748.449 616.648 746.493 621.056C740.856 633.733 738.55 649.497 733 662L713 737.5C710 746.5 709.342 771.584 679.421 771.584C649.5 771.584 655.5 753 622.5 753C589.5 753 591 773.12 567 773.12C543 773.12 531.965 759.808 531.965 759.808C526.24 755.765 519.818 752.814 513.021 751.104C501.859 748.206 487.667 760.274 481.789 763.904C473.068 769.296 464 773.12 450.557 773.12C439.672 772.51 435.314 770.625 431.78 769.096L431.613 769.024C417.964 763.131 408 751.104 392.701 751.104C377.402 751.104 369.661 759.296 369.661 759.296C360.769 764.918 347.51 777.017 331.261 771.584C328.53 770.391 325.8 769.197 323.069 768C313.734 762.179 307.979 752.748 302.077 743.424C296.693 734.92 290.481 725.939 286.205 716.288C277.284 696.151 271.023 674.002 263.677 652.288C263.336 650.071 262.994 647.853 262.653 645.632C258.911 632.781 254.581 605.604 267.773 600.064C275.863 596.664 294.526 599.04 305.149 599.04H417.789C421.731 599.04 427.531 598.262 430.589 599.552C439.157 603.167 440.805 614.436 445.949 621.568C449.614 626.652 456.526 627.743 465.405 627.712V540.672H464.381C459.581 537.006 439.134 539.648 431.613 539.648H366.589C356.802 539.648 343.139 541.077 335.869 538.112C333.346 533.704 330.411 530.816 330.237 523.776C332.139 522.317 332.919 520.12 334.333 518.144C335.932 515.907 338.378 513.746 339.965 511.488C342.405 508.015 343.815 504.402 346.109 500.736C357.2 483.011 365.45 462.497 372.733 440.832C376.656 429.164 376.27 413.381 379.389 401.408V380.416C379.392 363.874 378.797 348.038 374.781 335.36C373.885 332.53 374.273 330.41 373.245 327.68C370.348 319.986 363.475 307.602 369.661 298.496C373.835 292.352 385.973 293.376 396.285 293.376H464.893C465.081 290.844 463.818 286.656 464.381 284.16C465.285 280.144 465.405 274.976 465.405 270.336V257.536C466.311 253.761 465.917 247.824 465.917 243.2C465.917 231.582 466.063 220.096 463.869 210.944C461.997 203.134 466.477 189.883 471.037 188.416C474.306 185.04 483.982 187.466 487.421 188.928C488.718 191.617 491.159 193.619 492.029 196.608C492.998 199.933 491.997 205.047 492.541 207.872C535.334 226.007 576.396 245.155 613.885 268.288C617.157 270.307 620.848 270.883 624.125 272.896C629.947 276.475 636.515 279.946 642.045 283.648C644.411 285.235 651.235 289.575 652.285 291.84V299.008C651.174 300.399 651.256 302.624 650.237 304.128C648.614 306.525 644.917 307.534 642.557 309.248L641.021 311.296L640.768 311.483C637.992 313.526 635.244 315.548 632.829 317.952C631.974 318.976 631.124 320 630.269 321.024C627.643 322.977 619.384 327.84 619.005 331.264C622.456 332.54 624.233 337.055 626.173 339.968C628.846 343.979 632.005 348.452 634.365 352.768C636.92 357.44 638.267 362.118 641.021 366.592C653.333 386.478 664.281 407.176 673.789 428.544C679.954 442.515 684.731 457.141 690.685 471.04C695.141 481.482 698.737 492.269 701.437 503.296C702.282 506.669 702.297 516.639 700.925 519.168C697.52 525.44 689.656 526.695 682.493 529.408C676.436 531.702 670.267 534.605 664.573 537.088L655.357 540.16C647.518 543.591 639.096 547.579 630.781 550.4C625.871 552.064 621.171 552.028 616.445 553.984C602.534 559.734 587.333 564.844 572.413 569.856C571.046 570.025 569.684 570.199 568.317 570.368C563.207 572.083 557.191 573.84 551.933 575.488C548.989 576.41 546.685 576.097 543.741 577.024C537.152 579.098 529.472 580.695 522.749 582.656C520.041 583.445 518.284 582.887 515.581 583.68C508.508 585.764 500.187 588.37 492.029 588.8ZM465.405 513.536H370.685C371.26 510.339 373.45 507.888 374.781 505.344C377.302 500.531 378.911 495.816 381.437 491.008C382.973 488.09 385.226 484.803 386.557 481.792C390.649 472.534 393.204 462.596 396.285 452.096C397.997 446.259 397.656 441.001 399.357 435.2C404.221 418.615 409.773 390.936 404.989 370.176L404.477 356.864C403.552 352.985 403.994 348.211 402.941 344.064C401.953 340.173 400.879 335.455 399.869 331.776C398.743 327.666 399.818 323.553 397.309 321.024V320H465.405V513.536Z" fill="url(#paint5_linear_615_503)"/>
<path d="M502.781 788.992C523.773 788.992 542.323 805.361 565.245 811.008C573.038 812.928 582.167 804.496 586.237 801.792C596.124 795.223 607.132 792.356 620.541 788.992C626.47 787.507 634.15 790.113 637.949 791.552C644.011 793.851 649.177 795.536 654.333 798.72C660.288 802.396 666.283 806.835 673.277 809.472C676.062 810.522 681.915 810.865 685.565 809.984C686.968 809.646 690.496 808.592 692.221 808.96C700.731 810.788 705.164 814.613 705.021 825.344C704.878 836.076 694.781 836.608 694.781 836.608C684.731 840.479 668.316 836.915 660.477 833.536C650.36 829.179 642.849 822.221 632.317 818.176C629.609 817.137 624.443 814.981 620.029 816.128C605.995 819.774 596.984 827.408 585.213 833.536C581.138 835.656 571.205 840.023 563.709 838.144C554.268 835.774 544.007 834.53 536.573 829.952C529.799 825.785 515.458 812.688 502.269 816.128C485.94 820.388 476.264 829.435 461.309 835.072C455.979 837.079 446.864 839.716 439.293 837.632C422.785 833.091 413.943 823.542 399.869 817.664C395.323 815.765 386.001 815.237 380.925 817.152C373.091 820.106 367.485 825.856 360.957 829.952C355.069 833.649 346.672 835.641 339.453 837.632C327.011 841.063 312.331 834.816 309.757 826.368C308.59 822.538 310.544 818.745 310.781 815.616C313.52 813.947 315.756 810.404 318.973 809.472C319.997 809.641 321.021 809.815 322.045 809.984C326.671 810.363 339.043 811.08 342.013 809.984C350.139 806.979 355.647 800.425 362.493 796.16C365.224 794.588 368.151 793.383 371.197 792.576C373.245 792.407 375.293 792.237 377.341 792.064C380.962 791.056 386.727 788.598 392.701 790.016C398.727 791.45 404.814 791.875 410.109 794.112C418.951 797.845 426.083 803.041 435.197 806.912C440.05 808.976 441 810.5 450.557 810.5C462.057 810.5 468.25 804.292 472 801.792C475.75 799.292 481.789 788.992 502.781 788.992Z" fill="url(#paint6_linear_615_503)"/>
<defs>
<linearGradient id="paint0_linear_615_503" x1="512.405" y1="186.709" x2="512.405" y2="838.603" gradientUnits="userSpaceOnUse">
<stop stop-color="#EA8D46"/>
<stop offset="1" stop-color="#B35523"/>
</linearGradient>
<linearGradient id="paint1_linear_615_503" x1="512.405" y1="186.709" x2="512.405" y2="838.603" gradientUnits="userSpaceOnUse">
<stop stop-color="#EA8D46"/>
<stop offset="1" stop-color="#B35523"/>
</linearGradient>
<linearGradient id="paint2_linear_615_503" x1="512.405" y1="186.709" x2="512.405" y2="838.603" gradientUnits="userSpaceOnUse">
<stop stop-color="#EA8D46"/>
<stop offset="1" stop-color="#B35523"/>
</linearGradient>
<linearGradient id="paint3_linear_615_503" x1="512.405" y1="186.709" x2="512.405" y2="838.603" gradientUnits="userSpaceOnUse">
<stop stop-color="#EA8D46"/>
<stop offset="1" stop-color="#B35523"/>
</linearGradient>
<linearGradient id="paint4_linear_615_503" x1="512.405" y1="186.709" x2="512.405" y2="838.603" gradientUnits="userSpaceOnUse">
<stop stop-color="#EA8D46"/>
<stop offset="1" stop-color="#B35523"/>
</linearGradient>
<linearGradient id="paint5_linear_615_503" x1="512.405" y1="186.709" x2="512.405" y2="838.603" gradientUnits="userSpaceOnUse">
<stop stop-color="#EA8D46"/>
<stop offset="1" stop-color="#B35523"/>
</linearGradient>
<linearGradient id="paint6_linear_615_503" x1="512.405" y1="186.709" x2="512.405" y2="838.603" gradientUnits="userSpaceOnUse">
<stop stop-color="#EA8D46"/>
<stop offset="1" stop-color="#B35523"/>
</linearGradient>
</defs>
</svg>
