<svg width="26" height="26" viewBox="0 0 26 26" fill="none" xmlns="http://www.w3.org/2000/svg">
<path d="M18.0375 6.19678H7.96246C4.76663 6.19678 2.16663 8.79678 2.16663 11.9926V18.0376C2.16663 21.2334 4.76663 23.8334 7.96246 23.8334H18.0375C21.2333 23.8334 23.8333 21.2334 23.8333 18.0376V11.9926C23.8333 8.79678 21.2333 6.19678 18.0375 6.19678ZM15.7083 13.0218C15.7083 12.4259 16.1958 11.9384 16.7916 11.9384C17.3875 11.9384 17.875 12.4259 17.875 13.0218C17.875 13.6176 17.3875 14.1159 16.7916 14.1159C16.1958 14.1159 15.7083 13.6393 15.7083 13.0434V13.0218ZM10.9741 17.4093C10.8116 17.5718 10.6058 17.6476 10.4 17.6476C10.1941 17.6476 9.98829 17.5718 9.82579 17.4093L8.70996 16.2934L7.63746 17.3659C7.47496 17.5284 7.26913 17.6043 7.06329 17.6043C6.85746 17.6043 6.65163 17.5284 6.48913 17.3659C6.17496 17.0518 6.17496 16.5318 6.48913 16.2176L7.56163 15.1451L6.52163 14.1051C6.20746 13.7909 6.20746 13.2709 6.52163 12.9568C6.83579 12.6426 7.35579 12.6426 7.66996 12.9568L8.70996 13.9968L9.78246 12.9243C10.0966 12.6101 10.6166 12.6101 10.9308 12.9243C11.245 13.2384 11.245 13.7584 10.9308 14.0726L9.85829 15.1451L10.9741 16.2609C11.2883 16.5751 11.2883 17.0951 10.9741 17.4093ZM14.6683 16.2501C14.0725 16.2501 13.5741 15.7626 13.5741 15.1668C13.5741 14.5709 14.0508 14.0834 14.6466 14.0834H14.6683C15.2641 14.0834 15.7516 14.5709 15.7516 15.1668C15.7516 15.7626 15.275 16.2501 14.6683 16.2501ZM16.7916 18.3843C16.1958 18.3843 15.7083 17.9076 15.7083 17.3118V17.2901C15.7083 16.6943 16.1958 16.2068 16.7916 16.2068C17.3875 16.2068 17.875 16.6943 17.875 17.2901C17.875 17.8859 17.3983 18.3843 16.7916 18.3843ZM18.9366 16.2501C18.3408 16.2501 17.8425 15.7626 17.8425 15.1668C17.8425 14.5709 18.3191 14.0834 18.915 14.0834H18.9366C19.5325 14.0834 20.02 14.5709 20.02 15.1668C20.02 15.7626 19.5433 16.2501 18.9366 16.2501Z" fill="#FAFAFA"/>
<path d="M14.7767 2.93591L14.7659 3.95425C14.7551 4.90758 13.9642 5.69842 13.0001 5.69842C12.8376 5.69842 12.7401 5.80675 12.7401 5.94758C12.7401 6.08841 12.8484 6.19675 12.9892 6.19675H11.2451C11.2342 6.12091 11.2234 6.03425 11.2234 5.94758C11.2234 4.97258 12.0142 4.18175 12.9784 4.18175C13.1409 4.18175 13.2492 4.07341 13.2492 3.93258L13.2601 2.91425C13.2709 2.50258 13.6067 2.16675 14.0184 2.16675H14.0292C14.4517 2.16675 14.7767 2.51341 14.7767 2.93591Z" fill="#414141"/>
</svg>
