<svg width="26" height="26" viewBox="0 0 26 26" fill="none" xmlns="http://www.w3.org/2000/svg">
<path d="M8.26584 3.86749C8.46017 3.76149 8.66667 3.92456 8.66667 4.14592V18.8628C8.66667 19.0861 8.51475 19.2754 8.31563 19.3763C8.29881 19.3848 8.28222 19.3936 8.26584 19.4025L5.72 20.8542C3.94334 21.8725 2.48083 21.0275 2.48083 18.9692V8.42832C2.48083 7.74582 2.96833 6.90082 3.575 6.55415L8.26584 3.86749Z" fill="#414141"/>
<path d="M15.9719 6.6223C16.1422 6.70665 16.25 6.88029 16.25 7.07036V21.4118C16.25 21.7803 15.865 22.0222 15.533 21.8622L10.8455 19.6039C10.6725 19.5205 10.5625 19.3454 10.5625 19.1534V4.74893C10.5625 4.37808 10.9521 4.13629 11.2844 4.30087L15.9719 6.6223Z" fill="#FAFAFA"/>
<path d="M23.8334 7.03082V17.5717C23.8334 18.2542 23.3459 19.0992 22.7392 19.4458L18.8945 21.6493C18.5612 21.8403 18.1459 21.5997 18.1459 21.2155V6.83364C18.1459 6.65413 18.2421 6.48839 18.398 6.3994L20.5942 5.14582C22.3709 4.12749 23.8334 4.97249 23.8334 7.03082Z" fill="#414141"/>
</svg>
