<svg width="1024" height="1024" viewBox="0 0 1024 1024" fill="none" xmlns="http://www.w3.org/2000/svg">
<rect width="1024" height="1024" fill="#161616"/>
<path fill-rule="evenodd" clip-rule="evenodd" d="M296.327 188.221H619.776C656.644 188.221 729.928 182.398 752.141 196.182C789.115 219.123 781.003 270.269 781.003 328.523V665.843C781.003 703.555 787.038 781.485 773.041 804.154C765.156 816.925 751.677 826.868 736.218 832.016C724.256 835.996 706.232 834.006 691.432 834.006H602.857C586.237 834.006 565.437 836.148 553.096 831.021C549.812 829.658 534.983 818.716 534.187 820.075C526.191 824.2 520.24 830.492 510.301 833.011C495.328 836.805 474.301 834.006 457.554 834.006H349.074C323.424 834.006 292.829 836.756 276.423 827.04C260.476 817.597 249.487 802.861 244.575 782.263C240.114 763.548 243.58 728.221 243.58 706.64V553.403C243.58 533.842 239.798 499.034 245.571 483.75C249.873 472.355 263.172 466.455 274.432 461.859V460.864C263.468 455.759 250.864 446.535 246.566 434.993C242.335 423.636 244.575 404.669 244.575 390.215V296.681C244.575 273.561 241.373 243.072 248.556 226.033C254.03 213.039 265.23 200.486 277.418 194.192C283.045 191.285 290.988 191.722 296.327 188.221Z" fill="url(#paint0_linear_615_486)"/>
<path fill-rule="evenodd" clip-rule="evenodd" d="M296.327 188.221H619.776C656.644 188.221 729.928 182.398 752.141 196.182C789.115 219.123 781.003 270.269 781.003 328.523V665.843C781.003 703.555 787.038 781.485 773.041 804.154C765.156 816.925 751.677 826.868 736.218 832.016C724.256 835.996 706.233 834.006 691.432 834.006H602.857C586.237 834.006 565.437 836.148 553.096 831.02C549.812 829.658 534.983 818.716 534.187 820.075C526.191 824.2 520.24 830.492 510.301 833.011C495.328 836.805 474.301 834.006 457.554 834.006H349.074C323.424 834.006 292.829 836.756 276.423 827.04C260.476 817.597 249.487 802.861 244.575 782.263C240.114 763.547 243.58 728.221 243.58 706.64V553.403C243.58 533.842 239.798 499.034 245.571 483.75C249.873 472.355 263.172 466.455 274.432 461.859V460.864C263.468 455.759 250.864 446.535 246.566 434.993C242.335 423.636 244.575 404.669 244.575 390.215V296.681C244.575 273.561 241.373 243.072 248.556 226.033C254.03 213.039 265.23 200.486 277.418 194.192C283.045 191.285 290.988 191.722 296.327 188.221ZM303.294 221.058C292.538 228.205 283.2 228.208 278.413 241.954C274.93 251.942 277.418 268.902 277.418 280.761V365.339C277.418 374.722 275.556 416.498 278.413 421.062C281.207 428.687 301.728 440.963 309.265 444.943C316.322 448.671 327.845 453.293 324.194 466.834C319.079 485.803 279.54 486.63 277.418 502.656C273.828 508.451 276.423 525.424 276.423 533.502V740.471C276.423 764.511 275.153 785.603 289.361 795.199C301.067 803.105 323.696 801.169 343.103 801.169L446.607 800.174H504.33C512.829 797.399 529.535 774.575 542.148 782.263C552.508 785.716 557.467 797.211 568.024 800.174L612.81 801.169L724.275 800.174C731.424 798.184 741.521 789.951 745.175 784.253C750.243 776.349 748.16 758.708 748.16 746.442V275.785C748.16 264.263 750.355 247.289 746.17 238.969C743.414 233.488 735.734 225.795 730.246 223.048C723.264 219.552 710.249 221.058 700.39 221.058H303.294ZM484.425 303.647C496.395 303.413 510.799 302.04 521.249 304.642C566.93 316.016 613.009 328.068 634.705 363.349C641.937 375.112 641.179 386.534 644.657 403.151C646.275 410.886 645.124 424.816 642.666 433.002C633.823 462.469 611.602 476.529 600.867 502.656C590.028 529.036 598.876 574.221 587.929 600.17C569.446 643.965 518.899 660.45 470.492 674.798C453.872 679.725 425.901 684.316 405.802 678.779C375.343 670.386 352.648 653.114 343.103 624.051C340.593 616.41 342.051 610.149 340.117 601.165C338.461 593.474 339.586 580.014 342.108 572.309C344.95 564.138 348.974 556.428 354.05 549.423C372.778 523.678 419.697 521.625 432.673 490.715C445.237 460.789 414.743 436.314 407.793 413.102C393.935 366.82 425.867 323.737 453.573 311.607C460.862 308.416 478.752 307.238 484.425 303.647ZM492.387 337.478C488.002 340.084 480.474 338.778 475.468 340.463C464.653 344.104 453.413 352.56 447.602 361.359C440.603 371.956 437.422 396.24 443.621 411.111C455.388 439.34 482.581 462.92 464.521 504.646C456.475 523.234 440.337 535.34 423.716 545.443C405.258 556.664 385.872 558.467 377.936 580.269C367.029 610.234 386.43 636.788 408.788 643.952C423.961 648.812 447.322 645.544 460.54 641.962C499.437 631.414 545.949 616.654 558.072 580.269C562.481 567.035 557.459 549.76 561.058 533.502C564.399 518.408 563.27 503.397 568.024 490.715C577.639 465.07 600.165 451.321 608.829 425.042C628.212 366.246 558.136 349.352 519.258 339.468L492.387 337.478ZM596.886 657.883C622.45 657.858 622.888 683.847 640.676 687.734C646.206 675.47 661.443 667.122 670.533 657.883C676.725 657.783 680.099 658.815 684.466 659.873C686.226 662.35 690.098 664.302 691.432 666.838C700.308 683.704 666.751 700.432 662.571 711.615C674.283 719.353 682.756 732.49 692.428 742.461C692.67 754.81 688.3 756.609 682.475 762.362C677.826 762.745 673.887 764.228 669.537 762.362C662.309 759.261 643.084 739.284 638.685 732.511H637.69V733.506C624.587 742.32 618.673 763.073 597.881 763.357C596.158 761.923 593.816 761.754 591.91 760.372C589.322 758.494 588.157 754.706 585.938 752.412C585.487 747.57 584.303 744.014 586.934 740.471C591.695 726.64 609.938 721.945 614.8 708.63C603.708 701.312 595.53 688.818 585.938 679.774C585.37 672.672 586.318 669.866 587.929 663.853C590.555 662.278 594.654 660.06 596.886 657.883Z" fill="#161616"/>
<defs>
<linearGradient id="paint0_linear_615_486" x1="512.297" y1="187" x2="512.297" y2="835" gradientUnits="userSpaceOnUse">
<stop stop-color="#EA8D46"/>
<stop offset="1" stop-color="#B35523"/>
</linearGradient>
</defs>
</svg>
