<svg width="85" height="85" viewBox="0 0 85 85" fill="none" xmlns="http://www.w3.org/2000/svg">
<g filter="url(#filter0_i_458_18063)">
<path d="M0 24C0 12.6863 0 7.02944 3.51472 3.51472C7.02944 0 12.6863 0 24 0H61C72.3137 0 77.9706 0 81.4853 3.51472C85 7.02944 85 12.6863 85 24V61C85 72.3137 85 77.9706 81.4853 81.4853C77.9706 85 72.3137 85 61 85H24C12.6863 85 7.02944 85 3.51472 81.4853C0 77.9706 0 72.3137 0 61V24Z" fill="#010101"/>
<path d="M24 0.5H61C66.6709 0.5 70.8739 0.500763 74.1006 0.93457C77.3129 1.36646 79.4829 2.21919 81.1318 3.86816C82.7808 5.51714 83.6335 7.68709 84.0654 10.8994C84.4992 14.1261 84.5 18.3291 84.5 24V61C84.5 66.6709 84.4992 70.8739 84.0654 74.1006C83.6335 77.3129 82.7808 79.4829 81.1318 81.1318C79.4829 82.7808 77.3129 83.6335 74.1006 84.0654C70.8739 84.4992 66.6709 84.5 61 84.5H24C18.3291 84.5 14.1261 84.4992 10.8994 84.0654C7.68709 83.6335 5.51714 82.7808 3.86816 81.1318C2.21919 79.4829 1.36646 77.3129 0.93457 74.1006C0.500763 70.8739 0.5 66.6709 0.5 61V24C0.5 18.3291 0.500763 14.1261 0.93457 10.8994C1.36646 7.68709 2.21919 5.51714 3.86816 3.86816C5.51714 2.21919 7.68709 1.36646 10.8994 0.93457C13.3195 0.609207 16.2888 0.527467 20.0146 0.506836L24 0.5Z" stroke="#414141"/>
<path d="M42.4997 18.6667C49.294 18.6667 54.8335 24.2055 54.8337 30.9998C54.8337 37.7941 49.2941 43.3337 42.4997 43.3337C35.7055 43.3336 30.1667 37.794 30.1667 30.9998C30.1669 24.2056 35.7056 18.6669 42.4997 18.6667ZM47.5358 25.6765C46.8048 25.0813 45.7414 25.0812 45.0104 25.6765L44.86 25.8132L42.4997 28.1726L40.1403 25.8132L39.989 25.6765C39.2581 25.0816 38.1954 25.0816 37.4645 25.6765L37.3132 25.8132C36.536 26.5904 36.536 27.8632 37.3132 28.6404L39.6725 30.9998L37.3132 33.3601C36.5361 34.1373 36.536 35.4101 37.3132 36.1873C37.7105 36.5845 38.2222 36.7731 38.7263 36.7732C39.2304 36.7732 39.7429 36.5846 40.1403 36.1873L42.4997 33.8269L44.86 36.1873C45.2574 36.5844 45.7691 36.7731 46.2731 36.7732C46.7774 36.7732 47.2898 36.5847 47.6872 36.1873C48.4643 35.4102 48.4641 34.1373 47.6872 33.3601L45.3268 30.9998L47.6872 28.6404C48.4156 27.9118 48.4612 26.7477 47.8239 25.9646L47.6872 25.8132L47.5358 25.6765Z" fill="url(#paint0_linear_458_18063)" stroke="url(#paint1_linear_458_18063)" stroke-width="2"/>
<path d="M38.125 66H36.3125V58H36.2578L33 65.9062H31.625L28.3672 58H28.3125V66H26.4922V54.7266H28.8281L32.2812 63.2344H32.3438L35.7969 54.7266H38.125V66ZM39.9688 66V57.7188H41.9141V66H39.9688ZM40.9375 56.6328C40.3359 56.6328 39.8594 56.1641 39.8594 55.5781C39.8594 54.9844 40.3359 54.5156 40.9375 54.5156C41.5469 54.5156 42.0234 54.9844 42.0234 55.5781C42.0234 56.1641 41.5469 56.6328 40.9375 56.6328ZM43.3984 60.0938C43.3984 58.5781 44.7344 57.5469 46.75 57.5469C48.6953 57.5469 50.0156 58.5938 50.0625 60.125H48.25C48.1875 59.4141 47.6172 58.9766 46.7109 58.9766C45.8516 58.9766 45.2891 59.3828 45.2891 59.9844C45.2891 60.4531 45.6641 60.7656 46.4766 60.9609L47.9531 61.2891C49.6094 61.6797 50.2578 62.3203 50.2578 63.5469C50.2578 65.1094 48.8125 66.1641 46.7188 66.1641C44.6406 66.1641 43.3203 65.1328 43.1875 63.5625H45.1016C45.2188 64.3203 45.8047 64.7422 46.7891 64.7422C47.7344 64.7422 48.3203 64.3594 48.3203 63.7422C48.3203 63.2578 48.0156 63 47.2109 62.7969L45.7031 62.4453C44.1719 62.0859 43.3984 61.2891 43.3984 60.0938ZM51.3516 60.0938C51.3516 58.5781 52.6875 57.5469 54.7031 57.5469C56.6484 57.5469 57.9688 58.5938 58.0156 60.125H56.2031C56.1406 59.4141 55.5703 58.9766 54.6641 58.9766C53.8047 58.9766 53.2422 59.3828 53.2422 59.9844C53.2422 60.4531 53.6172 60.7656 54.4297 60.9609L55.9062 61.2891C57.5625 61.6797 58.2109 62.3203 58.2109 63.5469C58.2109 65.1094 56.7656 66.1641 54.6719 66.1641C52.5938 66.1641 51.2734 65.1328 51.1406 63.5625H53.0547C53.1719 64.3203 53.7578 64.7422 54.7422 64.7422C55.6875 64.7422 56.2734 64.3594 56.2734 63.7422C56.2734 63.2578 55.9688 63 55.1641 62.7969L53.6562 62.4453C52.125 62.0859 51.3516 61.2891 51.3516 60.0938Z" fill="url(#paint2_linear_458_18063)"/>
</g>
<defs>
<filter id="filter0_i_458_18063" x="0" y="0" width="85" height="85" filterUnits="userSpaceOnUse" color-interpolation-filters="sRGB">
<feFlood flood-opacity="0" result="BackgroundImageFix"/>
<feBlend mode="normal" in="SourceGraphic" in2="BackgroundImageFix" result="shape"/>
<feColorMatrix in="SourceAlpha" type="matrix" values="0 0 0 0 0 0 0 0 0 0 0 0 0 0 0 0 0 0 127 0" result="hardAlpha"/>
<feOffset dy="-1"/>
<feComposite in2="hardAlpha" operator="arithmetic" k2="-1" k3="1"/>
<feColorMatrix type="matrix" values="0 0 0 0 0.346154 0 0 0 0 0.345204 0 0 0 0 0.34449 0 0 0 1 0"/>
<feBlend mode="normal" in2="shape" result="effect1_innerShadow_458_18063"/>
</filter>
<linearGradient id="paint0_linear_458_18063" x1="29.1667" y1="31.0001" x2="55.8334" y2="31.0001" gradientUnits="userSpaceOnUse">
<stop stop-color="#B52F2F"/>
<stop offset="1" stop-color="#C01F1F"/>
</linearGradient>
<linearGradient id="paint1_linear_458_18063" x1="29.1667" y1="31.0001" x2="55.8334" y2="31.0001" gradientUnits="userSpaceOnUse">
<stop stop-color="#B52F2F"/>
<stop offset="1" stop-color="#C01F1F"/>
</linearGradient>
<linearGradient id="paint2_linear_458_18063" x1="25.5" y1="60.5" x2="59.5" y2="60.5" gradientUnits="userSpaceOnUse">
<stop stop-color="#B52F2F"/>
<stop offset="1" stop-color="#C01F1F"/>
</linearGradient>
</defs>
</svg>
