<svg width="26" height="26" viewBox="0 0 26 26" fill="none" xmlns="http://www.w3.org/2000/svg">
<path d="M13 2.16675C10.1616 2.16675 7.85413 4.47425 7.85413 7.31258C7.85413 10.0967 10.0316 12.3501 12.87 12.4476C12.9566 12.4367 13.0433 12.4367 13.1083 12.4476C13.13 12.4476 13.1408 12.4476 13.1625 12.4476C13.1733 12.4476 13.1733 12.4476 13.1841 12.4476C15.9575 12.3501 18.135 10.0967 18.1458 7.31258C18.1458 4.47425 15.8383 2.16675 13 2.16675Z" fill="#FAFAFA"/>
<path d="M18.5033 15.3291C15.4808 13.3141 10.5516 13.3141 7.50746 15.3291C6.13162 16.25 5.37329 17.4958 5.37329 18.8283C5.37329 20.1608 6.13162 21.3958 7.49662 22.3058C9.01329 23.3241 11.0066 23.8333 13 23.8333C14.9933 23.8333 16.9866 23.3241 18.5033 22.3058C19.8683 21.385 20.6266 20.15 20.6266 18.8066C20.6158 17.4741 19.8683 16.2391 18.5033 15.3291Z" fill="#414141"/>
</svg>
