<svg width="1024" height="1024" viewBox="0 0 1024 1024" fill="none" xmlns="http://www.w3.org/2000/svg">
<rect width="1024" height="1024" fill="#161616"/>
<path fill-rule="evenodd" clip-rule="evenodd" d="M503.482 162.057C579.659 160.602 627.451 187.225 666.759 222.589C666.604 223.059 666.445 223.528 666.29 223.997C658.126 227.435 649.831 232.601 642.361 237.136C638.359 239.564 634.268 240.468 630.163 242.767C621.089 247.848 610.691 253.106 602.011 258.721C596.888 262.037 591.056 263.378 585.59 266.229C577.956 270.213 569.487 274.827 562.131 279.368C554.037 284.365 545.038 286.747 536.795 291.568C524.971 298.486 512.514 304.496 499.729 310.338C497.101 311.538 489.621 316.939 487.53 317.377C486.047 317.688 484.189 314.732 483.307 314.092C479.113 311.048 474.163 307.722 469.232 305.646C454.391 299.399 430.566 297.744 413.868 303.769C397.957 309.51 384.168 319.914 375.395 332.862C372.673 336.878 370.418 342.16 368.357 346.47C367.434 348.399 368.025 350.427 366.48 351.632C361.554 355.47 351.786 353.396 345.367 355.855C339.861 357.967 329.334 359.214 322.376 361.017H317.215C311.739 362.759 303.967 364.668 297.04 364.771C296.59 363.942 296.451 363.982 296.102 362.894C298.147 359.374 296.281 350.977 297.51 346.47C301.463 331.968 303.024 317.88 307.832 304.707C327.068 251.996 363.43 215.645 408.238 188.335C411.689 186.231 415.211 185.322 419.029 183.642C424.244 181.348 430.108 177.969 435.45 175.665C447.451 170.489 461.466 168.807 474.393 164.872H480.023C484.227 163.864 490.164 163.613 495.037 162.526C497.699 161.932 501.545 163.271 503.482 162.057ZM683.181 243.236C687.263 244.362 688.473 247.748 690.688 250.744C696.088 258.054 700.114 263.853 704.763 272.329C709.389 280.765 714.724 290.06 718.37 299.546C722.015 309.031 724.371 319.226 727.284 329.108C729.391 336.259 729.424 343.671 731.038 350.693C731.193 353.978 731.349 357.263 731.507 360.547C733.745 370.814 733.313 388.443 731.038 398.087C730.883 401.528 730.726 404.969 730.569 408.41C728.772 414.822 728.162 421.29 725.877 427.649C725.722 429.213 725.562 430.778 725.407 432.342C716.141 454.837 708.395 477.999 691.157 492.405C689.534 493.762 688.633 496.289 686.934 497.567C677.048 504.992 665.403 511.375 654.56 517.745C648.925 521.057 638.894 524.018 635.324 529.006C628.305 538.809 634.442 555.195 631.101 567.484C630.946 569.047 630.787 570.614 630.632 572.177C626.264 581.139 601.467 589.013 588.874 590.477C588.496 589.789 588.022 589.157 587.467 588.6C588.264 586.311 587.936 582.261 587.936 579.216C587.936 570.741 590.043 554.97 585.121 551.061C581.222 547.79 574.785 548.419 569.168 549.184C567.78 551.3 565.79 553.492 564.946 556.223C563.806 559.901 565.743 561.835 564.946 565.607C563.186 573.955 564.838 586.006 564.477 594.701C563.158 595.409 562.149 595.658 559.785 595.639C557.307 598.211 550.27 596.057 546.178 597.047C540.506 598.417 532.004 599.745 525.534 599.862C525.198 598.801 525.04 597.691 525.065 596.578C526.308 594.283 525.07 588.952 525.065 584.847C525.056 574.486 526.074 560.873 524.127 553.407C514.64 546.95 509.881 548.208 502.075 555.753V599.862C501.324 600.146 500.531 600.305 499.729 600.332C497.101 598.75 492.899 600.163 489.407 599.393C480.864 597.516 471.484 597.009 463.602 595.17C460.95 590.032 462.613 572.182 462.663 564.669C466.011 559.718 459.218 549.733 456.095 548.715C452.588 545.927 447.152 547.922 444.365 549.653C442.69 550.695 440.399 552.06 439.673 553.876V589.539C439.288 589.956 438.971 590.431 438.735 590.947C427.051 588.384 415.711 584.446 404.953 579.216C404.015 579.061 403.077 578.901 402.138 578.746C399.282 576.907 397.174 572.383 396.039 568.892C391.722 555.613 400.074 534.97 390.878 526.191C386.964 522.456 379.491 520.527 374.456 517.745C364.888 512.461 354.65 507.486 345.836 501.321C343.343 499.577 341.281 496.154 338.798 494.282C316.445 477.434 308.493 448.14 299.386 417.795C299.23 415.449 299.074 413.103 298.917 410.757C297.529 404.961 296.918 397.247 296.102 390.579H296.571V390.11C306.597 389.11 317.663 386.794 327.068 384.479C332.774 383.075 338.428 384.042 343.959 382.133C346.99 381.086 361.326 377.866 363.665 378.848C364.944 380.386 363.853 382.057 364.603 384.479C366.058 389.185 367.253 395.341 369.295 399.964C374.738 412.285 386.837 426.65 398.385 432.811C405.688 436.64 413.4 439.631 421.375 441.727C432.474 444.758 446.35 442.509 455.625 439.85C484.608 431.54 500.382 412.519 507.705 382.602C510.204 372.393 507.026 352.846 504.421 345.532C503.482 342.892 501.411 341.095 501.136 337.554C512.367 332.674 523.381 326.236 533.979 320.662C537.512 318.803 540.647 318.247 544.302 316.438C554.192 311.541 564.505 305.605 574.329 300.484C592.337 291.096 611.489 283.94 628.286 273.268L629.693 270.452C630.665 269.697 631.763 270.077 632.978 269.514C636.389 267.931 640.156 265.317 643.3 263.414L646.115 262.945C646.429 262.475 646.739 262.006 647.053 261.537C654.138 257.222 661.725 255.058 669.105 251.213C671.015 250.218 673.375 247.924 675.205 246.99C678.165 245.479 680.971 245.356 683.181 243.236ZM603.419 330.985C600.904 332.823 597.118 331.294 593.566 332.393C590.774 333.256 586.749 334.391 583.713 335.677C572.242 340.543 562.891 350.536 557.439 361.486C555.252 365.874 554.192 371.324 552.747 376.033C550.683 382.755 552.235 395.524 553.685 400.903V405.126C558.926 423.647 570.351 435.279 587.467 442.196C592.464 444.214 606.75 447.452 615.149 445.481C620.117 444.316 625.888 443.525 630.632 441.727C643.032 437.025 654.847 426.231 659.721 414.041C659.876 412.947 660.036 411.851 660.191 410.757C660.585 409.935 661.739 408.652 662.067 407.472V404.656C662.166 404.413 663.358 403.602 663.475 403.249C667.191 392.023 663.573 374.415 660.191 366.178C650.896 343.565 635.53 330.829 603.419 330.985ZM510.989 434.219C509.441 435.654 506.861 436.024 505.359 437.504C499.629 443.145 495.147 453.651 490.814 460.966C487.085 467.262 482.916 472.419 482.838 482.551C484.708 484.668 485.131 487.505 487.999 488.651C495.481 491.641 508.766 490.059 518.496 490.059C523.329 490.059 529.466 490.499 533.51 489.59C537.836 488.617 541.407 489.442 542.894 485.836C546.291 482.215 543.509 473.784 541.486 469.882C534.735 456.844 527.312 443.854 517.089 434.219H510.989ZM764.819 481.143C788.292 480.956 801.012 495.391 805.638 514.46C807.773 523.258 799.196 539.081 803.762 545.899C806.797 550.437 820.446 551.436 826.283 553.876C830.492 555.616 834.316 558.17 837.537 561.391C840.757 564.612 843.31 568.437 845.05 572.646C854.8 596.301 838.552 620.092 822.998 626.609C806.112 633.686 786.406 625.605 775.141 619.571C770.473 617.07 763.904 610.486 754.966 613.001C746.441 615.404 738.343 621.645 730.569 625.202C725.581 627.482 721.147 628.294 716.493 630.833C716.179 631.302 715.869 631.771 715.555 632.24C712.876 633.883 709.896 634.07 707.109 635.525C701.587 638.406 695.375 642.432 689.749 644.91H687.403C686.657 645.191 685.672 646.472 685.057 646.787C682.261 648.209 679.915 648.162 677.081 649.602C668.753 653.835 659.796 659.283 651.276 663.21C638.003 669.329 624.875 675.228 612.334 681.98C608.242 684.186 600.477 685.523 600.135 691.365C600.52 691.952 600.835 692.582 601.073 693.242C619.526 704.166 642.577 710.055 662.067 719.989C667.435 722.725 678.484 729.857 686.465 727.497C691.837 725.911 697.242 722.19 701.479 719.051C702.333 718.417 702.553 716.864 703.356 716.235C712.566 709.023 722.531 702.411 735.73 699.342C744.02 697.414 751.579 701.027 756.374 703.096C768.075 708.145 783.737 723.593 779.364 742.513V747.675C778.167 752.242 776.435 756.653 774.203 760.813C772.012 764.732 762.684 773.023 758.72 775.36C752.869 778.814 744.156 778.354 740.421 783.806C733.848 792.107 744.752 805.012 746.99 812.9C751.504 828.816 742.401 846.835 733.853 852.785C729.996 855.469 724.901 858.299 720.246 859.824C709.99 863.193 698.927 860.688 691.626 857.009C670.325 846.268 668.805 824.706 662.537 799.291C651.905 793.539 641.254 789.053 629.693 784.276C621.478 780.878 612.925 775.322 604.827 771.606C588.813 764.258 574.132 757.562 557.908 750.49C551.607 747.745 544.987 743.869 538.671 741.105C535.382 739.665 532.14 739.472 528.818 737.82C523.732 735.291 517.797 731.049 510.989 730.782C507.439 734.137 501.271 734.813 496.445 736.882C487.054 740.903 477.591 745.249 467.824 749.552C460.169 752.925 451.946 757.374 444.834 761.283C438.234 764.91 431.452 766.341 424.659 769.729C417.656 773.22 410.307 777.819 403.077 780.991C394.728 784.651 387.018 788.785 379.148 792.253C374.831 794.153 370.233 795.294 366.48 797.884C361.401 801.389 360.653 809.244 358.973 816.184V820.877C356.175 830.787 351.097 844.569 343.959 849.97C332.005 859.017 314.916 867.82 297.04 857.009C287.595 851.298 272.264 831.58 277.335 813.369C280.327 802.623 288.412 798.067 284.842 783.806C283.476 782.938 282.385 781.334 281.088 780.522L272.174 777.706C264.724 774.314 256.75 767.904 252.468 761.283C250.174 757.735 247.977 752.329 246.837 748.144C245.488 743.184 245.847 737.497 246.837 733.128C251.831 711.097 261.837 703.204 283.903 698.404C291.429 696.766 301.116 701.97 305.017 704.504C312.63 709.45 319.573 713.964 327.068 719.051C330.804 721.585 334.2 725.878 338.798 727.497C345.644 729.909 353.836 725.794 358.504 723.743C373.2 717.291 387.98 708.981 403.546 703.096C409.582 700.816 423.712 696.888 426.067 691.834C426.723 690.783 426.322 690.295 426.067 689.019C422.627 687.414 418.996 684.697 415.745 682.919C410.06 679.812 404.314 678.114 398.385 675.411C395.915 674.285 393.004 671.84 390.408 670.718C389.001 670.404 387.593 670.094 386.186 669.78C363.794 658.41 341.432 646.501 317.685 636.463C316.977 636.163 316.381 634.877 315.808 634.586C304.274 628.735 293.263 624.005 281.557 618.632C278.665 617.304 275.483 614.587 272.643 613.47C260.841 608.82 251.298 619.838 244.022 623.325C218.931 635.342 185.497 624.685 178.805 602.678C172.667 582.491 182.989 560.483 197.573 554.815C204.16 552.257 217.153 551.169 221.032 546.368C226.683 538.26 217.582 527.829 219.625 517.745C220.51 513.371 220.443 509.189 221.971 505.075C225.677 495.09 244.58 478.703 261.851 482.551C282.873 487.234 293.055 498.641 298.448 518.683C301.241 529.063 297.722 543.525 304.547 549.653C306.816 551.69 312.421 552.755 315.339 554.346C328.536 561.544 343.053 567.987 356.158 575.462C357.096 575.616 358.035 575.776 358.973 575.931C393.517 593.612 428.456 611.922 464.071 628.486C473.012 632.644 482.174 638.111 490.814 642.564C494.099 644.258 497.477 644.525 500.667 646.318C504.253 648.331 510.314 653.389 517.558 651.01C521.565 649.696 525.989 646.383 529.757 644.441C540.252 639.03 550.593 634.225 560.723 628.956C569.558 624.357 577.938 620.931 586.998 616.755C597.132 612.086 607.548 605.934 617.495 600.801C624.579 597.145 631.678 594.452 638.139 590.477C643.891 586.939 651.558 584.466 657.845 581.562C660.88 580.159 664.193 577.334 667.228 575.931C679.469 570.281 691.058 564.955 702.417 558.569C707.166 555.899 723.324 550.69 724.938 546.368C727.43 542.338 724.61 534.867 725.877 529.476C727.12 524.183 727.735 517.51 729.63 512.114C734.214 499.049 741.655 489.3 753.559 483.49C756.805 481.905 761.722 483.034 764.819 481.143Z" fill="#FAFAFA"/>
</svg>
