<svg width="1024" height="1024" viewBox="0 0 1024 1024" fill="none" xmlns="http://www.w3.org/2000/svg">
<rect width="1024" height="1024" fill="#161616"/>
<rect x="68.0391" y="221.811" width="703" height="519" rx="93" fill="url(#paint0_linear_618_511)"/>
<rect x="86" y="222" width="685" height="197" rx="52" fill="url(#paint1_linear_618_511)"/>
<rect x="638.039" y="418.811" width="308" height="401" rx="48" fill="url(#paint2_linear_618_511)"/>
<path fill-rule="evenodd" clip-rule="evenodd" d="M794.903 398.301C836.047 398.033 918.411 391.7 941.416 408.447C964.182 425.019 960.576 463.593 960.576 503.142V715.079C960.576 748.769 964.336 788.715 950.432 808.647C930.858 836.708 900.505 834.576 853.508 834.576H731.79C701.705 834.576 668.178 837.105 649.517 825.557C635.264 816.738 622.806 800.799 617.96 782.719C617.209 772.197 616.457 761.675 615.706 751.154C609.519 747.342 591.7 750.026 583.022 750.026H108.545C94.5923 750.026 79.6604 751.185 71.3531 745.517C55.994 735.039 62.3369 687.066 62.3369 662.095V418.593C62.3369 347.057 56.0075 277.814 86.0044 235.966C100.022 216.41 122.934 200.374 149.118 193.128C169.986 187.353 201.159 190.873 225.755 190.873H377.904C458.253 190.873 531.922 190.873 612.325 190.873C659.893 190.873 707.047 188.002 735.171 206.656C767.209 227.906 783.815 259.779 793.776 303.606V314.879C798.969 338.863 794.941 372.05 794.903 398.301ZM247.169 398.301H758.838C760.706 392.815 760.052 383.056 759.965 375.754C754.009 365.897 762.2 324.067 758.838 309.242C751.963 278.93 741.116 254.506 719.392 239.348C689.347 218.38 621.499 225.82 571.752 225.82H218.993V228.075C253.744 252.952 246.995 337.556 247.169 398.301ZM153.626 229.202L143.483 232.584C135.03 236.791 124.154 244.391 118.688 251.749C91.9337 287.766 97.1473 335.497 97.2746 397.174C106.682 400.284 122.998 398.301 134.466 398.301H211.104C212.688 393.672 212.315 385.513 212.231 379.136C210.262 376.364 211.911 365.977 212.231 359.972C211.855 346.068 211.48 332.165 211.104 318.261C211.117 275.029 193.111 230.286 153.626 229.202ZM98.4017 713.952H211.104C211.142 620.108 212.251 532.304 212.231 434.375C202.824 431.265 186.508 433.248 175.039 433.248H98.4017C96.8182 437.877 97.1912 446.036 97.2746 452.413C99.7237 456.391 98.4017 466.715 98.4017 472.704V617.002C98.4017 631.531 96.9365 647.045 98.4017 658.713C98.7341 661.359 97.2837 666.88 97.2746 671.114C97.2453 685.473 97.5384 701.297 98.4017 713.952ZM247.169 433.248V713.952H616.833V712.825C613.71 707.831 615.714 692.111 616.833 686.896C616.457 672.241 616.082 657.586 615.706 642.93V511.033C615.706 482.911 614.804 452.443 623.595 433.248H247.169ZM674.311 433.248L664.168 436.63C661.332 440.907 656.126 444.214 654.025 449.031C648.035 462.767 648.023 518.361 651.771 535.835C651.395 543.35 651.019 550.866 650.644 558.381C652.909 571.836 651.771 590.377 651.771 605.729V693.66H654.025C662.095 685.796 683.155 685.07 693.471 691.405C698.806 694.683 699.435 698.536 708.122 699.297C728.61 678.698 754.23 687.573 771.235 703.806C771.606 708.909 772.802 711.389 770.108 715.079C768.643 719.421 766.075 720.133 763.346 722.971C749.695 723.691 745.83 714.654 734.044 715.079C727.302 723.777 705.782 730.583 691.217 724.098C684.754 721.22 681.761 715.466 673.184 713.952C670.201 716.657 652.508 724.171 651.771 725.225V771.446C651.771 784.5 657.377 791.027 669.803 796.247C682.956 801.771 707.988 798.501 725.027 798.501H846.746C870.658 798.501 909.592 803.623 920.003 789.483C928.644 777.746 925.638 750.815 925.638 730.862V474.959C925.638 458.204 927.892 439.971 915.495 435.503C908.097 429.952 864.873 433.248 851.254 433.248H674.311ZM437.636 465.94H522.163C535.985 465.94 551.409 464.576 559.355 470.45C568.091 476.908 566.117 494.756 566.117 509.906C566.117 549.862 561.547 575.591 539.068 592.201C532.828 596.829 526.007 600.619 518.782 603.474C478.043 618.277 438.109 593.441 426.366 567.4C422.573 558.989 423.077 552.083 420.731 541.471C418.568 531.692 417.223 484.864 421.858 478.341C423.519 473.062 426.973 472.066 429.747 468.195C432.834 467.919 435.736 467.381 437.636 465.94ZM873.795 497.506C894.306 497.029 903.183 505.789 913.24 515.543C913.79 528.906 909.183 534.897 896.335 534.707C891.489 530.686 884.678 525.269 877.176 524.561C855.923 545.868 830.168 538.799 811.808 521.179C811.47 510.207 816.603 497.707 829.841 502.015C836.934 504.324 838.017 510.053 847.873 511.033L864.778 499.76C867.821 498.481 871.42 499.136 873.795 497.506ZM454.541 500.888C453.838 536.3 453.508 558.322 478.209 568.527C482.92 570.473 492.234 574.071 500.749 571.909C530.657 564.316 531.941 539.329 531.179 500.888H454.541ZM739.679 523.434L752.076 524.561C753.83 527.255 755.37 527.858 756.584 531.325C760.241 535.799 757.921 540.857 756.584 545.981C748.396 551.651 717.167 572.602 716.011 545.981C714.94 543.8 716.308 540.425 717.138 536.962C723.408 533.179 734.295 528.652 739.679 523.434ZM794.903 525.689C808.504 525.672 826.667 539.416 826.46 553.872C823.343 557.085 820.469 560.783 817.443 564.018C813.528 564.165 808.391 564.394 806.173 562.89C797.285 560.113 783.662 549.257 783.633 536.962C784.811 535.283 785.583 533.354 785.887 531.325C788.479 529.765 792.456 527.735 794.903 525.689ZM699.106 576.418C704.394 576.55 706.287 577.677 710.376 578.673C713.624 583.408 721.299 602.758 714.884 612.493C712.813 619.518 707.386 621.756 697.979 621.511C694.748 618.507 691.795 618.449 690.09 613.62C683.271 604.72 687.605 581.379 695.725 578.673C696.594 577.904 698.24 577.195 699.106 576.418ZM731.79 636.167C743 636.103 757.512 643.911 762.219 650.822C770.325 660.493 759.352 676.976 745.314 672.241C739.602 670.314 725.896 663.488 723.9 657.586C715.308 648.446 727.169 639.834 731.79 636.167ZM801.665 639.548C822.043 641.133 824.08 664.512 841.111 668.859C843.322 665.291 865.062 642.183 868.159 640.676C881.703 634.084 893.787 649.312 894.081 660.968C892.432 662.916 892.261 665.554 890.7 667.732C883.903 677.216 868.964 683.157 864.778 694.787C876.069 702.237 884.322 714.897 894.081 724.098C894.452 729.201 895.648 731.681 892.954 735.371C890.819 743.761 883.036 748.713 872.668 748.899C870.719 747.251 868.083 747.078 865.905 745.517C856.125 738.504 849.948 723.766 838.857 718.461C832.923 727.678 813.612 748.634 799.411 748.899C794.339 743.973 789.685 739.317 784.76 734.244V726.352C794.227 715.39 807.274 705.582 815.189 693.66C808.283 689.216 786.84 668.972 785.887 659.84C784.985 658.51 785.016 657.945 784.76 655.331C787.662 651.86 788.991 646.718 792.649 644.058C795.411 642.049 799.073 641.64 801.665 639.548ZM719.392 747.772C732.053 747.601 745.99 747.81 755.457 750.026C756.903 752.362 757.798 752.619 758.838 755.663C762.495 760.136 760.175 765.195 758.838 770.318L752.076 775.955C736.001 776.444 715.796 780.622 711.503 768.064C707.846 763.59 710.166 758.532 711.503 753.408L719.392 747.772Z" fill="#161616"/>
<defs>
<linearGradient id="paint0_linear_618_511" x1="419.539" y1="221.811" x2="419.539" y2="740.811" gradientUnits="userSpaceOnUse">
<stop stop-color="#EA8D46"/>
<stop offset="1" stop-color="#B35523"/>
</linearGradient>
<linearGradient id="paint1_linear_618_511" x1="428.5" y1="222" x2="428.5" y2="419" gradientUnits="userSpaceOnUse">
<stop stop-color="#EA8D46"/>
<stop offset="1" stop-color="#B35523"/>
</linearGradient>
<linearGradient id="paint2_linear_618_511" x1="792.039" y1="418.811" x2="792.039" y2="819.811" gradientUnits="userSpaceOnUse">
<stop stop-color="#EA8D46"/>
<stop offset="1" stop-color="#B35523"/>
</linearGradient>
</defs>
</svg>
