<svg width="26" height="26" viewBox="0 0 26 26" fill="none" xmlns="http://www.w3.org/2000/svg">
<path d="M21.775 7.51841C21.775 8.10341 21.4608 8.63425 20.9625 8.90508L19.0775 9.92341L17.4741 10.7792L14.1483 12.5776C13.7908 12.7726 13.4008 12.8701 13 12.8701C12.5991 12.8701 12.2091 12.7726 11.8516 12.5776L5.03748 8.90508C4.53914 8.63425 4.22498 8.10341 4.22498 7.51841C4.22498 6.93341 4.53914 6.40258 5.03748 6.13175L7.17164 4.98341L8.87248 4.06258L11.8516 2.45925C12.5666 2.06925 13.4333 2.06925 14.1483 2.45925L20.9625 6.13175C21.4608 6.40258 21.775 6.93341 21.775 7.51841Z" fill="#FAFAFA"/>
<path d="M10.725 13.8557L4.38749 10.6924C3.89999 10.4432 3.33666 10.4757 2.87082 10.7574C2.40499 11.0391 2.13416 11.5374 2.13416 12.0791V18.0699C2.13416 19.1099 2.70832 20.0416 3.63999 20.5074L9.97749 23.6707C10.1942 23.7791 10.4325 23.8332 10.6708 23.8332C10.9525 23.8332 11.2342 23.7574 11.4833 23.5949C11.9492 23.3132 12.22 22.8149 12.22 22.2732V16.2824C12.2308 15.2532 11.6567 14.3216 10.725 13.8557Z" fill="#414141"/>
<path d="M23.8658 12.0791V18.0699C23.8658 19.0991 23.2917 20.0308 22.36 20.4966L16.0225 23.6708C15.8058 23.7791 15.5675 23.8333 15.3292 23.8333C15.0475 23.8333 14.7658 23.7574 14.5058 23.5949C14.0508 23.3133 13.7692 22.8149 13.7692 22.2733V16.2933C13.7692 15.2533 14.3433 14.3216 15.275 13.8558L17.6042 12.6966L19.2292 11.8841L21.6125 10.6924C22.1 10.4433 22.6633 10.4649 23.1292 10.7574C23.5842 11.0391 23.8658 11.5374 23.8658 12.0791Z" fill="#414141"/>
<path d="M19.0775 9.92333L17.4741 10.7792L7.17163 4.98333L8.87246 4.0625L18.8175 9.67417C18.9258 9.73917 19.0125 9.82583 19.0775 9.92333Z" fill="#FAFAFA"/>
<path d="M19.2291 11.8843V14.3434C19.2291 14.7876 18.8608 15.1559 18.4166 15.1559C17.9725 15.1559 17.6041 14.7876 17.6041 14.3434V12.6968L19.2291 11.8843Z" fill="#FAFAFA"/>
</svg>
